G04 #@! TF.GenerationSoftware,KiCad,Pcbnew,(5.1.4)-1*
G04 #@! TF.CreationDate,2021-02-09T20:39:42-03:00*
G04 #@! TF.ProjectId,Eucalyptus,45756361-6c79-4707-9475-732e6b696361,rev?*
G04 #@! TF.SameCoordinates,Original*
G04 #@! TF.FileFunction,Soldermask,Bot*
G04 #@! TF.FilePolarity,Negative*
%FSLAX46Y46*%
G04 Gerber Fmt 4.6, Leading zero omitted, Abs format (unit mm)*
G04 Created by KiCad (PCBNEW (5.1.4)-1) date 2021-02-09 20:39:42*
%MOMM*%
%LPD*%
G04 APERTURE LIST*
%ADD10C,0.100000*%
G04 APERTURE END LIST*
D10*
G36*
X108891564Y-126870389D02*
G01*
X109082833Y-126949615D01*
X109082835Y-126949616D01*
X109254973Y-127064635D01*
X109401365Y-127211027D01*
X109500348Y-127359165D01*
X109516385Y-127383167D01*
X109595611Y-127574436D01*
X109636000Y-127777484D01*
X109636000Y-127984516D01*
X109595611Y-128187564D01*
X109526326Y-128354833D01*
X109516384Y-128378835D01*
X109401365Y-128550973D01*
X109254973Y-128697365D01*
X109082835Y-128812384D01*
X109082834Y-128812385D01*
X109082833Y-128812385D01*
X108891564Y-128891611D01*
X108688516Y-128932000D01*
X108481484Y-128932000D01*
X108278436Y-128891611D01*
X108087167Y-128812385D01*
X108087166Y-128812385D01*
X108087165Y-128812384D01*
X107915027Y-128697365D01*
X107768635Y-128550973D01*
X107653616Y-128378835D01*
X107643674Y-128354833D01*
X107574389Y-128187564D01*
X107534000Y-127984516D01*
X107534000Y-127777484D01*
X107574389Y-127574436D01*
X107653615Y-127383167D01*
X107669653Y-127359165D01*
X107768635Y-127211027D01*
X107915027Y-127064635D01*
X108087165Y-126949616D01*
X108087167Y-126949615D01*
X108278436Y-126870389D01*
X108481484Y-126830000D01*
X108688516Y-126830000D01*
X108891564Y-126870389D01*
X108891564Y-126870389D01*
G37*
G36*
X111431564Y-126870389D02*
G01*
X111622833Y-126949615D01*
X111622835Y-126949616D01*
X111794973Y-127064635D01*
X111941365Y-127211027D01*
X112040348Y-127359165D01*
X112056385Y-127383167D01*
X112135611Y-127574436D01*
X112176000Y-127777484D01*
X112176000Y-127984516D01*
X112135611Y-128187564D01*
X112066326Y-128354833D01*
X112056384Y-128378835D01*
X111941365Y-128550973D01*
X111794973Y-128697365D01*
X111622835Y-128812384D01*
X111622834Y-128812385D01*
X111622833Y-128812385D01*
X111431564Y-128891611D01*
X111228516Y-128932000D01*
X111021484Y-128932000D01*
X110818436Y-128891611D01*
X110627167Y-128812385D01*
X110627166Y-128812385D01*
X110627165Y-128812384D01*
X110455027Y-128697365D01*
X110308635Y-128550973D01*
X110193616Y-128378835D01*
X110183674Y-128354833D01*
X110114389Y-128187564D01*
X110074000Y-127984516D01*
X110074000Y-127777484D01*
X110114389Y-127574436D01*
X110193615Y-127383167D01*
X110209653Y-127359165D01*
X110308635Y-127211027D01*
X110455027Y-127064635D01*
X110627165Y-126949616D01*
X110627167Y-126949615D01*
X110818436Y-126870389D01*
X111021484Y-126830000D01*
X111228516Y-126830000D01*
X111431564Y-126870389D01*
X111431564Y-126870389D01*
G37*
G36*
X106351564Y-126870389D02*
G01*
X106542833Y-126949615D01*
X106542835Y-126949616D01*
X106714973Y-127064635D01*
X106861365Y-127211027D01*
X106960348Y-127359165D01*
X106976385Y-127383167D01*
X107055611Y-127574436D01*
X107096000Y-127777484D01*
X107096000Y-127984516D01*
X107055611Y-128187564D01*
X106986326Y-128354833D01*
X106976384Y-128378835D01*
X106861365Y-128550973D01*
X106714973Y-128697365D01*
X106542835Y-128812384D01*
X106542834Y-128812385D01*
X106542833Y-128812385D01*
X106351564Y-128891611D01*
X106148516Y-128932000D01*
X105941484Y-128932000D01*
X105738436Y-128891611D01*
X105547167Y-128812385D01*
X105547166Y-128812385D01*
X105547165Y-128812384D01*
X105375027Y-128697365D01*
X105228635Y-128550973D01*
X105113616Y-128378835D01*
X105103674Y-128354833D01*
X105034389Y-128187564D01*
X104994000Y-127984516D01*
X104994000Y-127777484D01*
X105034389Y-127574436D01*
X105113615Y-127383167D01*
X105129653Y-127359165D01*
X105228635Y-127211027D01*
X105375027Y-127064635D01*
X105547165Y-126949616D01*
X105547167Y-126949615D01*
X105738436Y-126870389D01*
X105941484Y-126830000D01*
X106148516Y-126830000D01*
X106351564Y-126870389D01*
X106351564Y-126870389D01*
G37*
G36*
X98731564Y-126870389D02*
G01*
X98922833Y-126949615D01*
X98922835Y-126949616D01*
X99094973Y-127064635D01*
X99241365Y-127211027D01*
X99340348Y-127359165D01*
X99356385Y-127383167D01*
X99435611Y-127574436D01*
X99476000Y-127777484D01*
X99476000Y-127984516D01*
X99435611Y-128187564D01*
X99366326Y-128354833D01*
X99356384Y-128378835D01*
X99241365Y-128550973D01*
X99094973Y-128697365D01*
X98922835Y-128812384D01*
X98922834Y-128812385D01*
X98922833Y-128812385D01*
X98731564Y-128891611D01*
X98528516Y-128932000D01*
X98321484Y-128932000D01*
X98118436Y-128891611D01*
X97927167Y-128812385D01*
X97927166Y-128812385D01*
X97927165Y-128812384D01*
X97755027Y-128697365D01*
X97608635Y-128550973D01*
X97493616Y-128378835D01*
X97483674Y-128354833D01*
X97414389Y-128187564D01*
X97374000Y-127984516D01*
X97374000Y-127777484D01*
X97414389Y-127574436D01*
X97493615Y-127383167D01*
X97509653Y-127359165D01*
X97608635Y-127211027D01*
X97755027Y-127064635D01*
X97927165Y-126949616D01*
X97927167Y-126949615D01*
X98118436Y-126870389D01*
X98321484Y-126830000D01*
X98528516Y-126830000D01*
X98731564Y-126870389D01*
X98731564Y-126870389D01*
G37*
G36*
X101271564Y-126870389D02*
G01*
X101462833Y-126949615D01*
X101462835Y-126949616D01*
X101634973Y-127064635D01*
X101781365Y-127211027D01*
X101880348Y-127359165D01*
X101896385Y-127383167D01*
X101975611Y-127574436D01*
X102016000Y-127777484D01*
X102016000Y-127984516D01*
X101975611Y-128187564D01*
X101906326Y-128354833D01*
X101896384Y-128378835D01*
X101781365Y-128550973D01*
X101634973Y-128697365D01*
X101462835Y-128812384D01*
X101462834Y-128812385D01*
X101462833Y-128812385D01*
X101271564Y-128891611D01*
X101068516Y-128932000D01*
X100861484Y-128932000D01*
X100658436Y-128891611D01*
X100467167Y-128812385D01*
X100467166Y-128812385D01*
X100467165Y-128812384D01*
X100295027Y-128697365D01*
X100148635Y-128550973D01*
X100033616Y-128378835D01*
X100023674Y-128354833D01*
X99954389Y-128187564D01*
X99914000Y-127984516D01*
X99914000Y-127777484D01*
X99954389Y-127574436D01*
X100033615Y-127383167D01*
X100049653Y-127359165D01*
X100148635Y-127211027D01*
X100295027Y-127064635D01*
X100467165Y-126949616D01*
X100467167Y-126949615D01*
X100658436Y-126870389D01*
X100861484Y-126830000D01*
X101068516Y-126830000D01*
X101271564Y-126870389D01*
X101271564Y-126870389D01*
G37*
G36*
X103811564Y-126870389D02*
G01*
X104002833Y-126949615D01*
X104002835Y-126949616D01*
X104174973Y-127064635D01*
X104321365Y-127211027D01*
X104420348Y-127359165D01*
X104436385Y-127383167D01*
X104515611Y-127574436D01*
X104556000Y-127777484D01*
X104556000Y-127984516D01*
X104515611Y-128187564D01*
X104446326Y-128354833D01*
X104436384Y-128378835D01*
X104321365Y-128550973D01*
X104174973Y-128697365D01*
X104002835Y-128812384D01*
X104002834Y-128812385D01*
X104002833Y-128812385D01*
X103811564Y-128891611D01*
X103608516Y-128932000D01*
X103401484Y-128932000D01*
X103198436Y-128891611D01*
X103007167Y-128812385D01*
X103007166Y-128812385D01*
X103007165Y-128812384D01*
X102835027Y-128697365D01*
X102688635Y-128550973D01*
X102573616Y-128378835D01*
X102563674Y-128354833D01*
X102494389Y-128187564D01*
X102454000Y-127984516D01*
X102454000Y-127777484D01*
X102494389Y-127574436D01*
X102573615Y-127383167D01*
X102589653Y-127359165D01*
X102688635Y-127211027D01*
X102835027Y-127064635D01*
X103007165Y-126949616D01*
X103007167Y-126949615D01*
X103198436Y-126870389D01*
X103401484Y-126830000D01*
X103608516Y-126830000D01*
X103811564Y-126870389D01*
X103811564Y-126870389D01*
G37*
G36*
X121591564Y-126870389D02*
G01*
X121782833Y-126949615D01*
X121782835Y-126949616D01*
X121954973Y-127064635D01*
X122101365Y-127211027D01*
X122200348Y-127359165D01*
X122216385Y-127383167D01*
X122295611Y-127574436D01*
X122336000Y-127777484D01*
X122336000Y-127984516D01*
X122295611Y-128187564D01*
X122226326Y-128354833D01*
X122216384Y-128378835D01*
X122101365Y-128550973D01*
X121954973Y-128697365D01*
X121782835Y-128812384D01*
X121782834Y-128812385D01*
X121782833Y-128812385D01*
X121591564Y-128891611D01*
X121388516Y-128932000D01*
X121181484Y-128932000D01*
X120978436Y-128891611D01*
X120787167Y-128812385D01*
X120787166Y-128812385D01*
X120787165Y-128812384D01*
X120615027Y-128697365D01*
X120468635Y-128550973D01*
X120353616Y-128378835D01*
X120343674Y-128354833D01*
X120274389Y-128187564D01*
X120234000Y-127984516D01*
X120234000Y-127777484D01*
X120274389Y-127574436D01*
X120353615Y-127383167D01*
X120369653Y-127359165D01*
X120468635Y-127211027D01*
X120615027Y-127064635D01*
X120787165Y-126949616D01*
X120787167Y-126949615D01*
X120978436Y-126870389D01*
X121181484Y-126830000D01*
X121388516Y-126830000D01*
X121591564Y-126870389D01*
X121591564Y-126870389D01*
G37*
G36*
X129211564Y-126870389D02*
G01*
X129402833Y-126949615D01*
X129402835Y-126949616D01*
X129574973Y-127064635D01*
X129721365Y-127211027D01*
X129820348Y-127359165D01*
X129836385Y-127383167D01*
X129915611Y-127574436D01*
X129956000Y-127777484D01*
X129956000Y-127984516D01*
X129915611Y-128187564D01*
X129846326Y-128354833D01*
X129836384Y-128378835D01*
X129721365Y-128550973D01*
X129574973Y-128697365D01*
X129402835Y-128812384D01*
X129402834Y-128812385D01*
X129402833Y-128812385D01*
X129211564Y-128891611D01*
X129008516Y-128932000D01*
X128801484Y-128932000D01*
X128598436Y-128891611D01*
X128407167Y-128812385D01*
X128407166Y-128812385D01*
X128407165Y-128812384D01*
X128235027Y-128697365D01*
X128088635Y-128550973D01*
X127973616Y-128378835D01*
X127963674Y-128354833D01*
X127894389Y-128187564D01*
X127854000Y-127984516D01*
X127854000Y-127777484D01*
X127894389Y-127574436D01*
X127973615Y-127383167D01*
X127989653Y-127359165D01*
X128088635Y-127211027D01*
X128235027Y-127064635D01*
X128407165Y-126949616D01*
X128407167Y-126949615D01*
X128598436Y-126870389D01*
X128801484Y-126830000D01*
X129008516Y-126830000D01*
X129211564Y-126870389D01*
X129211564Y-126870389D01*
G37*
G36*
X134291564Y-126870389D02*
G01*
X134482833Y-126949615D01*
X134482835Y-126949616D01*
X134654973Y-127064635D01*
X134801365Y-127211027D01*
X134900348Y-127359165D01*
X134916385Y-127383167D01*
X134995611Y-127574436D01*
X135036000Y-127777484D01*
X135036000Y-127984516D01*
X134995611Y-128187564D01*
X134926326Y-128354833D01*
X134916384Y-128378835D01*
X134801365Y-128550973D01*
X134654973Y-128697365D01*
X134482835Y-128812384D01*
X134482834Y-128812385D01*
X134482833Y-128812385D01*
X134291564Y-128891611D01*
X134088516Y-128932000D01*
X133881484Y-128932000D01*
X133678436Y-128891611D01*
X133487167Y-128812385D01*
X133487166Y-128812385D01*
X133487165Y-128812384D01*
X133315027Y-128697365D01*
X133168635Y-128550973D01*
X133053616Y-128378835D01*
X133043674Y-128354833D01*
X132974389Y-128187564D01*
X132934000Y-127984516D01*
X132934000Y-127777484D01*
X132974389Y-127574436D01*
X133053615Y-127383167D01*
X133069653Y-127359165D01*
X133168635Y-127211027D01*
X133315027Y-127064635D01*
X133487165Y-126949616D01*
X133487167Y-126949615D01*
X133678436Y-126870389D01*
X133881484Y-126830000D01*
X134088516Y-126830000D01*
X134291564Y-126870389D01*
X134291564Y-126870389D01*
G37*
G36*
X113971564Y-126870389D02*
G01*
X114162833Y-126949615D01*
X114162835Y-126949616D01*
X114334973Y-127064635D01*
X114481365Y-127211027D01*
X114580348Y-127359165D01*
X114596385Y-127383167D01*
X114675611Y-127574436D01*
X114716000Y-127777484D01*
X114716000Y-127984516D01*
X114675611Y-128187564D01*
X114606326Y-128354833D01*
X114596384Y-128378835D01*
X114481365Y-128550973D01*
X114334973Y-128697365D01*
X114162835Y-128812384D01*
X114162834Y-128812385D01*
X114162833Y-128812385D01*
X113971564Y-128891611D01*
X113768516Y-128932000D01*
X113561484Y-128932000D01*
X113358436Y-128891611D01*
X113167167Y-128812385D01*
X113167166Y-128812385D01*
X113167165Y-128812384D01*
X112995027Y-128697365D01*
X112848635Y-128550973D01*
X112733616Y-128378835D01*
X112723674Y-128354833D01*
X112654389Y-128187564D01*
X112614000Y-127984516D01*
X112614000Y-127777484D01*
X112654389Y-127574436D01*
X112733615Y-127383167D01*
X112749653Y-127359165D01*
X112848635Y-127211027D01*
X112995027Y-127064635D01*
X113167165Y-126949616D01*
X113167167Y-126949615D01*
X113358436Y-126870389D01*
X113561484Y-126830000D01*
X113768516Y-126830000D01*
X113971564Y-126870389D01*
X113971564Y-126870389D01*
G37*
G36*
X131751564Y-126870389D02*
G01*
X131942833Y-126949615D01*
X131942835Y-126949616D01*
X132114973Y-127064635D01*
X132261365Y-127211027D01*
X132360348Y-127359165D01*
X132376385Y-127383167D01*
X132455611Y-127574436D01*
X132496000Y-127777484D01*
X132496000Y-127984516D01*
X132455611Y-128187564D01*
X132386326Y-128354833D01*
X132376384Y-128378835D01*
X132261365Y-128550973D01*
X132114973Y-128697365D01*
X131942835Y-128812384D01*
X131942834Y-128812385D01*
X131942833Y-128812385D01*
X131751564Y-128891611D01*
X131548516Y-128932000D01*
X131341484Y-128932000D01*
X131138436Y-128891611D01*
X130947167Y-128812385D01*
X130947166Y-128812385D01*
X130947165Y-128812384D01*
X130775027Y-128697365D01*
X130628635Y-128550973D01*
X130513616Y-128378835D01*
X130503674Y-128354833D01*
X130434389Y-128187564D01*
X130394000Y-127984516D01*
X130394000Y-127777484D01*
X130434389Y-127574436D01*
X130513615Y-127383167D01*
X130529653Y-127359165D01*
X130628635Y-127211027D01*
X130775027Y-127064635D01*
X130947165Y-126949616D01*
X130947167Y-126949615D01*
X131138436Y-126870389D01*
X131341484Y-126830000D01*
X131548516Y-126830000D01*
X131751564Y-126870389D01*
X131751564Y-126870389D01*
G37*
G36*
X119051564Y-126870389D02*
G01*
X119242833Y-126949615D01*
X119242835Y-126949616D01*
X119414973Y-127064635D01*
X119561365Y-127211027D01*
X119660348Y-127359165D01*
X119676385Y-127383167D01*
X119755611Y-127574436D01*
X119796000Y-127777484D01*
X119796000Y-127984516D01*
X119755611Y-128187564D01*
X119686326Y-128354833D01*
X119676384Y-128378835D01*
X119561365Y-128550973D01*
X119414973Y-128697365D01*
X119242835Y-128812384D01*
X119242834Y-128812385D01*
X119242833Y-128812385D01*
X119051564Y-128891611D01*
X118848516Y-128932000D01*
X118641484Y-128932000D01*
X118438436Y-128891611D01*
X118247167Y-128812385D01*
X118247166Y-128812385D01*
X118247165Y-128812384D01*
X118075027Y-128697365D01*
X117928635Y-128550973D01*
X117813616Y-128378835D01*
X117803674Y-128354833D01*
X117734389Y-128187564D01*
X117694000Y-127984516D01*
X117694000Y-127777484D01*
X117734389Y-127574436D01*
X117813615Y-127383167D01*
X117829653Y-127359165D01*
X117928635Y-127211027D01*
X118075027Y-127064635D01*
X118247165Y-126949616D01*
X118247167Y-126949615D01*
X118438436Y-126870389D01*
X118641484Y-126830000D01*
X118848516Y-126830000D01*
X119051564Y-126870389D01*
X119051564Y-126870389D01*
G37*
G36*
X116511564Y-126870389D02*
G01*
X116702833Y-126949615D01*
X116702835Y-126949616D01*
X116874973Y-127064635D01*
X117021365Y-127211027D01*
X117120348Y-127359165D01*
X117136385Y-127383167D01*
X117215611Y-127574436D01*
X117256000Y-127777484D01*
X117256000Y-127984516D01*
X117215611Y-128187564D01*
X117146326Y-128354833D01*
X117136384Y-128378835D01*
X117021365Y-128550973D01*
X116874973Y-128697365D01*
X116702835Y-128812384D01*
X116702834Y-128812385D01*
X116702833Y-128812385D01*
X116511564Y-128891611D01*
X116308516Y-128932000D01*
X116101484Y-128932000D01*
X115898436Y-128891611D01*
X115707167Y-128812385D01*
X115707166Y-128812385D01*
X115707165Y-128812384D01*
X115535027Y-128697365D01*
X115388635Y-128550973D01*
X115273616Y-128378835D01*
X115263674Y-128354833D01*
X115194389Y-128187564D01*
X115154000Y-127984516D01*
X115154000Y-127777484D01*
X115194389Y-127574436D01*
X115273615Y-127383167D01*
X115289653Y-127359165D01*
X115388635Y-127211027D01*
X115535027Y-127064635D01*
X115707165Y-126949616D01*
X115707167Y-126949615D01*
X115898436Y-126870389D01*
X116101484Y-126830000D01*
X116308516Y-126830000D01*
X116511564Y-126870389D01*
X116511564Y-126870389D01*
G37*
G36*
X126671564Y-126870389D02*
G01*
X126862833Y-126949615D01*
X126862835Y-126949616D01*
X127034973Y-127064635D01*
X127181365Y-127211027D01*
X127280348Y-127359165D01*
X127296385Y-127383167D01*
X127375611Y-127574436D01*
X127416000Y-127777484D01*
X127416000Y-127984516D01*
X127375611Y-128187564D01*
X127306326Y-128354833D01*
X127296384Y-128378835D01*
X127181365Y-128550973D01*
X127034973Y-128697365D01*
X126862835Y-128812384D01*
X126862834Y-128812385D01*
X126862833Y-128812385D01*
X126671564Y-128891611D01*
X126468516Y-128932000D01*
X126261484Y-128932000D01*
X126058436Y-128891611D01*
X125867167Y-128812385D01*
X125867166Y-128812385D01*
X125867165Y-128812384D01*
X125695027Y-128697365D01*
X125548635Y-128550973D01*
X125433616Y-128378835D01*
X125423674Y-128354833D01*
X125354389Y-128187564D01*
X125314000Y-127984516D01*
X125314000Y-127777484D01*
X125354389Y-127574436D01*
X125433615Y-127383167D01*
X125449653Y-127359165D01*
X125548635Y-127211027D01*
X125695027Y-127064635D01*
X125867165Y-126949616D01*
X125867167Y-126949615D01*
X126058436Y-126870389D01*
X126261484Y-126830000D01*
X126468516Y-126830000D01*
X126671564Y-126870389D01*
X126671564Y-126870389D01*
G37*
G36*
X136831564Y-126846389D02*
G01*
X137022833Y-126925615D01*
X137022835Y-126925616D01*
X137194973Y-127040635D01*
X137341365Y-127187027D01*
X137456385Y-127359167D01*
X137535611Y-127550436D01*
X137576000Y-127753484D01*
X137576000Y-127960516D01*
X137535611Y-128163564D01*
X137525669Y-128187565D01*
X137456384Y-128354835D01*
X137341365Y-128526973D01*
X137194973Y-128673365D01*
X137022835Y-128788384D01*
X137022834Y-128788385D01*
X137022833Y-128788385D01*
X136831564Y-128867611D01*
X136628516Y-128908000D01*
X136421484Y-128908000D01*
X136218436Y-128867611D01*
X136027167Y-128788385D01*
X136027166Y-128788385D01*
X136027165Y-128788384D01*
X135855027Y-128673365D01*
X135708635Y-128526973D01*
X135593616Y-128354835D01*
X135524331Y-128187565D01*
X135514389Y-128163564D01*
X135474000Y-127960516D01*
X135474000Y-127753484D01*
X135514389Y-127550436D01*
X135593615Y-127359167D01*
X135708635Y-127187027D01*
X135855027Y-127040635D01*
X136027165Y-126925616D01*
X136027167Y-126925615D01*
X136218436Y-126846389D01*
X136421484Y-126806000D01*
X136628516Y-126806000D01*
X136831564Y-126846389D01*
X136831564Y-126846389D01*
G37*
G36*
X124131564Y-126846389D02*
G01*
X124322833Y-126925615D01*
X124322835Y-126925616D01*
X124494973Y-127040635D01*
X124641365Y-127187027D01*
X124756385Y-127359167D01*
X124835611Y-127550436D01*
X124876000Y-127753484D01*
X124876000Y-127960516D01*
X124835611Y-128163564D01*
X124825669Y-128187565D01*
X124756384Y-128354835D01*
X124641365Y-128526973D01*
X124494973Y-128673365D01*
X124322835Y-128788384D01*
X124322834Y-128788385D01*
X124322833Y-128788385D01*
X124131564Y-128867611D01*
X123928516Y-128908000D01*
X123721484Y-128908000D01*
X123518436Y-128867611D01*
X123327167Y-128788385D01*
X123327166Y-128788385D01*
X123327165Y-128788384D01*
X123155027Y-128673365D01*
X123008635Y-128526973D01*
X122893616Y-128354835D01*
X122824331Y-128187565D01*
X122814389Y-128163564D01*
X122774000Y-127960516D01*
X122774000Y-127753484D01*
X122814389Y-127550436D01*
X122893615Y-127359167D01*
X123008635Y-127187027D01*
X123155027Y-127040635D01*
X123327165Y-126925616D01*
X123327167Y-126925615D01*
X123518436Y-126846389D01*
X123721484Y-126806000D01*
X123928516Y-126806000D01*
X124131564Y-126846389D01*
X124131564Y-126846389D01*
G37*
G36*
X139371564Y-126846389D02*
G01*
X139562833Y-126925615D01*
X139562835Y-126925616D01*
X139734973Y-127040635D01*
X139881365Y-127187027D01*
X139996385Y-127359167D01*
X140075611Y-127550436D01*
X140116000Y-127753484D01*
X140116000Y-127960516D01*
X140075611Y-128163564D01*
X140065669Y-128187565D01*
X139996384Y-128354835D01*
X139881365Y-128526973D01*
X139734973Y-128673365D01*
X139562835Y-128788384D01*
X139562834Y-128788385D01*
X139562833Y-128788385D01*
X139371564Y-128867611D01*
X139168516Y-128908000D01*
X138961484Y-128908000D01*
X138758436Y-128867611D01*
X138567167Y-128788385D01*
X138567166Y-128788385D01*
X138567165Y-128788384D01*
X138395027Y-128673365D01*
X138248635Y-128526973D01*
X138133616Y-128354835D01*
X138064331Y-128187565D01*
X138054389Y-128163564D01*
X138014000Y-127960516D01*
X138014000Y-127753484D01*
X138054389Y-127550436D01*
X138133615Y-127359167D01*
X138248635Y-127187027D01*
X138395027Y-127040635D01*
X138567165Y-126925616D01*
X138567167Y-126925615D01*
X138758436Y-126846389D01*
X138961484Y-126806000D01*
X139168516Y-126806000D01*
X139371564Y-126846389D01*
X139371564Y-126846389D01*
G37*
G36*
X141911564Y-126846389D02*
G01*
X142102833Y-126925615D01*
X142102835Y-126925616D01*
X142274973Y-127040635D01*
X142421365Y-127187027D01*
X142536385Y-127359167D01*
X142615611Y-127550436D01*
X142656000Y-127753484D01*
X142656000Y-127960516D01*
X142615611Y-128163564D01*
X142605669Y-128187565D01*
X142536384Y-128354835D01*
X142421365Y-128526973D01*
X142274973Y-128673365D01*
X142102835Y-128788384D01*
X142102834Y-128788385D01*
X142102833Y-128788385D01*
X141911564Y-128867611D01*
X141708516Y-128908000D01*
X141501484Y-128908000D01*
X141298436Y-128867611D01*
X141107167Y-128788385D01*
X141107166Y-128788385D01*
X141107165Y-128788384D01*
X140935027Y-128673365D01*
X140788635Y-128526973D01*
X140673616Y-128354835D01*
X140604331Y-128187565D01*
X140594389Y-128163564D01*
X140554000Y-127960516D01*
X140554000Y-127753484D01*
X140594389Y-127550436D01*
X140673615Y-127359167D01*
X140788635Y-127187027D01*
X140935027Y-127040635D01*
X141107165Y-126925616D01*
X141107167Y-126925615D01*
X141298436Y-126846389D01*
X141501484Y-126806000D01*
X141708516Y-126806000D01*
X141911564Y-126846389D01*
X141911564Y-126846389D01*
G37*
G36*
X100635531Y-118490707D02*
G01*
X100833645Y-118550805D01*
X100833648Y-118550806D01*
X100899530Y-118586021D01*
X101016229Y-118648397D01*
X101176265Y-118779735D01*
X101307603Y-118939771D01*
X101308201Y-118940890D01*
X101405194Y-119122351D01*
X101405194Y-119122352D01*
X101405195Y-119122354D01*
X101465293Y-119320468D01*
X101480500Y-119474870D01*
X101480500Y-120578130D01*
X101465293Y-120732532D01*
X101419683Y-120882885D01*
X101405194Y-120930649D01*
X101353439Y-121027475D01*
X101307603Y-121113229D01*
X101176265Y-121273265D01*
X101016229Y-121404603D01*
X100930475Y-121450439D01*
X100833649Y-121502194D01*
X100833646Y-121502195D01*
X100635532Y-121562293D01*
X100429500Y-121582585D01*
X100223469Y-121562293D01*
X100025355Y-121502195D01*
X100025352Y-121502194D01*
X99928526Y-121450439D01*
X99842772Y-121404603D01*
X99682736Y-121273265D01*
X99551398Y-121113229D01*
X99528684Y-121070735D01*
X99453805Y-120930647D01*
X99393707Y-120732530D01*
X99378500Y-120578131D01*
X99378500Y-119474870D01*
X99393707Y-119320471D01*
X99393707Y-119320469D01*
X99453805Y-119122355D01*
X99453806Y-119122352D01*
X99489021Y-119056470D01*
X99551397Y-118939771D01*
X99682735Y-118779735D01*
X99842771Y-118648397D01*
X99928525Y-118602561D01*
X100025351Y-118550806D01*
X100025354Y-118550805D01*
X100223468Y-118490707D01*
X100429500Y-118470415D01*
X100635531Y-118490707D01*
X100635531Y-118490707D01*
G37*
G36*
X105135531Y-118490707D02*
G01*
X105333645Y-118550805D01*
X105333648Y-118550806D01*
X105399530Y-118586021D01*
X105516229Y-118648397D01*
X105676265Y-118779735D01*
X105807603Y-118939771D01*
X105808201Y-118940890D01*
X105905194Y-119122351D01*
X105905194Y-119122352D01*
X105905195Y-119122354D01*
X105965293Y-119320468D01*
X105980500Y-119474870D01*
X105980500Y-120578130D01*
X105965293Y-120732532D01*
X105919683Y-120882885D01*
X105905194Y-120930649D01*
X105853439Y-121027475D01*
X105807603Y-121113229D01*
X105676265Y-121273265D01*
X105516229Y-121404603D01*
X105430475Y-121450439D01*
X105333649Y-121502194D01*
X105333646Y-121502195D01*
X105135532Y-121562293D01*
X104929500Y-121582585D01*
X104723469Y-121562293D01*
X104525355Y-121502195D01*
X104525352Y-121502194D01*
X104428526Y-121450439D01*
X104342772Y-121404603D01*
X104182736Y-121273265D01*
X104051398Y-121113229D01*
X104028684Y-121070735D01*
X103953805Y-120930647D01*
X103893707Y-120732530D01*
X103878500Y-120578131D01*
X103878500Y-119474870D01*
X103893707Y-119320471D01*
X103893707Y-119320469D01*
X103953805Y-119122355D01*
X103953806Y-119122352D01*
X103989021Y-119056470D01*
X104051397Y-118939771D01*
X104182735Y-118779735D01*
X104342771Y-118648397D01*
X104428525Y-118602561D01*
X104525351Y-118550806D01*
X104525354Y-118550805D01*
X104723468Y-118490707D01*
X104929500Y-118470415D01*
X105135531Y-118490707D01*
X105135531Y-118490707D01*
G37*
G36*
X95429564Y-118940889D02*
G01*
X95620833Y-119020115D01*
X95620835Y-119020116D01*
X95792973Y-119135135D01*
X95939365Y-119281527D01*
X95965387Y-119320471D01*
X96054385Y-119453667D01*
X96133611Y-119644936D01*
X96174000Y-119847984D01*
X96174000Y-120055016D01*
X96133611Y-120258064D01*
X96105169Y-120326729D01*
X96054384Y-120449335D01*
X95939365Y-120621473D01*
X95792973Y-120767865D01*
X95620835Y-120882884D01*
X95620834Y-120882885D01*
X95620833Y-120882885D01*
X95429564Y-120962111D01*
X95226516Y-121002500D01*
X95019484Y-121002500D01*
X94816436Y-120962111D01*
X94625167Y-120882885D01*
X94625166Y-120882885D01*
X94625165Y-120882884D01*
X94453027Y-120767865D01*
X94306635Y-120621473D01*
X94191616Y-120449335D01*
X94140831Y-120326729D01*
X94112389Y-120258064D01*
X94072000Y-120055016D01*
X94072000Y-119847984D01*
X94112389Y-119644936D01*
X94191615Y-119453667D01*
X94280614Y-119320471D01*
X94306635Y-119281527D01*
X94453027Y-119135135D01*
X94625165Y-119020116D01*
X94625167Y-119020115D01*
X94816436Y-118940889D01*
X95019484Y-118900500D01*
X95226516Y-118900500D01*
X95429564Y-118940889D01*
X95429564Y-118940889D01*
G37*
G36*
X92889564Y-118940889D02*
G01*
X93080833Y-119020115D01*
X93080835Y-119020116D01*
X93252973Y-119135135D01*
X93399365Y-119281527D01*
X93425387Y-119320471D01*
X93514385Y-119453667D01*
X93593611Y-119644936D01*
X93634000Y-119847984D01*
X93634000Y-120055016D01*
X93593611Y-120258064D01*
X93565169Y-120326729D01*
X93514384Y-120449335D01*
X93399365Y-120621473D01*
X93252973Y-120767865D01*
X93080835Y-120882884D01*
X93080834Y-120882885D01*
X93080833Y-120882885D01*
X92889564Y-120962111D01*
X92686516Y-121002500D01*
X92479484Y-121002500D01*
X92276436Y-120962111D01*
X92085167Y-120882885D01*
X92085166Y-120882885D01*
X92085165Y-120882884D01*
X91913027Y-120767865D01*
X91766635Y-120621473D01*
X91651616Y-120449335D01*
X91600831Y-120326729D01*
X91572389Y-120258064D01*
X91532000Y-120055016D01*
X91532000Y-119847984D01*
X91572389Y-119644936D01*
X91651615Y-119453667D01*
X91740614Y-119320471D01*
X91766635Y-119281527D01*
X91913027Y-119135135D01*
X92085165Y-119020116D01*
X92085167Y-119020115D01*
X92276436Y-118940889D01*
X92479484Y-118900500D01*
X92686516Y-118900500D01*
X92889564Y-118940889D01*
X92889564Y-118940889D01*
G37*
G36*
X148223097Y-118694069D02*
G01*
X148326032Y-118704207D01*
X148524146Y-118764305D01*
X148524149Y-118764306D01*
X148553014Y-118779735D01*
X148706729Y-118861897D01*
X148866765Y-118993235D01*
X148998103Y-119153271D01*
X149043939Y-119239025D01*
X149095694Y-119335851D01*
X149095695Y-119335854D01*
X149155793Y-119533968D01*
X149176085Y-119740000D01*
X149155793Y-119946032D01*
X149095695Y-120144146D01*
X149095694Y-120144149D01*
X149043939Y-120240975D01*
X148998103Y-120326729D01*
X148866765Y-120486765D01*
X148706729Y-120618103D01*
X148620975Y-120663939D01*
X148524149Y-120715694D01*
X148524146Y-120715695D01*
X148326032Y-120775793D01*
X148223097Y-120785931D01*
X148171631Y-120791000D01*
X148068369Y-120791000D01*
X148016903Y-120785931D01*
X147913968Y-120775793D01*
X147715854Y-120715695D01*
X147715851Y-120715694D01*
X147619025Y-120663939D01*
X147533271Y-120618103D01*
X147373235Y-120486765D01*
X147241897Y-120326729D01*
X147196061Y-120240975D01*
X147144306Y-120144149D01*
X147144305Y-120144146D01*
X147084207Y-119946032D01*
X147063915Y-119740000D01*
X147084207Y-119533968D01*
X147144305Y-119335854D01*
X147144306Y-119335851D01*
X147196061Y-119239025D01*
X147241897Y-119153271D01*
X147373235Y-118993235D01*
X147533271Y-118861897D01*
X147686986Y-118779735D01*
X147715851Y-118764306D01*
X147715854Y-118764305D01*
X147913968Y-118704207D01*
X148016903Y-118694069D01*
X148068369Y-118689000D01*
X148171631Y-118689000D01*
X148223097Y-118694069D01*
X148223097Y-118694069D01*
G37*
G36*
X140603097Y-118694069D02*
G01*
X140706032Y-118704207D01*
X140904146Y-118764305D01*
X140904149Y-118764306D01*
X140933014Y-118779735D01*
X141086729Y-118861897D01*
X141246765Y-118993235D01*
X141378103Y-119153271D01*
X141423939Y-119239025D01*
X141475694Y-119335851D01*
X141475695Y-119335854D01*
X141535793Y-119533968D01*
X141556085Y-119740000D01*
X141535793Y-119946032D01*
X141475695Y-120144146D01*
X141475694Y-120144149D01*
X141423939Y-120240975D01*
X141378103Y-120326729D01*
X141246765Y-120486765D01*
X141086729Y-120618103D01*
X141000975Y-120663939D01*
X140904149Y-120715694D01*
X140904146Y-120715695D01*
X140706032Y-120775793D01*
X140603097Y-120785931D01*
X140551631Y-120791000D01*
X140448369Y-120791000D01*
X140396903Y-120785931D01*
X140293968Y-120775793D01*
X140095854Y-120715695D01*
X140095851Y-120715694D01*
X139999025Y-120663939D01*
X139913271Y-120618103D01*
X139753235Y-120486765D01*
X139621897Y-120326729D01*
X139576061Y-120240975D01*
X139524306Y-120144149D01*
X139524305Y-120144146D01*
X139464207Y-119946032D01*
X139443915Y-119740000D01*
X139464207Y-119533968D01*
X139524305Y-119335854D01*
X139524306Y-119335851D01*
X139576061Y-119239025D01*
X139621897Y-119153271D01*
X139753235Y-118993235D01*
X139913271Y-118861897D01*
X140066986Y-118779735D01*
X140095851Y-118764306D01*
X140095854Y-118764305D01*
X140293968Y-118704207D01*
X140396903Y-118694069D01*
X140448369Y-118689000D01*
X140551631Y-118689000D01*
X140603097Y-118694069D01*
X140603097Y-118694069D01*
G37*
G36*
X95429564Y-116400889D02*
G01*
X95620833Y-116480115D01*
X95620835Y-116480116D01*
X95792973Y-116595135D01*
X95939365Y-116741527D01*
X96054385Y-116913667D01*
X96133611Y-117104936D01*
X96174000Y-117307984D01*
X96174000Y-117515016D01*
X96133611Y-117718064D01*
X96105169Y-117786729D01*
X96054384Y-117909335D01*
X95939365Y-118081473D01*
X95792973Y-118227865D01*
X95620835Y-118342884D01*
X95620834Y-118342885D01*
X95620833Y-118342885D01*
X95429564Y-118422111D01*
X95226516Y-118462500D01*
X95019484Y-118462500D01*
X94816436Y-118422111D01*
X94625167Y-118342885D01*
X94625166Y-118342885D01*
X94625165Y-118342884D01*
X94453027Y-118227865D01*
X94306635Y-118081473D01*
X94191616Y-117909335D01*
X94140831Y-117786729D01*
X94112389Y-117718064D01*
X94072000Y-117515016D01*
X94072000Y-117307984D01*
X94112389Y-117104936D01*
X94191615Y-116913667D01*
X94306635Y-116741527D01*
X94453027Y-116595135D01*
X94625165Y-116480116D01*
X94625167Y-116480115D01*
X94816436Y-116400889D01*
X95019484Y-116360500D01*
X95226516Y-116360500D01*
X95429564Y-116400889D01*
X95429564Y-116400889D01*
G37*
G36*
X92889564Y-116400889D02*
G01*
X93080833Y-116480115D01*
X93080835Y-116480116D01*
X93252973Y-116595135D01*
X93399365Y-116741527D01*
X93514385Y-116913667D01*
X93593611Y-117104936D01*
X93634000Y-117307984D01*
X93634000Y-117515016D01*
X93593611Y-117718064D01*
X93565169Y-117786729D01*
X93514384Y-117909335D01*
X93399365Y-118081473D01*
X93252973Y-118227865D01*
X93080835Y-118342884D01*
X93080834Y-118342885D01*
X93080833Y-118342885D01*
X92889564Y-118422111D01*
X92686516Y-118462500D01*
X92479484Y-118462500D01*
X92276436Y-118422111D01*
X92085167Y-118342885D01*
X92085166Y-118342885D01*
X92085165Y-118342884D01*
X91913027Y-118227865D01*
X91766635Y-118081473D01*
X91651616Y-117909335D01*
X91600831Y-117786729D01*
X91572389Y-117718064D01*
X91532000Y-117515016D01*
X91532000Y-117307984D01*
X91572389Y-117104936D01*
X91651615Y-116913667D01*
X91766635Y-116741527D01*
X91913027Y-116595135D01*
X92085165Y-116480116D01*
X92085167Y-116480115D01*
X92276436Y-116400889D01*
X92479484Y-116360500D01*
X92686516Y-116360500D01*
X92889564Y-116400889D01*
X92889564Y-116400889D01*
G37*
G36*
X141551000Y-118251000D02*
G01*
X139449000Y-118251000D01*
X139449000Y-116149000D01*
X141551000Y-116149000D01*
X141551000Y-118251000D01*
X141551000Y-118251000D01*
G37*
G36*
X148223097Y-116154069D02*
G01*
X148326032Y-116164207D01*
X148524146Y-116224305D01*
X148524149Y-116224306D01*
X148620975Y-116276061D01*
X148706729Y-116321897D01*
X148866765Y-116453235D01*
X148998103Y-116613271D01*
X149043939Y-116699025D01*
X149095694Y-116795851D01*
X149095695Y-116795854D01*
X149155793Y-116993968D01*
X149176085Y-117200000D01*
X149155793Y-117406032D01*
X149095695Y-117604146D01*
X149095694Y-117604149D01*
X149043939Y-117700975D01*
X148998103Y-117786729D01*
X148866765Y-117946765D01*
X148706729Y-118078103D01*
X148620975Y-118123939D01*
X148524149Y-118175694D01*
X148524146Y-118175695D01*
X148326032Y-118235793D01*
X148223097Y-118245931D01*
X148171631Y-118251000D01*
X148068369Y-118251000D01*
X148016903Y-118245931D01*
X147913968Y-118235793D01*
X147715854Y-118175695D01*
X147715851Y-118175694D01*
X147619025Y-118123939D01*
X147533271Y-118078103D01*
X147373235Y-117946765D01*
X147241897Y-117786729D01*
X147196061Y-117700975D01*
X147144306Y-117604149D01*
X147144305Y-117604146D01*
X147084207Y-117406032D01*
X147063915Y-117200000D01*
X147084207Y-116993968D01*
X147144305Y-116795854D01*
X147144306Y-116795851D01*
X147196061Y-116699025D01*
X147241897Y-116613271D01*
X147373235Y-116453235D01*
X147533271Y-116321897D01*
X147619025Y-116276061D01*
X147715851Y-116224306D01*
X147715854Y-116224305D01*
X147913968Y-116164207D01*
X148016903Y-116154069D01*
X148068369Y-116149000D01*
X148171631Y-116149000D01*
X148223097Y-116154069D01*
X148223097Y-116154069D01*
G37*
G36*
X95429564Y-113860889D02*
G01*
X95620833Y-113940115D01*
X95620835Y-113940116D01*
X95792973Y-114055135D01*
X95939365Y-114201527D01*
X95960081Y-114232530D01*
X96054385Y-114373667D01*
X96133611Y-114564936D01*
X96174000Y-114767984D01*
X96174000Y-114975016D01*
X96133611Y-115178064D01*
X96054385Y-115369333D01*
X96054384Y-115369335D01*
X95939365Y-115541473D01*
X95792973Y-115687865D01*
X95620835Y-115802884D01*
X95620834Y-115802885D01*
X95620833Y-115802885D01*
X95429564Y-115882111D01*
X95226516Y-115922500D01*
X95019484Y-115922500D01*
X94816436Y-115882111D01*
X94625167Y-115802885D01*
X94625166Y-115802885D01*
X94625165Y-115802884D01*
X94453027Y-115687865D01*
X94306635Y-115541473D01*
X94191616Y-115369335D01*
X94191615Y-115369333D01*
X94112389Y-115178064D01*
X94072000Y-114975016D01*
X94072000Y-114767984D01*
X94112389Y-114564936D01*
X94191615Y-114373667D01*
X94285920Y-114232530D01*
X94306635Y-114201527D01*
X94453027Y-114055135D01*
X94625165Y-113940116D01*
X94625167Y-113940115D01*
X94816436Y-113860889D01*
X95019484Y-113820500D01*
X95226516Y-113820500D01*
X95429564Y-113860889D01*
X95429564Y-113860889D01*
G37*
G36*
X93634000Y-115922500D02*
G01*
X91532000Y-115922500D01*
X91532000Y-113820500D01*
X93634000Y-113820500D01*
X93634000Y-115922500D01*
X93634000Y-115922500D01*
G37*
G36*
X100635531Y-111990707D02*
G01*
X100833645Y-112050805D01*
X100833648Y-112050806D01*
X100899530Y-112086021D01*
X101016229Y-112148397D01*
X101176265Y-112279735D01*
X101307603Y-112439771D01*
X101307604Y-112439773D01*
X101405194Y-112622351D01*
X101405194Y-112622352D01*
X101405195Y-112622354D01*
X101465293Y-112820468D01*
X101480500Y-112974870D01*
X101480500Y-114078130D01*
X101465293Y-114232532D01*
X101405195Y-114430646D01*
X101405194Y-114430649D01*
X101353439Y-114527475D01*
X101307603Y-114613229D01*
X101176265Y-114773265D01*
X101016229Y-114904603D01*
X100930475Y-114950439D01*
X100833649Y-115002194D01*
X100833646Y-115002195D01*
X100635532Y-115062293D01*
X100429500Y-115082585D01*
X100223469Y-115062293D01*
X100025355Y-115002195D01*
X100025352Y-115002194D01*
X99928526Y-114950439D01*
X99842772Y-114904603D01*
X99682736Y-114773265D01*
X99551398Y-114613229D01*
X99525584Y-114564935D01*
X99453805Y-114430647D01*
X99393707Y-114232530D01*
X99378500Y-114078131D01*
X99378500Y-112974870D01*
X99393707Y-112820471D01*
X99393707Y-112820469D01*
X99453805Y-112622355D01*
X99453806Y-112622352D01*
X99489021Y-112556470D01*
X99551397Y-112439771D01*
X99682735Y-112279735D01*
X99842771Y-112148397D01*
X99928525Y-112102561D01*
X100025351Y-112050806D01*
X100025354Y-112050805D01*
X100223468Y-111990707D01*
X100429500Y-111970415D01*
X100635531Y-111990707D01*
X100635531Y-111990707D01*
G37*
G36*
X105135531Y-111990707D02*
G01*
X105333645Y-112050805D01*
X105333648Y-112050806D01*
X105399530Y-112086021D01*
X105516229Y-112148397D01*
X105676265Y-112279735D01*
X105807603Y-112439771D01*
X105807604Y-112439773D01*
X105905194Y-112622351D01*
X105905194Y-112622352D01*
X105905195Y-112622354D01*
X105965293Y-112820468D01*
X105980500Y-112974870D01*
X105980500Y-114078130D01*
X105965293Y-114232532D01*
X105905195Y-114430646D01*
X105905194Y-114430649D01*
X105853439Y-114527475D01*
X105807603Y-114613229D01*
X105676265Y-114773265D01*
X105516229Y-114904603D01*
X105430475Y-114950439D01*
X105333649Y-115002194D01*
X105333646Y-115002195D01*
X105135532Y-115062293D01*
X104929500Y-115082585D01*
X104723469Y-115062293D01*
X104525355Y-115002195D01*
X104525352Y-115002194D01*
X104428526Y-114950439D01*
X104342772Y-114904603D01*
X104182736Y-114773265D01*
X104051398Y-114613229D01*
X104025584Y-114564935D01*
X103953805Y-114430647D01*
X103893707Y-114232530D01*
X103878500Y-114078131D01*
X103878500Y-112974870D01*
X103893707Y-112820471D01*
X103893707Y-112820469D01*
X103953805Y-112622355D01*
X103953806Y-112622352D01*
X103989021Y-112556470D01*
X104051397Y-112439771D01*
X104182735Y-112279735D01*
X104342771Y-112148397D01*
X104428525Y-112102561D01*
X104525351Y-112050806D01*
X104525354Y-112050805D01*
X104723468Y-111990707D01*
X104929500Y-111970415D01*
X105135531Y-111990707D01*
X105135531Y-111990707D01*
G37*
G36*
X147807064Y-107193389D02*
G01*
X147998333Y-107272615D01*
X147998335Y-107272616D01*
X148170473Y-107387635D01*
X148316865Y-107534027D01*
X148431885Y-107706167D01*
X148511111Y-107897436D01*
X148551500Y-108100484D01*
X148551500Y-108307516D01*
X148511111Y-108510564D01*
X148431885Y-108701833D01*
X148431884Y-108701835D01*
X148316865Y-108873973D01*
X148170473Y-109020365D01*
X147998335Y-109135384D01*
X147998334Y-109135385D01*
X147998333Y-109135385D01*
X147807064Y-109214611D01*
X147604016Y-109255000D01*
X147396984Y-109255000D01*
X147193936Y-109214611D01*
X147002667Y-109135385D01*
X147002666Y-109135385D01*
X147002665Y-109135384D01*
X146830527Y-109020365D01*
X146684135Y-108873973D01*
X146569116Y-108701835D01*
X146569115Y-108701833D01*
X146489889Y-108510564D01*
X146449500Y-108307516D01*
X146449500Y-108100484D01*
X146489889Y-107897436D01*
X146569115Y-107706167D01*
X146684135Y-107534027D01*
X146830527Y-107387635D01*
X147002665Y-107272616D01*
X147002667Y-107272615D01*
X147193936Y-107193389D01*
X147396984Y-107153000D01*
X147604016Y-107153000D01*
X147807064Y-107193389D01*
X147807064Y-107193389D01*
G37*
G36*
X140207064Y-107193389D02*
G01*
X140398333Y-107272615D01*
X140398335Y-107272616D01*
X140570473Y-107387635D01*
X140716865Y-107534027D01*
X140831885Y-107706167D01*
X140911111Y-107897436D01*
X140951500Y-108100484D01*
X140951500Y-108307516D01*
X140911111Y-108510564D01*
X140831885Y-108701833D01*
X140831884Y-108701835D01*
X140716865Y-108873973D01*
X140570473Y-109020365D01*
X140398335Y-109135384D01*
X140398334Y-109135385D01*
X140398333Y-109135385D01*
X140207064Y-109214611D01*
X140004016Y-109255000D01*
X139796984Y-109255000D01*
X139593936Y-109214611D01*
X139402667Y-109135385D01*
X139402666Y-109135385D01*
X139402665Y-109135384D01*
X139230527Y-109020365D01*
X139084135Y-108873973D01*
X138969116Y-108701835D01*
X138969115Y-108701833D01*
X138889889Y-108510564D01*
X138849500Y-108307516D01*
X138849500Y-108100484D01*
X138889889Y-107897436D01*
X138969115Y-107706167D01*
X139084135Y-107534027D01*
X139230527Y-107387635D01*
X139402665Y-107272616D01*
X139402667Y-107272615D01*
X139593936Y-107193389D01*
X139796984Y-107153000D01*
X140004016Y-107153000D01*
X140207064Y-107193389D01*
X140207064Y-107193389D01*
G37*
G36*
X116546822Y-100861313D02*
G01*
X116707241Y-100909976D01*
X116855077Y-100988995D01*
X116984659Y-101095341D01*
X117091004Y-101224922D01*
X117091005Y-101224924D01*
X117170024Y-101372758D01*
X117218687Y-101533177D01*
X117231000Y-101658196D01*
X117231000Y-102141803D01*
X117218687Y-102266822D01*
X117170024Y-102427242D01*
X117099114Y-102559906D01*
X117091004Y-102575078D01*
X116984659Y-102704659D01*
X116855078Y-102811004D01*
X116855076Y-102811005D01*
X116707242Y-102890024D01*
X116546823Y-102938687D01*
X116380000Y-102955117D01*
X116213178Y-102938687D01*
X116052759Y-102890024D01*
X115904925Y-102811005D01*
X115904923Y-102811004D01*
X115775342Y-102704659D01*
X115668996Y-102575078D01*
X115660886Y-102559906D01*
X115589976Y-102427242D01*
X115541313Y-102266823D01*
X115529000Y-102141804D01*
X115529000Y-101658197D01*
X115541313Y-101533178D01*
X115589976Y-101372759D01*
X115668995Y-101224923D01*
X115775341Y-101095341D01*
X115904922Y-100988996D01*
X115920094Y-100980886D01*
X116052758Y-100909976D01*
X116213177Y-100861313D01*
X116380000Y-100844883D01*
X116546822Y-100861313D01*
X116546822Y-100861313D01*
G37*
G36*
X119086822Y-100861313D02*
G01*
X119247241Y-100909976D01*
X119395077Y-100988995D01*
X119524659Y-101095341D01*
X119631004Y-101224922D01*
X119631005Y-101224924D01*
X119710024Y-101372758D01*
X119758687Y-101533177D01*
X119771000Y-101658196D01*
X119771000Y-102141803D01*
X119758687Y-102266822D01*
X119710024Y-102427242D01*
X119639114Y-102559906D01*
X119631004Y-102575078D01*
X119524659Y-102704659D01*
X119395078Y-102811004D01*
X119395076Y-102811005D01*
X119247242Y-102890024D01*
X119086823Y-102938687D01*
X118920000Y-102955117D01*
X118753178Y-102938687D01*
X118592759Y-102890024D01*
X118444925Y-102811005D01*
X118444923Y-102811004D01*
X118315342Y-102704659D01*
X118208996Y-102575078D01*
X118200886Y-102559906D01*
X118129976Y-102427242D01*
X118081313Y-102266823D01*
X118069000Y-102141804D01*
X118069000Y-101658197D01*
X118081313Y-101533178D01*
X118129976Y-101372759D01*
X118208995Y-101224923D01*
X118315341Y-101095341D01*
X118444922Y-100988996D01*
X118460094Y-100980886D01*
X118592758Y-100909976D01*
X118753177Y-100861313D01*
X118920000Y-100844883D01*
X119086822Y-100861313D01*
X119086822Y-100861313D01*
G37*
G36*
X121626822Y-100861313D02*
G01*
X121787241Y-100909976D01*
X121935077Y-100988995D01*
X122064659Y-101095341D01*
X122171004Y-101224922D01*
X122171005Y-101224924D01*
X122250024Y-101372758D01*
X122298687Y-101533177D01*
X122311000Y-101658196D01*
X122311000Y-102141803D01*
X122298687Y-102266822D01*
X122250024Y-102427242D01*
X122179114Y-102559906D01*
X122171004Y-102575078D01*
X122064659Y-102704659D01*
X121935078Y-102811004D01*
X121935076Y-102811005D01*
X121787242Y-102890024D01*
X121626823Y-102938687D01*
X121460000Y-102955117D01*
X121293178Y-102938687D01*
X121132759Y-102890024D01*
X120984925Y-102811005D01*
X120984923Y-102811004D01*
X120855342Y-102704659D01*
X120748996Y-102575078D01*
X120740886Y-102559906D01*
X120669976Y-102427242D01*
X120621313Y-102266823D01*
X120609000Y-102141804D01*
X120609000Y-101658197D01*
X120621313Y-101533178D01*
X120669976Y-101372759D01*
X120748995Y-101224923D01*
X120855341Y-101095341D01*
X120984922Y-100988996D01*
X121000094Y-100980886D01*
X121132758Y-100909976D01*
X121293177Y-100861313D01*
X121460000Y-100844883D01*
X121626822Y-100861313D01*
X121626822Y-100861313D01*
G37*
G36*
X124166822Y-100861313D02*
G01*
X124327241Y-100909976D01*
X124475077Y-100988995D01*
X124604659Y-101095341D01*
X124711004Y-101224922D01*
X124711005Y-101224924D01*
X124790024Y-101372758D01*
X124838687Y-101533177D01*
X124851000Y-101658196D01*
X124851000Y-102141803D01*
X124838687Y-102266822D01*
X124790024Y-102427242D01*
X124719114Y-102559906D01*
X124711004Y-102575078D01*
X124604659Y-102704659D01*
X124475078Y-102811004D01*
X124475076Y-102811005D01*
X124327242Y-102890024D01*
X124166823Y-102938687D01*
X124000000Y-102955117D01*
X123833178Y-102938687D01*
X123672759Y-102890024D01*
X123524925Y-102811005D01*
X123524923Y-102811004D01*
X123395342Y-102704659D01*
X123288996Y-102575078D01*
X123280886Y-102559906D01*
X123209976Y-102427242D01*
X123161313Y-102266823D01*
X123149000Y-102141804D01*
X123149000Y-101658197D01*
X123161313Y-101533178D01*
X123209976Y-101372759D01*
X123288995Y-101224923D01*
X123395341Y-101095341D01*
X123524922Y-100988996D01*
X123540094Y-100980886D01*
X123672758Y-100909976D01*
X123833177Y-100861313D01*
X124000000Y-100844883D01*
X124166822Y-100861313D01*
X124166822Y-100861313D01*
G37*
G36*
X131051626Y-96762037D02*
G01*
X131221465Y-96813557D01*
X131221467Y-96813558D01*
X131377989Y-96897221D01*
X131515186Y-97009814D01*
X131594556Y-97106528D01*
X131627778Y-97147009D01*
X131627779Y-97147011D01*
X131699441Y-97281079D01*
X131711443Y-97303534D01*
X131762963Y-97473373D01*
X131776000Y-97605742D01*
X131776000Y-97994257D01*
X131762963Y-98126626D01*
X131711443Y-98296466D01*
X131627778Y-98452991D01*
X131598448Y-98488729D01*
X131515186Y-98590186D01*
X131420250Y-98668097D01*
X131377991Y-98702778D01*
X131221466Y-98786443D01*
X131051627Y-98837963D01*
X130875000Y-98855359D01*
X130698374Y-98837963D01*
X130528535Y-98786443D01*
X130372010Y-98702778D01*
X130234815Y-98590185D01*
X130122222Y-98452991D01*
X130055363Y-98327908D01*
X130038558Y-98296468D01*
X130036092Y-98288339D01*
X129987037Y-98126627D01*
X129974000Y-97994258D01*
X129974000Y-97605743D01*
X129987037Y-97473374D01*
X130038557Y-97303535D01*
X130122222Y-97147010D01*
X130122223Y-97147009D01*
X130234814Y-97009814D01*
X130336271Y-96926552D01*
X130372009Y-96897222D01*
X130528534Y-96813557D01*
X130698373Y-96762037D01*
X130875000Y-96744641D01*
X131051626Y-96762037D01*
X131051626Y-96762037D01*
G37*
G36*
X129133600Y-96752989D02*
G01*
X129166652Y-96763015D01*
X129197103Y-96779292D01*
X129223799Y-96801201D01*
X129245708Y-96827897D01*
X129261985Y-96858348D01*
X129272011Y-96891400D01*
X129276000Y-96931903D01*
X129276000Y-98668097D01*
X129272011Y-98708600D01*
X129261985Y-98741652D01*
X129245708Y-98772103D01*
X129223799Y-98798799D01*
X129197103Y-98820708D01*
X129166652Y-98836985D01*
X129133600Y-98847011D01*
X129093097Y-98851000D01*
X127656903Y-98851000D01*
X127616400Y-98847011D01*
X127583348Y-98836985D01*
X127552897Y-98820708D01*
X127526201Y-98798799D01*
X127504292Y-98772103D01*
X127488015Y-98741652D01*
X127477989Y-98708600D01*
X127474000Y-98668097D01*
X127474000Y-96931903D01*
X127477989Y-96891400D01*
X127488015Y-96858348D01*
X127504292Y-96827897D01*
X127526201Y-96801201D01*
X127552897Y-96779292D01*
X127583348Y-96763015D01*
X127616400Y-96752989D01*
X127656903Y-96749000D01*
X129093097Y-96749000D01*
X129133600Y-96752989D01*
X129133600Y-96752989D01*
G37*
G36*
X103451126Y-96244037D02*
G01*
X103620965Y-96295557D01*
X103620967Y-96295558D01*
X103777489Y-96379221D01*
X103914686Y-96491814D01*
X103980499Y-96572009D01*
X104027278Y-96629009D01*
X104027279Y-96629011D01*
X104098384Y-96762037D01*
X104110943Y-96785534D01*
X104162463Y-96955373D01*
X104175500Y-97087742D01*
X104175500Y-97476257D01*
X104162463Y-97608626D01*
X104110943Y-97778466D01*
X104027278Y-97934991D01*
X103997948Y-97970729D01*
X103914686Y-98072186D01*
X103819750Y-98150097D01*
X103777491Y-98184778D01*
X103620966Y-98268443D01*
X103451127Y-98319963D01*
X103274500Y-98337359D01*
X103097874Y-98319963D01*
X102928035Y-98268443D01*
X102771510Y-98184778D01*
X102634315Y-98072185D01*
X102521722Y-97934991D01*
X102469666Y-97837601D01*
X102438058Y-97778468D01*
X102420767Y-97721467D01*
X102386537Y-97608627D01*
X102373500Y-97476258D01*
X102373500Y-97087743D01*
X102386537Y-96955374D01*
X102438057Y-96785535D01*
X102455453Y-96752989D01*
X102521721Y-96629011D01*
X102634314Y-96491814D01*
X102735771Y-96408552D01*
X102771509Y-96379222D01*
X102928034Y-96295557D01*
X103097873Y-96244037D01*
X103274500Y-96226641D01*
X103451126Y-96244037D01*
X103451126Y-96244037D01*
G37*
G36*
X101533100Y-96234989D02*
G01*
X101566152Y-96245015D01*
X101596603Y-96261292D01*
X101623299Y-96283201D01*
X101645208Y-96309897D01*
X101661485Y-96340348D01*
X101671511Y-96373400D01*
X101675500Y-96413903D01*
X101675500Y-98150097D01*
X101671511Y-98190600D01*
X101661485Y-98223652D01*
X101645208Y-98254103D01*
X101623299Y-98280799D01*
X101596603Y-98302708D01*
X101566152Y-98318985D01*
X101533100Y-98329011D01*
X101492597Y-98333000D01*
X100056403Y-98333000D01*
X100015900Y-98329011D01*
X99982848Y-98318985D01*
X99952397Y-98302708D01*
X99925701Y-98280799D01*
X99903792Y-98254103D01*
X99887515Y-98223652D01*
X99877489Y-98190600D01*
X99873500Y-98150097D01*
X99873500Y-96413903D01*
X99877489Y-96373400D01*
X99887515Y-96340348D01*
X99903792Y-96309897D01*
X99925701Y-96283201D01*
X99952397Y-96261292D01*
X99982848Y-96245015D01*
X100015900Y-96234989D01*
X100056403Y-96231000D01*
X101492597Y-96231000D01*
X101533100Y-96234989D01*
X101533100Y-96234989D01*
G37*
G36*
X139601626Y-96187037D02*
G01*
X139771465Y-96238557D01*
X139771467Y-96238558D01*
X139927989Y-96322221D01*
X140065186Y-96434814D01*
X140115399Y-96496000D01*
X140177778Y-96572009D01*
X140261443Y-96728534D01*
X140312963Y-96898373D01*
X140326000Y-97030742D01*
X140326000Y-97419257D01*
X140312963Y-97551626D01*
X140261443Y-97721466D01*
X140177778Y-97877991D01*
X140148448Y-97913729D01*
X140065186Y-98015186D01*
X139995731Y-98072185D01*
X139927991Y-98127778D01*
X139771466Y-98211443D01*
X139601627Y-98262963D01*
X139425000Y-98280359D01*
X139248374Y-98262963D01*
X139078535Y-98211443D01*
X138922010Y-98127778D01*
X138784815Y-98015185D01*
X138672222Y-97877991D01*
X138588557Y-97721466D01*
X138537037Y-97551627D01*
X138526235Y-97441947D01*
X138524000Y-97419260D01*
X138524000Y-97030741D01*
X138537037Y-96898376D01*
X138537037Y-96898374D01*
X138588557Y-96728535D01*
X138641754Y-96629011D01*
X138672221Y-96572011D01*
X138784814Y-96434814D01*
X138899923Y-96340348D01*
X138922009Y-96322222D01*
X139078534Y-96238557D01*
X139248373Y-96187037D01*
X139425000Y-96169641D01*
X139601626Y-96187037D01*
X139601626Y-96187037D01*
G37*
G36*
X137683600Y-96177989D02*
G01*
X137716652Y-96188015D01*
X137747103Y-96204292D01*
X137773799Y-96226201D01*
X137795708Y-96252897D01*
X137811985Y-96283348D01*
X137822011Y-96316400D01*
X137826000Y-96356903D01*
X137826000Y-98093097D01*
X137822011Y-98133600D01*
X137811985Y-98166652D01*
X137795708Y-98197103D01*
X137773799Y-98223799D01*
X137747103Y-98245708D01*
X137716652Y-98261985D01*
X137683600Y-98272011D01*
X137643097Y-98276000D01*
X136206903Y-98276000D01*
X136166400Y-98272011D01*
X136133348Y-98261985D01*
X136102897Y-98245708D01*
X136076201Y-98223799D01*
X136054292Y-98197103D01*
X136038015Y-98166652D01*
X136027989Y-98133600D01*
X136024000Y-98093097D01*
X136024000Y-96356903D01*
X136027989Y-96316400D01*
X136038015Y-96283348D01*
X136054292Y-96252897D01*
X136076201Y-96226201D01*
X136102897Y-96204292D01*
X136133348Y-96188015D01*
X136166400Y-96177989D01*
X136206903Y-96174000D01*
X137643097Y-96174000D01*
X137683600Y-96177989D01*
X137683600Y-96177989D01*
G37*
G36*
X123981528Y-95562398D02*
G01*
X124156074Y-95615347D01*
X124316950Y-95701336D01*
X124457949Y-95817051D01*
X124573667Y-95958053D01*
X124659652Y-96118921D01*
X124712602Y-96293471D01*
X124726000Y-96429510D01*
X124726000Y-96970489D01*
X124712602Y-97106528D01*
X124659653Y-97281074D01*
X124659651Y-97281079D01*
X124573666Y-97441947D01*
X124573664Y-97441950D01*
X124457949Y-97582949D01*
X124316947Y-97698667D01*
X124156079Y-97784652D01*
X123981529Y-97837602D01*
X123800000Y-97855480D01*
X123618472Y-97837602D01*
X123443922Y-97784652D01*
X123283054Y-97698667D01*
X123142052Y-97582949D01*
X123026334Y-97441946D01*
X122940348Y-97281079D01*
X122887398Y-97106529D01*
X122874000Y-96970490D01*
X122874000Y-96429511D01*
X122887398Y-96293472D01*
X122940347Y-96118926D01*
X123026336Y-95958050D01*
X123142051Y-95817051D01*
X123283053Y-95701333D01*
X123443921Y-95615348D01*
X123618471Y-95562398D01*
X123800000Y-95544520D01*
X123981528Y-95562398D01*
X123981528Y-95562398D01*
G37*
G36*
X118901528Y-95562398D02*
G01*
X119076074Y-95615347D01*
X119236950Y-95701336D01*
X119377949Y-95817051D01*
X119493667Y-95958053D01*
X119579652Y-96118921D01*
X119632602Y-96293471D01*
X119646000Y-96429510D01*
X119646000Y-96970489D01*
X119632602Y-97106528D01*
X119579653Y-97281074D01*
X119579651Y-97281079D01*
X119493666Y-97441947D01*
X119493664Y-97441950D01*
X119377949Y-97582949D01*
X119236947Y-97698667D01*
X119076079Y-97784652D01*
X118901529Y-97837602D01*
X118720000Y-97855480D01*
X118538472Y-97837602D01*
X118363922Y-97784652D01*
X118203054Y-97698667D01*
X118062052Y-97582949D01*
X117946334Y-97441946D01*
X117860348Y-97281079D01*
X117807398Y-97106529D01*
X117794000Y-96970490D01*
X117794000Y-96429511D01*
X117807398Y-96293472D01*
X117860347Y-96118926D01*
X117946336Y-95958050D01*
X118062051Y-95817051D01*
X118203053Y-95701333D01*
X118363921Y-95615348D01*
X118538471Y-95562398D01*
X118720000Y-95544520D01*
X118901528Y-95562398D01*
X118901528Y-95562398D01*
G37*
G36*
X121441528Y-95562398D02*
G01*
X121616074Y-95615347D01*
X121776950Y-95701336D01*
X121917949Y-95817051D01*
X122033667Y-95958053D01*
X122119652Y-96118921D01*
X122172602Y-96293471D01*
X122186000Y-96429510D01*
X122186000Y-96970489D01*
X122172602Y-97106528D01*
X122119653Y-97281074D01*
X122119651Y-97281079D01*
X122033666Y-97441947D01*
X122033664Y-97441950D01*
X121917949Y-97582949D01*
X121776947Y-97698667D01*
X121616079Y-97784652D01*
X121441529Y-97837602D01*
X121260000Y-97855480D01*
X121078472Y-97837602D01*
X120903922Y-97784652D01*
X120743054Y-97698667D01*
X120602052Y-97582949D01*
X120486334Y-97441946D01*
X120400348Y-97281079D01*
X120347398Y-97106529D01*
X120334000Y-96970490D01*
X120334000Y-96429511D01*
X120347398Y-96293472D01*
X120400347Y-96118926D01*
X120486336Y-95958050D01*
X120602051Y-95817051D01*
X120743053Y-95701333D01*
X120903921Y-95615348D01*
X121078471Y-95562398D01*
X121260000Y-95544520D01*
X121441528Y-95562398D01*
X121441528Y-95562398D01*
G37*
G36*
X117106000Y-97851000D02*
G01*
X115254000Y-97851000D01*
X115254000Y-95549000D01*
X117106000Y-95549000D01*
X117106000Y-97851000D01*
X117106000Y-97851000D01*
G37*
M02*
