G04 #@! TF.GenerationSoftware,KiCad,Pcbnew,(5.1.4)-1*
G04 #@! TF.CreationDate,2021-02-09T03:21:47-03:00*
G04 #@! TF.ProjectId,Eucalyptus,45756361-6c79-4707-9475-732e6b696361,rev?*
G04 #@! TF.SameCoordinates,Original*
G04 #@! TF.FileFunction,Copper,L2,Bot*
G04 #@! TF.FilePolarity,Positive*
%FSLAX46Y46*%
G04 Gerber Fmt 4.6, Leading zero omitted, Abs format (unit mm)*
G04 Created by KiCad (PCBNEW (5.1.4)-1) date 2021-02-09 03:21:47*
%MOMM*%
%LPD*%
G04 APERTURE LIST*
%ADD10O,1.600000X2.000000*%
%ADD11C,2.000000*%
%ADD12R,1.750000X2.200000*%
%ADD13O,1.750000X2.200000*%
%ADD14R,2.000000X2.000000*%
%ADD15O,2.000000X2.000000*%
%ADD16C,3.250000*%
%ADD17C,0.100000*%
%ADD18C,1.700000*%
%ADD19O,1.700000X2.000000*%
%ADD20O,2.000000X3.000000*%
%ADD21C,0.800000*%
%ADD22C,0.500000*%
%ADD23C,1.000000*%
%ADD24C,0.254000*%
G04 APERTURE END LIST*
D10*
X124000000Y-101900000D03*
X121460000Y-101900000D03*
X116380000Y-101900000D03*
X118920000Y-101900000D03*
D11*
X123825000Y-125857000D03*
X141605000Y-125857000D03*
X139065000Y-125857000D03*
X113665000Y-125881000D03*
X133985000Y-125881000D03*
X131445000Y-125881000D03*
X136525000Y-125857000D03*
X118745000Y-125881000D03*
X116205000Y-125881000D03*
X128905000Y-125881000D03*
X126365000Y-125881000D03*
X121285000Y-125881000D03*
D12*
X116180000Y-96700000D03*
D13*
X118720000Y-96700000D03*
X121260000Y-96700000D03*
X123800000Y-96700000D03*
D14*
X92583000Y-114871500D03*
D11*
X95123000Y-114871500D03*
X92583000Y-117411500D03*
X95123000Y-117411500D03*
X92583000Y-119951500D03*
X95123000Y-119951500D03*
D14*
X140500000Y-117200000D03*
D15*
X148120000Y-117200000D03*
X140500000Y-119740000D03*
X148120000Y-119740000D03*
D16*
X146000000Y-126000000D03*
X146000000Y-99000000D03*
X94000000Y-126000000D03*
X94000000Y-99000000D03*
D17*
G36*
X128999504Y-96801204D02*
G01*
X129023773Y-96804804D01*
X129047571Y-96810765D01*
X129070671Y-96819030D01*
X129092849Y-96829520D01*
X129113893Y-96842133D01*
X129133598Y-96856747D01*
X129151777Y-96873223D01*
X129168253Y-96891402D01*
X129182867Y-96911107D01*
X129195480Y-96932151D01*
X129205970Y-96954329D01*
X129214235Y-96977429D01*
X129220196Y-97001227D01*
X129223796Y-97025496D01*
X129225000Y-97050000D01*
X129225000Y-98550000D01*
X129223796Y-98574504D01*
X129220196Y-98598773D01*
X129214235Y-98622571D01*
X129205970Y-98645671D01*
X129195480Y-98667849D01*
X129182867Y-98688893D01*
X129168253Y-98708598D01*
X129151777Y-98726777D01*
X129133598Y-98743253D01*
X129113893Y-98757867D01*
X129092849Y-98770480D01*
X129070671Y-98780970D01*
X129047571Y-98789235D01*
X129023773Y-98795196D01*
X128999504Y-98798796D01*
X128975000Y-98800000D01*
X127775000Y-98800000D01*
X127750496Y-98798796D01*
X127726227Y-98795196D01*
X127702429Y-98789235D01*
X127679329Y-98780970D01*
X127657151Y-98770480D01*
X127636107Y-98757867D01*
X127616402Y-98743253D01*
X127598223Y-98726777D01*
X127581747Y-98708598D01*
X127567133Y-98688893D01*
X127554520Y-98667849D01*
X127544030Y-98645671D01*
X127535765Y-98622571D01*
X127529804Y-98598773D01*
X127526204Y-98574504D01*
X127525000Y-98550000D01*
X127525000Y-97050000D01*
X127526204Y-97025496D01*
X127529804Y-97001227D01*
X127535765Y-96977429D01*
X127544030Y-96954329D01*
X127554520Y-96932151D01*
X127567133Y-96911107D01*
X127581747Y-96891402D01*
X127598223Y-96873223D01*
X127616402Y-96856747D01*
X127636107Y-96842133D01*
X127657151Y-96829520D01*
X127679329Y-96819030D01*
X127702429Y-96810765D01*
X127726227Y-96804804D01*
X127750496Y-96801204D01*
X127775000Y-96800000D01*
X128975000Y-96800000D01*
X128999504Y-96801204D01*
X128999504Y-96801204D01*
G37*
D18*
X128375000Y-97800000D03*
D19*
X130875000Y-97800000D03*
D17*
G36*
X137549504Y-96226204D02*
G01*
X137573773Y-96229804D01*
X137597571Y-96235765D01*
X137620671Y-96244030D01*
X137642849Y-96254520D01*
X137663893Y-96267133D01*
X137683598Y-96281747D01*
X137701777Y-96298223D01*
X137718253Y-96316402D01*
X137732867Y-96336107D01*
X137745480Y-96357151D01*
X137755970Y-96379329D01*
X137764235Y-96402429D01*
X137770196Y-96426227D01*
X137773796Y-96450496D01*
X137775000Y-96475000D01*
X137775000Y-97975000D01*
X137773796Y-97999504D01*
X137770196Y-98023773D01*
X137764235Y-98047571D01*
X137755970Y-98070671D01*
X137745480Y-98092849D01*
X137732867Y-98113893D01*
X137718253Y-98133598D01*
X137701777Y-98151777D01*
X137683598Y-98168253D01*
X137663893Y-98182867D01*
X137642849Y-98195480D01*
X137620671Y-98205970D01*
X137597571Y-98214235D01*
X137573773Y-98220196D01*
X137549504Y-98223796D01*
X137525000Y-98225000D01*
X136325000Y-98225000D01*
X136300496Y-98223796D01*
X136276227Y-98220196D01*
X136252429Y-98214235D01*
X136229329Y-98205970D01*
X136207151Y-98195480D01*
X136186107Y-98182867D01*
X136166402Y-98168253D01*
X136148223Y-98151777D01*
X136131747Y-98133598D01*
X136117133Y-98113893D01*
X136104520Y-98092849D01*
X136094030Y-98070671D01*
X136085765Y-98047571D01*
X136079804Y-98023773D01*
X136076204Y-97999504D01*
X136075000Y-97975000D01*
X136075000Y-96475000D01*
X136076204Y-96450496D01*
X136079804Y-96426227D01*
X136085765Y-96402429D01*
X136094030Y-96379329D01*
X136104520Y-96357151D01*
X136117133Y-96336107D01*
X136131747Y-96316402D01*
X136148223Y-96298223D01*
X136166402Y-96281747D01*
X136186107Y-96267133D01*
X136207151Y-96254520D01*
X136229329Y-96244030D01*
X136252429Y-96235765D01*
X136276227Y-96229804D01*
X136300496Y-96226204D01*
X136325000Y-96225000D01*
X137525000Y-96225000D01*
X137549504Y-96226204D01*
X137549504Y-96226204D01*
G37*
D18*
X136925000Y-97225000D03*
D19*
X139425000Y-97225000D03*
X103274500Y-97282000D03*
D17*
G36*
X101399004Y-96283204D02*
G01*
X101423273Y-96286804D01*
X101447071Y-96292765D01*
X101470171Y-96301030D01*
X101492349Y-96311520D01*
X101513393Y-96324133D01*
X101533098Y-96338747D01*
X101551277Y-96355223D01*
X101567753Y-96373402D01*
X101582367Y-96393107D01*
X101594980Y-96414151D01*
X101605470Y-96436329D01*
X101613735Y-96459429D01*
X101619696Y-96483227D01*
X101623296Y-96507496D01*
X101624500Y-96532000D01*
X101624500Y-98032000D01*
X101623296Y-98056504D01*
X101619696Y-98080773D01*
X101613735Y-98104571D01*
X101605470Y-98127671D01*
X101594980Y-98149849D01*
X101582367Y-98170893D01*
X101567753Y-98190598D01*
X101551277Y-98208777D01*
X101533098Y-98225253D01*
X101513393Y-98239867D01*
X101492349Y-98252480D01*
X101470171Y-98262970D01*
X101447071Y-98271235D01*
X101423273Y-98277196D01*
X101399004Y-98280796D01*
X101374500Y-98282000D01*
X100174500Y-98282000D01*
X100149996Y-98280796D01*
X100125727Y-98277196D01*
X100101929Y-98271235D01*
X100078829Y-98262970D01*
X100056651Y-98252480D01*
X100035607Y-98239867D01*
X100015902Y-98225253D01*
X99997723Y-98208777D01*
X99981247Y-98190598D01*
X99966633Y-98170893D01*
X99954020Y-98149849D01*
X99943530Y-98127671D01*
X99935265Y-98104571D01*
X99929304Y-98080773D01*
X99925704Y-98056504D01*
X99924500Y-98032000D01*
X99924500Y-96532000D01*
X99925704Y-96507496D01*
X99929304Y-96483227D01*
X99935265Y-96459429D01*
X99943530Y-96436329D01*
X99954020Y-96414151D01*
X99966633Y-96393107D01*
X99981247Y-96373402D01*
X99997723Y-96355223D01*
X100015902Y-96338747D01*
X100035607Y-96324133D01*
X100056651Y-96311520D01*
X100078829Y-96301030D01*
X100101929Y-96292765D01*
X100125727Y-96286804D01*
X100149996Y-96283204D01*
X100174500Y-96282000D01*
X101374500Y-96282000D01*
X101399004Y-96283204D01*
X101399004Y-96283204D01*
G37*
D18*
X100774500Y-97282000D03*
D11*
X103505000Y-125881000D03*
X100965000Y-125881000D03*
X98425000Y-125881000D03*
X111125000Y-125881000D03*
X108585000Y-125881000D03*
X106045000Y-125881000D03*
X147500500Y-108204000D03*
X139900500Y-108204000D03*
D20*
X100429500Y-113526500D03*
X104929500Y-113526500D03*
X104929500Y-120026500D03*
X100429500Y-120026500D03*
D21*
X113334800Y-112928400D03*
X130556000Y-100838000D03*
X97028000Y-103124000D03*
X100838000Y-105156000D03*
X100076000Y-110744000D03*
X122174000Y-114808000D03*
X131064000Y-114046000D03*
X127508000Y-118872000D03*
X122732800Y-112115600D03*
X119126000Y-118364000D03*
X106426000Y-116840008D03*
X91694000Y-106426000D03*
X118100000Y-110500000D03*
X109982000Y-117513990D03*
X105156000Y-123190000D03*
X123037600Y-118414800D03*
X127254000Y-121412000D03*
X126695200Y-117957600D03*
X114998500Y-108204000D03*
X113792000Y-109347006D03*
X110235991Y-105918011D03*
X131114800Y-115976400D03*
X124850000Y-108267500D03*
X118749990Y-114808000D03*
X119600000Y-113758000D03*
X137160000Y-101600000D03*
X134620000Y-111048800D03*
X133096000Y-102870000D03*
X112826800Y-110134400D03*
X102616004Y-115824000D03*
D22*
X106825999Y-117240007D02*
X106426000Y-116840008D01*
X107949992Y-118364000D02*
X106825999Y-117240007D01*
X119126000Y-118364000D02*
X107949992Y-118364000D01*
X92583000Y-121285000D02*
X93154500Y-121856500D01*
X92583000Y-119951500D02*
X92583000Y-121285000D01*
X105860315Y-116840008D02*
X106426000Y-116840008D01*
X93154500Y-121856500D02*
X97155000Y-121856500D01*
X97155000Y-121856500D02*
X98044000Y-120967500D01*
X100583992Y-116840008D02*
X105860315Y-116840008D01*
X98044000Y-120967500D02*
X98044000Y-119380000D01*
X98044000Y-119380000D02*
X100583992Y-116840008D01*
D23*
X118920000Y-99900000D02*
X118920000Y-101900000D01*
X118595000Y-99575000D02*
X118920000Y-99900000D01*
X116955000Y-99575000D02*
X118595000Y-99575000D01*
X116180000Y-98800000D02*
X116955000Y-99575000D01*
X116180000Y-96700000D02*
X116180000Y-98800000D01*
X98298000Y-99822000D02*
X91694000Y-106426000D01*
X107188000Y-99822000D02*
X98298000Y-99822000D01*
X116180000Y-96700000D02*
X110310000Y-96700000D01*
X110310000Y-96700000D02*
X107188000Y-99822000D01*
X139065000Y-124442787D02*
X137812213Y-123190000D01*
X139065000Y-125857000D02*
X139065000Y-124442787D01*
X100965000Y-123825000D02*
X100965000Y-125881000D01*
X101600000Y-123190000D02*
X100965000Y-123825000D01*
X123825000Y-123317000D02*
X123952000Y-123190000D01*
X123825000Y-125857000D02*
X123825000Y-123317000D01*
X116205000Y-123317000D02*
X116205000Y-125881000D01*
X116078000Y-123190000D02*
X116205000Y-123317000D01*
X123952000Y-123190000D02*
X116078000Y-123190000D01*
X108585000Y-123317000D02*
X108585000Y-125881000D01*
X108458000Y-123190000D02*
X108585000Y-123317000D01*
X116078000Y-123190000D02*
X108458000Y-123190000D01*
X131445000Y-123317000D02*
X131445000Y-125881000D01*
X131318000Y-123190000D02*
X131445000Y-123317000D01*
X131318000Y-123190000D02*
X123952000Y-123190000D01*
X137812213Y-123190000D02*
X131318000Y-123190000D01*
X124188401Y-122953599D02*
X123952000Y-123190000D01*
X124188401Y-117659400D02*
X124188401Y-122953599D01*
X118920000Y-109580000D02*
X117348000Y-111152000D01*
X118920000Y-101900000D02*
X118920000Y-109580000D01*
X117348000Y-115824000D02*
X118324000Y-116800000D01*
X118324000Y-116800000D02*
X123329001Y-116800000D01*
X123329001Y-116800000D02*
X124188401Y-117659400D01*
X117348000Y-111152000D02*
X117348000Y-115062000D01*
X117348000Y-115062000D02*
X117348000Y-115824000D01*
D22*
X111696500Y-115062000D02*
X110172500Y-116586000D01*
X117348000Y-115062000D02*
X111696500Y-115062000D01*
X110172500Y-116586000D02*
X109982000Y-116586000D01*
X109982000Y-116586000D02*
X109982000Y-117513990D01*
D23*
X108458000Y-123190000D02*
X105156000Y-123190000D01*
X105156000Y-123190000D02*
X101600000Y-123190000D01*
D22*
X122637601Y-118814799D02*
X123037600Y-118414800D01*
X111187955Y-119406012D02*
X111194967Y-119399000D01*
X107468012Y-119406012D02*
X111187955Y-119406012D01*
X100429500Y-120026500D02*
X101929500Y-120026500D01*
X122053400Y-119399000D02*
X122637601Y-118814799D01*
X105664000Y-117602000D02*
X107468012Y-119406012D01*
X104354000Y-117602000D02*
X105664000Y-117602000D01*
X111194967Y-119399000D02*
X122053400Y-119399000D01*
X101929500Y-120026500D02*
X104354000Y-117602000D01*
X123800000Y-96700000D02*
X124386000Y-96700000D01*
X124386000Y-96700000D02*
X127508000Y-99822000D01*
X127508000Y-99822000D02*
X127508000Y-106934000D01*
X127819685Y-121412000D02*
X127254000Y-121412000D01*
X132207000Y-121412000D02*
X127819685Y-121412000D01*
X127508000Y-106934000D02*
X134493000Y-113919000D01*
X134493000Y-113919000D02*
X134493000Y-119126000D01*
X134493000Y-119126000D02*
X132207000Y-121412000D01*
X133096000Y-116713000D02*
X131851400Y-117957600D01*
X133096000Y-113792000D02*
X133096000Y-116713000D01*
X121260000Y-98146000D02*
X121666000Y-98552000D01*
X121260000Y-96700000D02*
X121260000Y-98146000D01*
X121666000Y-98552000D02*
X124714000Y-98552000D01*
X124714000Y-98552000D02*
X126492000Y-100330000D01*
X131851400Y-117957600D02*
X126695200Y-117957600D01*
X126492000Y-100330000D02*
X126492000Y-107188000D01*
X126492000Y-107188000D02*
X133096000Y-113792000D01*
X114998500Y-107638315D02*
X114998500Y-108204000D01*
X114998500Y-107073700D02*
X114998500Y-107638315D01*
X111556800Y-103632000D02*
X114998500Y-107073700D01*
X99758500Y-103632000D02*
X111556800Y-103632000D01*
X92583000Y-114871500D02*
X92583000Y-110807500D01*
X92583000Y-110807500D02*
X99758500Y-103632000D01*
X114357685Y-109347006D02*
X113792000Y-109347006D01*
X115696994Y-109347006D02*
X114357685Y-109347006D01*
X116332000Y-108712000D02*
X115696994Y-109347006D01*
X116332000Y-107035600D02*
X116332000Y-108712000D01*
X92583000Y-117411500D02*
X91168787Y-117411500D01*
X90728800Y-116971513D02*
X90728800Y-110998000D01*
X91168787Y-117411500D02*
X90728800Y-116971513D01*
X90728800Y-110998000D02*
X98856800Y-102870000D01*
X98856800Y-102870000D02*
X112166400Y-102870000D01*
X112166400Y-102870000D02*
X116332000Y-107035600D01*
X109670306Y-105918011D02*
X110235991Y-105918011D01*
X102361989Y-105918011D02*
X109670306Y-105918011D01*
X98044000Y-110236000D02*
X102361989Y-105918011D01*
X98044000Y-116332000D02*
X98044000Y-110236000D01*
X95123000Y-117411500D02*
X96964500Y-117411500D01*
X96964500Y-117411500D02*
X98044000Y-116332000D01*
X124968000Y-108385500D02*
X124968000Y-111760000D01*
X124968000Y-111760000D02*
X129184400Y-115976400D01*
X129184400Y-115976400D02*
X131114800Y-115976400D01*
X124850000Y-108267500D02*
X124968000Y-108385500D01*
X124000000Y-108918000D02*
X121158000Y-111760000D01*
X124000000Y-101900000D02*
X124000000Y-108918000D01*
X121158000Y-111760000D02*
X121158000Y-113792000D01*
X121158000Y-113792000D02*
X120142000Y-114808000D01*
X120142000Y-114808000D02*
X118749990Y-114808000D01*
X121460000Y-101900000D02*
X121460000Y-109680000D01*
X121460000Y-109680000D02*
X119600000Y-111540000D01*
X119600000Y-111540000D02*
X119600000Y-113192315D01*
X119600000Y-113192315D02*
X119600000Y-113758000D01*
X134620000Y-104140000D02*
X134620000Y-111048800D01*
X137160000Y-101600000D02*
X134620000Y-104140000D01*
D23*
X139425000Y-99225000D02*
X138828000Y-99822000D01*
X139425000Y-97225000D02*
X139425000Y-99225000D01*
X138828000Y-99822000D02*
X134112000Y-99822000D01*
X134112000Y-99822000D02*
X133096000Y-100838000D01*
X133096000Y-100838000D02*
X133096000Y-102870000D01*
D22*
X102768396Y-115671608D02*
X102616004Y-115824000D01*
X112826800Y-110134400D02*
X107289592Y-115671608D01*
X107289592Y-115671608D02*
X102768396Y-115671608D01*
D24*
G36*
X145785863Y-95632362D02*
G01*
X146546882Y-95840554D01*
X147259011Y-96180221D01*
X147899734Y-96640628D01*
X148448797Y-97207215D01*
X148888851Y-97862086D01*
X149205982Y-98584531D01*
X149391202Y-99356025D01*
X149440001Y-100020546D01*
X149440000Y-104972494D01*
X149440000Y-104972495D01*
X149440001Y-124975049D01*
X149367638Y-125785863D01*
X149159446Y-126546882D01*
X148819779Y-127259011D01*
X148359372Y-127899733D01*
X147792781Y-128448799D01*
X147137914Y-128888851D01*
X146415468Y-129205983D01*
X145643975Y-129391202D01*
X144979468Y-129440000D01*
X95024940Y-129440000D01*
X94214137Y-129367638D01*
X93453118Y-129159446D01*
X92740989Y-128819779D01*
X92100267Y-128359372D01*
X91551201Y-127792781D01*
X91111149Y-127137914D01*
X90794017Y-126415468D01*
X90643198Y-125787259D01*
X91840000Y-125787259D01*
X91840000Y-126212741D01*
X91923008Y-126630049D01*
X92085833Y-127023144D01*
X92322219Y-127376920D01*
X92623080Y-127677781D01*
X92976856Y-127914167D01*
X93369951Y-128076992D01*
X93787259Y-128160000D01*
X94212741Y-128160000D01*
X94630049Y-128076992D01*
X95023144Y-127914167D01*
X95376920Y-127677781D01*
X95677781Y-127376920D01*
X95914167Y-127023144D01*
X96076992Y-126630049D01*
X96160000Y-126212741D01*
X96160000Y-125787259D01*
X96076992Y-125369951D01*
X95914167Y-124976856D01*
X95677781Y-124623080D01*
X95376920Y-124322219D01*
X95023144Y-124085833D01*
X94630049Y-123923008D01*
X94212741Y-123840000D01*
X93787259Y-123840000D01*
X93369951Y-123923008D01*
X92976856Y-124085833D01*
X92623080Y-124322219D01*
X92322219Y-124623080D01*
X92085833Y-124976856D01*
X91923008Y-125369951D01*
X91840000Y-125787259D01*
X90643198Y-125787259D01*
X90608798Y-125643975D01*
X90560000Y-124979468D01*
X90560000Y-117912869D01*
X90586436Y-117939305D01*
X90611023Y-117969264D01*
X90730554Y-118067362D01*
X90863823Y-118138595D01*
X90866927Y-118140254D01*
X91014900Y-118185142D01*
X91089813Y-118192520D01*
X91130226Y-118196500D01*
X91130231Y-118196500D01*
X91168787Y-118200297D01*
X91207343Y-118196500D01*
X91261392Y-118196500D01*
X91390688Y-118390005D01*
X91604495Y-118603812D01*
X91720763Y-118681500D01*
X91604495Y-118759188D01*
X91390688Y-118972995D01*
X91222701Y-119224405D01*
X91106989Y-119503757D01*
X91048000Y-119800316D01*
X91048000Y-120102684D01*
X91106989Y-120399243D01*
X91222701Y-120678595D01*
X91390688Y-120930005D01*
X91604495Y-121143812D01*
X91795536Y-121271462D01*
X91794203Y-121285000D01*
X91809359Y-121438886D01*
X91854246Y-121586859D01*
X91854247Y-121586860D01*
X91927139Y-121723233D01*
X91941836Y-121741141D01*
X92000655Y-121812812D01*
X92000659Y-121812816D01*
X92025237Y-121842764D01*
X92055185Y-121867342D01*
X92572157Y-122384315D01*
X92596736Y-122414264D01*
X92626684Y-122438842D01*
X92626687Y-122438845D01*
X92643041Y-122452266D01*
X92716267Y-122512362D01*
X92852640Y-122585254D01*
X93000613Y-122630141D01*
X93115939Y-122641500D01*
X93115946Y-122641500D01*
X93154499Y-122645297D01*
X93193052Y-122641500D01*
X97116447Y-122641500D01*
X97155000Y-122645297D01*
X97193553Y-122641500D01*
X97193561Y-122641500D01*
X97308887Y-122630141D01*
X97456860Y-122585254D01*
X97593233Y-122512362D01*
X97712764Y-122414264D01*
X97737347Y-122384310D01*
X98571811Y-121549846D01*
X98601764Y-121525264D01*
X98699862Y-121405733D01*
X98772754Y-121269360D01*
X98772754Y-121269359D01*
X98817642Y-121121387D01*
X98825020Y-121046474D01*
X98829000Y-121006061D01*
X98829000Y-121006056D01*
X98832797Y-120967500D01*
X98829000Y-120928944D01*
X98829000Y-119705157D01*
X98894500Y-119639657D01*
X98894500Y-120601908D01*
X98916710Y-120827413D01*
X99004483Y-121116761D01*
X99147019Y-121383427D01*
X99338840Y-121617161D01*
X99572574Y-121808981D01*
X99839240Y-121951517D01*
X100128588Y-122039290D01*
X100429500Y-122068927D01*
X100730413Y-122039290D01*
X101019761Y-121951517D01*
X101286427Y-121808981D01*
X101520161Y-121617161D01*
X101711981Y-121383427D01*
X101854517Y-121116761D01*
X101942290Y-120827413D01*
X101943620Y-120813906D01*
X101968053Y-120811500D01*
X101968061Y-120811500D01*
X102083387Y-120800141D01*
X102231360Y-120755254D01*
X102367733Y-120682362D01*
X102487264Y-120584264D01*
X102511847Y-120554310D01*
X104679157Y-118387000D01*
X105338843Y-118387000D01*
X106885670Y-119933828D01*
X106910248Y-119963776D01*
X106940196Y-119988354D01*
X106940199Y-119988357D01*
X106969571Y-120012462D01*
X107029779Y-120061874D01*
X107166152Y-120134766D01*
X107279684Y-120169206D01*
X107314124Y-120179653D01*
X107321567Y-120180386D01*
X107429451Y-120191012D01*
X107429458Y-120191012D01*
X107468011Y-120194809D01*
X107506564Y-120191012D01*
X111149402Y-120191012D01*
X111187955Y-120194809D01*
X111226508Y-120191012D01*
X111226516Y-120191012D01*
X111297708Y-120184000D01*
X122014847Y-120184000D01*
X122053400Y-120187797D01*
X122091953Y-120184000D01*
X122091961Y-120184000D01*
X122207287Y-120172641D01*
X122355260Y-120127754D01*
X122491633Y-120054862D01*
X122611164Y-119956764D01*
X122635746Y-119926811D01*
X123153401Y-119409157D01*
X123153402Y-122155000D01*
X116128828Y-122155000D01*
X116078000Y-122149994D01*
X116027172Y-122155000D01*
X108508828Y-122155000D01*
X108458000Y-122149994D01*
X108407172Y-122155000D01*
X101650835Y-122155000D01*
X101600000Y-122149993D01*
X101549165Y-122155000D01*
X101549162Y-122155000D01*
X101397105Y-122169976D01*
X101247415Y-122215385D01*
X101202006Y-122229159D01*
X101022202Y-122325266D01*
X100978156Y-122361414D01*
X100864604Y-122454604D01*
X100832193Y-122494097D01*
X100269097Y-123057193D01*
X100229604Y-123089604D01*
X100100266Y-123247203D01*
X100004159Y-123427008D01*
X99944976Y-123622106D01*
X99930000Y-123774163D01*
X99930000Y-123774172D01*
X99924994Y-123825000D01*
X99930000Y-123875828D01*
X99930000Y-124745183D01*
X99772688Y-124902495D01*
X99695000Y-125018763D01*
X99617312Y-124902495D01*
X99403505Y-124688688D01*
X99152095Y-124520701D01*
X98872743Y-124404989D01*
X98576184Y-124346000D01*
X98273816Y-124346000D01*
X97977257Y-124404989D01*
X97697905Y-124520701D01*
X97446495Y-124688688D01*
X97232688Y-124902495D01*
X97064701Y-125153905D01*
X96948989Y-125433257D01*
X96890000Y-125729816D01*
X96890000Y-126032184D01*
X96948989Y-126328743D01*
X97064701Y-126608095D01*
X97232688Y-126859505D01*
X97446495Y-127073312D01*
X97697905Y-127241299D01*
X97977257Y-127357011D01*
X98273816Y-127416000D01*
X98576184Y-127416000D01*
X98872743Y-127357011D01*
X99152095Y-127241299D01*
X99403505Y-127073312D01*
X99617312Y-126859505D01*
X99695000Y-126743237D01*
X99772688Y-126859505D01*
X99986495Y-127073312D01*
X100237905Y-127241299D01*
X100517257Y-127357011D01*
X100813816Y-127416000D01*
X101116184Y-127416000D01*
X101412743Y-127357011D01*
X101692095Y-127241299D01*
X101943505Y-127073312D01*
X102157312Y-126859505D01*
X102325299Y-126608095D01*
X102441011Y-126328743D01*
X102500000Y-126032184D01*
X102500000Y-125729816D01*
X102441011Y-125433257D01*
X102325299Y-125153905D01*
X102157312Y-124902495D01*
X102000000Y-124745183D01*
X102000000Y-124253710D01*
X102028710Y-124225000D01*
X107550000Y-124225000D01*
X107550001Y-124745182D01*
X107392688Y-124902495D01*
X107315000Y-125018763D01*
X107237312Y-124902495D01*
X107023505Y-124688688D01*
X106772095Y-124520701D01*
X106492743Y-124404989D01*
X106196184Y-124346000D01*
X105893816Y-124346000D01*
X105597257Y-124404989D01*
X105317905Y-124520701D01*
X105066495Y-124688688D01*
X104852688Y-124902495D01*
X104684701Y-125153905D01*
X104568989Y-125433257D01*
X104510000Y-125729816D01*
X104510000Y-126032184D01*
X104568989Y-126328743D01*
X104684701Y-126608095D01*
X104852688Y-126859505D01*
X105066495Y-127073312D01*
X105317905Y-127241299D01*
X105597257Y-127357011D01*
X105893816Y-127416000D01*
X106196184Y-127416000D01*
X106492743Y-127357011D01*
X106772095Y-127241299D01*
X107023505Y-127073312D01*
X107237312Y-126859505D01*
X107315000Y-126743237D01*
X107392688Y-126859505D01*
X107606495Y-127073312D01*
X107857905Y-127241299D01*
X108137257Y-127357011D01*
X108433816Y-127416000D01*
X108736184Y-127416000D01*
X109032743Y-127357011D01*
X109312095Y-127241299D01*
X109563505Y-127073312D01*
X109777312Y-126859505D01*
X109945299Y-126608095D01*
X110061011Y-126328743D01*
X110120000Y-126032184D01*
X110120000Y-125729816D01*
X110061011Y-125433257D01*
X109945299Y-125153905D01*
X109777312Y-124902495D01*
X109620000Y-124745183D01*
X109620000Y-124225000D01*
X115170000Y-124225000D01*
X115170001Y-124745182D01*
X115012688Y-124902495D01*
X114935000Y-125018763D01*
X114857312Y-124902495D01*
X114643505Y-124688688D01*
X114392095Y-124520701D01*
X114112743Y-124404989D01*
X113816184Y-124346000D01*
X113513816Y-124346000D01*
X113217257Y-124404989D01*
X112937905Y-124520701D01*
X112686495Y-124688688D01*
X112472688Y-124902495D01*
X112304701Y-125153905D01*
X112188989Y-125433257D01*
X112130000Y-125729816D01*
X112130000Y-126032184D01*
X112188989Y-126328743D01*
X112304701Y-126608095D01*
X112472688Y-126859505D01*
X112686495Y-127073312D01*
X112937905Y-127241299D01*
X113217257Y-127357011D01*
X113513816Y-127416000D01*
X113816184Y-127416000D01*
X114112743Y-127357011D01*
X114392095Y-127241299D01*
X114643505Y-127073312D01*
X114857312Y-126859505D01*
X114935000Y-126743237D01*
X115012688Y-126859505D01*
X115226495Y-127073312D01*
X115477905Y-127241299D01*
X115757257Y-127357011D01*
X116053816Y-127416000D01*
X116356184Y-127416000D01*
X116652743Y-127357011D01*
X116932095Y-127241299D01*
X117183505Y-127073312D01*
X117397312Y-126859505D01*
X117565299Y-126608095D01*
X117681011Y-126328743D01*
X117740000Y-126032184D01*
X117740000Y-125729816D01*
X117681011Y-125433257D01*
X117565299Y-125153905D01*
X117397312Y-124902495D01*
X117240000Y-124745183D01*
X117240000Y-124225000D01*
X122790001Y-124225000D01*
X122790000Y-124721183D01*
X122632688Y-124878495D01*
X122546982Y-125006763D01*
X122477312Y-124902495D01*
X122263505Y-124688688D01*
X122012095Y-124520701D01*
X121732743Y-124404989D01*
X121436184Y-124346000D01*
X121133816Y-124346000D01*
X120837257Y-124404989D01*
X120557905Y-124520701D01*
X120306495Y-124688688D01*
X120092688Y-124902495D01*
X119924701Y-125153905D01*
X119808989Y-125433257D01*
X119750000Y-125729816D01*
X119750000Y-126032184D01*
X119808989Y-126328743D01*
X119924701Y-126608095D01*
X120092688Y-126859505D01*
X120306495Y-127073312D01*
X120557905Y-127241299D01*
X120837257Y-127357011D01*
X121133816Y-127416000D01*
X121436184Y-127416000D01*
X121732743Y-127357011D01*
X122012095Y-127241299D01*
X122263505Y-127073312D01*
X122477312Y-126859505D01*
X122563018Y-126731237D01*
X122632688Y-126835505D01*
X122846495Y-127049312D01*
X123097905Y-127217299D01*
X123377257Y-127333011D01*
X123673816Y-127392000D01*
X123976184Y-127392000D01*
X124272743Y-127333011D01*
X124552095Y-127217299D01*
X124803505Y-127049312D01*
X125017312Y-126835505D01*
X125185299Y-126584095D01*
X125301011Y-126304743D01*
X125360000Y-126008184D01*
X125360000Y-125705816D01*
X125301011Y-125409257D01*
X125185299Y-125129905D01*
X125017312Y-124878495D01*
X124860000Y-124721183D01*
X124860000Y-124225000D01*
X130410000Y-124225000D01*
X130410001Y-124745182D01*
X130252688Y-124902495D01*
X130175000Y-125018763D01*
X130097312Y-124902495D01*
X129883505Y-124688688D01*
X129632095Y-124520701D01*
X129352743Y-124404989D01*
X129056184Y-124346000D01*
X128753816Y-124346000D01*
X128457257Y-124404989D01*
X128177905Y-124520701D01*
X127926495Y-124688688D01*
X127712688Y-124902495D01*
X127544701Y-125153905D01*
X127428989Y-125433257D01*
X127370000Y-125729816D01*
X127370000Y-126032184D01*
X127428989Y-126328743D01*
X127544701Y-126608095D01*
X127712688Y-126859505D01*
X127926495Y-127073312D01*
X128177905Y-127241299D01*
X128457257Y-127357011D01*
X128753816Y-127416000D01*
X129056184Y-127416000D01*
X129352743Y-127357011D01*
X129632095Y-127241299D01*
X129883505Y-127073312D01*
X130097312Y-126859505D01*
X130175000Y-126743237D01*
X130252688Y-126859505D01*
X130466495Y-127073312D01*
X130717905Y-127241299D01*
X130997257Y-127357011D01*
X131293816Y-127416000D01*
X131596184Y-127416000D01*
X131892743Y-127357011D01*
X132172095Y-127241299D01*
X132423505Y-127073312D01*
X132637312Y-126859505D01*
X132805299Y-126608095D01*
X132921011Y-126328743D01*
X132980000Y-126032184D01*
X132980000Y-125729816D01*
X132921011Y-125433257D01*
X132805299Y-125153905D01*
X132637312Y-124902495D01*
X132480000Y-124745183D01*
X132480000Y-124225000D01*
X137383503Y-124225000D01*
X137954843Y-124796340D01*
X137872688Y-124878495D01*
X137795000Y-124994763D01*
X137717312Y-124878495D01*
X137503505Y-124664688D01*
X137252095Y-124496701D01*
X136972743Y-124380989D01*
X136676184Y-124322000D01*
X136373816Y-124322000D01*
X136077257Y-124380989D01*
X135797905Y-124496701D01*
X135546495Y-124664688D01*
X135332688Y-124878495D01*
X135164701Y-125129905D01*
X135048989Y-125409257D01*
X134990000Y-125705816D01*
X134990000Y-126008184D01*
X135048989Y-126304743D01*
X135164701Y-126584095D01*
X135332688Y-126835505D01*
X135546495Y-127049312D01*
X135797905Y-127217299D01*
X136077257Y-127333011D01*
X136373816Y-127392000D01*
X136676184Y-127392000D01*
X136972743Y-127333011D01*
X137252095Y-127217299D01*
X137503505Y-127049312D01*
X137717312Y-126835505D01*
X137795000Y-126719237D01*
X137872688Y-126835505D01*
X138086495Y-127049312D01*
X138337905Y-127217299D01*
X138617257Y-127333011D01*
X138913816Y-127392000D01*
X139216184Y-127392000D01*
X139512743Y-127333011D01*
X139792095Y-127217299D01*
X140043505Y-127049312D01*
X140257312Y-126835505D01*
X140425299Y-126584095D01*
X140541011Y-126304743D01*
X140600000Y-126008184D01*
X140600000Y-125787259D01*
X143840000Y-125787259D01*
X143840000Y-126212741D01*
X143923008Y-126630049D01*
X144085833Y-127023144D01*
X144322219Y-127376920D01*
X144623080Y-127677781D01*
X144976856Y-127914167D01*
X145369951Y-128076992D01*
X145787259Y-128160000D01*
X146212741Y-128160000D01*
X146630049Y-128076992D01*
X147023144Y-127914167D01*
X147376920Y-127677781D01*
X147677781Y-127376920D01*
X147914167Y-127023144D01*
X148076992Y-126630049D01*
X148160000Y-126212741D01*
X148160000Y-125787259D01*
X148076992Y-125369951D01*
X147914167Y-124976856D01*
X147677781Y-124623080D01*
X147376920Y-124322219D01*
X147023144Y-124085833D01*
X146630049Y-123923008D01*
X146212741Y-123840000D01*
X145787259Y-123840000D01*
X145369951Y-123923008D01*
X144976856Y-124085833D01*
X144623080Y-124322219D01*
X144322219Y-124623080D01*
X144085833Y-124976856D01*
X143923008Y-125369951D01*
X143840000Y-125787259D01*
X140600000Y-125787259D01*
X140600000Y-125705816D01*
X140541011Y-125409257D01*
X140425299Y-125129905D01*
X140257312Y-124878495D01*
X140100000Y-124721183D01*
X140100000Y-124493614D01*
X140105006Y-124442786D01*
X140100000Y-124391958D01*
X140100000Y-124391949D01*
X140085024Y-124239892D01*
X140025841Y-124044794D01*
X139960745Y-123923008D01*
X139929734Y-123864989D01*
X139832803Y-123746879D01*
X139800396Y-123707391D01*
X139760908Y-123674984D01*
X138580020Y-122494097D01*
X138547609Y-122454604D01*
X138390010Y-122325266D01*
X138210206Y-122229159D01*
X138015108Y-122169976D01*
X137863051Y-122155000D01*
X137863041Y-122155000D01*
X137812213Y-122149994D01*
X137761385Y-122155000D01*
X132461897Y-122155000D01*
X132508860Y-122140754D01*
X132645233Y-122067862D01*
X132764764Y-121969764D01*
X132789347Y-121939810D01*
X134989157Y-119740000D01*
X138957573Y-119740000D01*
X138987210Y-120040913D01*
X139074983Y-120330261D01*
X139217519Y-120596927D01*
X139409339Y-120830661D01*
X139643073Y-121022481D01*
X139909739Y-121165017D01*
X140199087Y-121252790D01*
X140424592Y-121275000D01*
X140575408Y-121275000D01*
X140800913Y-121252790D01*
X141090261Y-121165017D01*
X141356927Y-121022481D01*
X141590661Y-120830661D01*
X141782481Y-120596927D01*
X141925017Y-120330261D01*
X142012790Y-120040913D01*
X142042427Y-119740000D01*
X142012790Y-119439087D01*
X141925017Y-119149739D01*
X141782481Y-118883073D01*
X141644695Y-118715180D01*
X141705726Y-118696667D01*
X141798668Y-118646988D01*
X141880132Y-118580132D01*
X141946988Y-118498668D01*
X141996667Y-118405726D01*
X142027258Y-118304878D01*
X142037588Y-118200000D01*
X142037588Y-116200000D01*
X142027258Y-116095122D01*
X141996667Y-115994274D01*
X141946988Y-115901332D01*
X141880132Y-115819868D01*
X141798668Y-115753012D01*
X141705726Y-115703333D01*
X141604878Y-115672742D01*
X141500000Y-115662412D01*
X139500000Y-115662412D01*
X139395122Y-115672742D01*
X139294274Y-115703333D01*
X139201332Y-115753012D01*
X139119868Y-115819868D01*
X139053012Y-115901332D01*
X139003333Y-115994274D01*
X138972742Y-116095122D01*
X138962412Y-116200000D01*
X138962412Y-118200000D01*
X138972742Y-118304878D01*
X139003333Y-118405726D01*
X139053012Y-118498668D01*
X139119868Y-118580132D01*
X139201332Y-118646988D01*
X139294274Y-118696667D01*
X139355305Y-118715180D01*
X139217519Y-118883073D01*
X139074983Y-119149739D01*
X138987210Y-119439087D01*
X138957573Y-119740000D01*
X134989157Y-119740000D01*
X135020816Y-119708342D01*
X135050764Y-119683764D01*
X135078769Y-119649641D01*
X135116557Y-119603596D01*
X135148862Y-119564233D01*
X135221754Y-119427860D01*
X135247614Y-119342612D01*
X135266641Y-119279888D01*
X135269375Y-119252125D01*
X135278000Y-119164561D01*
X135278000Y-119164554D01*
X135281797Y-119126001D01*
X135278000Y-119087448D01*
X135278000Y-113957556D01*
X135281797Y-113919000D01*
X135278000Y-113880440D01*
X135278000Y-113880439D01*
X135273087Y-113830561D01*
X135266642Y-113765113D01*
X135221754Y-113617140D01*
X135198071Y-113572832D01*
X135148862Y-113480767D01*
X135050764Y-113361236D01*
X135020811Y-113336654D01*
X128293000Y-106608843D01*
X128293000Y-100838000D01*
X132055994Y-100838000D01*
X132061000Y-100888828D01*
X132061001Y-102920838D01*
X132075977Y-103072895D01*
X132135160Y-103267993D01*
X132231267Y-103447797D01*
X132360605Y-103605396D01*
X132518204Y-103734734D01*
X132698008Y-103830841D01*
X132893106Y-103890024D01*
X133096000Y-103910007D01*
X133298895Y-103890024D01*
X133493993Y-103830841D01*
X133673797Y-103734734D01*
X133831396Y-103605396D01*
X133960734Y-103447797D01*
X134056841Y-103267993D01*
X134116024Y-103072895D01*
X134131000Y-102920838D01*
X134131000Y-101266710D01*
X134540711Y-100857000D01*
X136589022Y-100857000D01*
X136563972Y-100873738D01*
X136433738Y-101003972D01*
X136331414Y-101157111D01*
X136260932Y-101327271D01*
X136245627Y-101404216D01*
X134092190Y-103557653D01*
X134062236Y-103582236D01*
X133964138Y-103701768D01*
X133891246Y-103838141D01*
X133846359Y-103986114D01*
X133835000Y-104101440D01*
X133835000Y-104101447D01*
X133831203Y-104140000D01*
X133835000Y-104178553D01*
X133835001Y-110540678D01*
X133791414Y-110605911D01*
X133720932Y-110776071D01*
X133685000Y-110956711D01*
X133685000Y-111140889D01*
X133720932Y-111321529D01*
X133791414Y-111491689D01*
X133893738Y-111644828D01*
X134023972Y-111775062D01*
X134177111Y-111877386D01*
X134347271Y-111947868D01*
X134527911Y-111983800D01*
X134712089Y-111983800D01*
X134892729Y-111947868D01*
X135062889Y-111877386D01*
X135216028Y-111775062D01*
X135346262Y-111644828D01*
X135448586Y-111491689D01*
X135519068Y-111321529D01*
X135555000Y-111140889D01*
X135555000Y-110956711D01*
X135519068Y-110776071D01*
X135448586Y-110605911D01*
X135405000Y-110540680D01*
X135405000Y-108052816D01*
X138365500Y-108052816D01*
X138365500Y-108355184D01*
X138424489Y-108651743D01*
X138540201Y-108931095D01*
X138708188Y-109182505D01*
X138921995Y-109396312D01*
X139173405Y-109564299D01*
X139452757Y-109680011D01*
X139749316Y-109739000D01*
X140051684Y-109739000D01*
X140348243Y-109680011D01*
X140627595Y-109564299D01*
X140879005Y-109396312D01*
X141092812Y-109182505D01*
X141260799Y-108931095D01*
X141376511Y-108651743D01*
X141435500Y-108355184D01*
X141435500Y-108052816D01*
X145965500Y-108052816D01*
X145965500Y-108355184D01*
X146024489Y-108651743D01*
X146140201Y-108931095D01*
X146308188Y-109182505D01*
X146521995Y-109396312D01*
X146773405Y-109564299D01*
X147052757Y-109680011D01*
X147349316Y-109739000D01*
X147651684Y-109739000D01*
X147948243Y-109680011D01*
X148227595Y-109564299D01*
X148479005Y-109396312D01*
X148692812Y-109182505D01*
X148860799Y-108931095D01*
X148976511Y-108651743D01*
X149035500Y-108355184D01*
X149035500Y-108052816D01*
X148976511Y-107756257D01*
X148860799Y-107476905D01*
X148692812Y-107225495D01*
X148479005Y-107011688D01*
X148227595Y-106843701D01*
X147948243Y-106727989D01*
X147651684Y-106669000D01*
X147349316Y-106669000D01*
X147052757Y-106727989D01*
X146773405Y-106843701D01*
X146521995Y-107011688D01*
X146308188Y-107225495D01*
X146140201Y-107476905D01*
X146024489Y-107756257D01*
X145965500Y-108052816D01*
X141435500Y-108052816D01*
X141376511Y-107756257D01*
X141260799Y-107476905D01*
X141092812Y-107225495D01*
X140879005Y-107011688D01*
X140627595Y-106843701D01*
X140348243Y-106727989D01*
X140051684Y-106669000D01*
X139749316Y-106669000D01*
X139452757Y-106727989D01*
X139173405Y-106843701D01*
X138921995Y-107011688D01*
X138708188Y-107225495D01*
X138540201Y-107476905D01*
X138424489Y-107756257D01*
X138365500Y-108052816D01*
X135405000Y-108052816D01*
X135405000Y-104465157D01*
X137355784Y-102514373D01*
X137432729Y-102499068D01*
X137602889Y-102428586D01*
X137756028Y-102326262D01*
X137886262Y-102196028D01*
X137988586Y-102042889D01*
X138059068Y-101872729D01*
X138095000Y-101692089D01*
X138095000Y-101507911D01*
X138059068Y-101327271D01*
X137988586Y-101157111D01*
X137886262Y-101003972D01*
X137756028Y-100873738D01*
X137730978Y-100857000D01*
X138777172Y-100857000D01*
X138828000Y-100862006D01*
X138878828Y-100857000D01*
X138878838Y-100857000D01*
X139030895Y-100842024D01*
X139225993Y-100782841D01*
X139405797Y-100686734D01*
X139563396Y-100557396D01*
X139595807Y-100517903D01*
X140120903Y-99992807D01*
X140160396Y-99960396D01*
X140289734Y-99802797D01*
X140385841Y-99622993D01*
X140445024Y-99427895D01*
X140460000Y-99275838D01*
X140460000Y-99275829D01*
X140465006Y-99225001D01*
X140460000Y-99174173D01*
X140460000Y-98787259D01*
X143840000Y-98787259D01*
X143840000Y-99212741D01*
X143923008Y-99630049D01*
X144085833Y-100023144D01*
X144322219Y-100376920D01*
X144623080Y-100677781D01*
X144976856Y-100914167D01*
X145369951Y-101076992D01*
X145787259Y-101160000D01*
X146212741Y-101160000D01*
X146630049Y-101076992D01*
X147023144Y-100914167D01*
X147376920Y-100677781D01*
X147677781Y-100376920D01*
X147914167Y-100023144D01*
X148076992Y-99630049D01*
X148160000Y-99212741D01*
X148160000Y-98787259D01*
X148076992Y-98369951D01*
X147914167Y-97976856D01*
X147677781Y-97623080D01*
X147376920Y-97322219D01*
X147023144Y-97085833D01*
X146630049Y-96923008D01*
X146212741Y-96840000D01*
X145787259Y-96840000D01*
X145369951Y-96923008D01*
X144976856Y-97085833D01*
X144623080Y-97322219D01*
X144322219Y-97623080D01*
X144085833Y-97976856D01*
X143923008Y-98369951D01*
X143840000Y-98787259D01*
X140460000Y-98787259D01*
X140460000Y-98297036D01*
X140582157Y-98148188D01*
X140710764Y-97907580D01*
X140789960Y-97646506D01*
X140810000Y-97443036D01*
X140810000Y-97006963D01*
X140789960Y-96803493D01*
X140710764Y-96542419D01*
X140582157Y-96301812D01*
X140409080Y-96090919D01*
X140198187Y-95917843D01*
X139957580Y-95789236D01*
X139696506Y-95710040D01*
X139425000Y-95683299D01*
X139153493Y-95710040D01*
X138892419Y-95789236D01*
X138651812Y-95917843D01*
X138440919Y-96090920D01*
X138285136Y-96280741D01*
X138252636Y-96173603D01*
X138179855Y-96037440D01*
X138081909Y-95918091D01*
X137962560Y-95820145D01*
X137826397Y-95747364D01*
X137678651Y-95702545D01*
X137525000Y-95687412D01*
X136325000Y-95687412D01*
X136171349Y-95702545D01*
X136023603Y-95747364D01*
X135887440Y-95820145D01*
X135768091Y-95918091D01*
X135670145Y-96037440D01*
X135597364Y-96173603D01*
X135552545Y-96321349D01*
X135537412Y-96475000D01*
X135537412Y-97975000D01*
X135552545Y-98128651D01*
X135597364Y-98276397D01*
X135670145Y-98412560D01*
X135768091Y-98531909D01*
X135887440Y-98629855D01*
X136023603Y-98702636D01*
X136171349Y-98747455D01*
X136325000Y-98762588D01*
X137525000Y-98762588D01*
X137678651Y-98747455D01*
X137826397Y-98702636D01*
X137962560Y-98629855D01*
X138081909Y-98531909D01*
X138179855Y-98412560D01*
X138252636Y-98276397D01*
X138285136Y-98169260D01*
X138390001Y-98297036D01*
X138390001Y-98787000D01*
X134162835Y-98787000D01*
X134112000Y-98781993D01*
X134061164Y-98787000D01*
X134061162Y-98787000D01*
X133909105Y-98801976D01*
X133714007Y-98861159D01*
X133680457Y-98879092D01*
X133534202Y-98957266D01*
X133437695Y-99036468D01*
X133376604Y-99086604D01*
X133344197Y-99126092D01*
X132400097Y-100070193D01*
X132360604Y-100102604D01*
X132231266Y-100260203D01*
X132135159Y-100440008D01*
X132075976Y-100635106D01*
X132061000Y-100787163D01*
X132061000Y-100787172D01*
X132055994Y-100838000D01*
X128293000Y-100838000D01*
X128293000Y-99860556D01*
X128296797Y-99822000D01*
X128293000Y-99783440D01*
X128293000Y-99783439D01*
X128289020Y-99743026D01*
X128281642Y-99668113D01*
X128236754Y-99520140D01*
X128215366Y-99480125D01*
X128163862Y-99383767D01*
X128065764Y-99264236D01*
X128035811Y-99239654D01*
X126378121Y-97581964D01*
X129490000Y-97581964D01*
X129490000Y-98018037D01*
X129510040Y-98221507D01*
X129589236Y-98482581D01*
X129717843Y-98723188D01*
X129890920Y-98934081D01*
X130101813Y-99107157D01*
X130342420Y-99235764D01*
X130603494Y-99314960D01*
X130875000Y-99341701D01*
X131146507Y-99314960D01*
X131407581Y-99235764D01*
X131648188Y-99107157D01*
X131859081Y-98934081D01*
X132032157Y-98723188D01*
X132160764Y-98482580D01*
X132239960Y-98221506D01*
X132260000Y-98018036D01*
X132260000Y-97581963D01*
X132239960Y-97378493D01*
X132160764Y-97117419D01*
X132032157Y-96876812D01*
X131859080Y-96665919D01*
X131648187Y-96492843D01*
X131407580Y-96364236D01*
X131146506Y-96285040D01*
X130875000Y-96258299D01*
X130603493Y-96285040D01*
X130342419Y-96364236D01*
X130101812Y-96492843D01*
X129890919Y-96665920D01*
X129717843Y-96876813D01*
X129589236Y-97117420D01*
X129510040Y-97378494D01*
X129490000Y-97581964D01*
X126378121Y-97581964D01*
X125210000Y-96413843D01*
X125210000Y-96405736D01*
X125189598Y-96198592D01*
X125108973Y-95932806D01*
X124978044Y-95687856D01*
X124873115Y-95560000D01*
X144975060Y-95560000D01*
X145785863Y-95632362D01*
X145785863Y-95632362D01*
G37*
X145785863Y-95632362D02*
X146546882Y-95840554D01*
X147259011Y-96180221D01*
X147899734Y-96640628D01*
X148448797Y-97207215D01*
X148888851Y-97862086D01*
X149205982Y-98584531D01*
X149391202Y-99356025D01*
X149440001Y-100020546D01*
X149440000Y-104972494D01*
X149440000Y-104972495D01*
X149440001Y-124975049D01*
X149367638Y-125785863D01*
X149159446Y-126546882D01*
X148819779Y-127259011D01*
X148359372Y-127899733D01*
X147792781Y-128448799D01*
X147137914Y-128888851D01*
X146415468Y-129205983D01*
X145643975Y-129391202D01*
X144979468Y-129440000D01*
X95024940Y-129440000D01*
X94214137Y-129367638D01*
X93453118Y-129159446D01*
X92740989Y-128819779D01*
X92100267Y-128359372D01*
X91551201Y-127792781D01*
X91111149Y-127137914D01*
X90794017Y-126415468D01*
X90643198Y-125787259D01*
X91840000Y-125787259D01*
X91840000Y-126212741D01*
X91923008Y-126630049D01*
X92085833Y-127023144D01*
X92322219Y-127376920D01*
X92623080Y-127677781D01*
X92976856Y-127914167D01*
X93369951Y-128076992D01*
X93787259Y-128160000D01*
X94212741Y-128160000D01*
X94630049Y-128076992D01*
X95023144Y-127914167D01*
X95376920Y-127677781D01*
X95677781Y-127376920D01*
X95914167Y-127023144D01*
X96076992Y-126630049D01*
X96160000Y-126212741D01*
X96160000Y-125787259D01*
X96076992Y-125369951D01*
X95914167Y-124976856D01*
X95677781Y-124623080D01*
X95376920Y-124322219D01*
X95023144Y-124085833D01*
X94630049Y-123923008D01*
X94212741Y-123840000D01*
X93787259Y-123840000D01*
X93369951Y-123923008D01*
X92976856Y-124085833D01*
X92623080Y-124322219D01*
X92322219Y-124623080D01*
X92085833Y-124976856D01*
X91923008Y-125369951D01*
X91840000Y-125787259D01*
X90643198Y-125787259D01*
X90608798Y-125643975D01*
X90560000Y-124979468D01*
X90560000Y-117912869D01*
X90586436Y-117939305D01*
X90611023Y-117969264D01*
X90730554Y-118067362D01*
X90863823Y-118138595D01*
X90866927Y-118140254D01*
X91014900Y-118185142D01*
X91089813Y-118192520D01*
X91130226Y-118196500D01*
X91130231Y-118196500D01*
X91168787Y-118200297D01*
X91207343Y-118196500D01*
X91261392Y-118196500D01*
X91390688Y-118390005D01*
X91604495Y-118603812D01*
X91720763Y-118681500D01*
X91604495Y-118759188D01*
X91390688Y-118972995D01*
X91222701Y-119224405D01*
X91106989Y-119503757D01*
X91048000Y-119800316D01*
X91048000Y-120102684D01*
X91106989Y-120399243D01*
X91222701Y-120678595D01*
X91390688Y-120930005D01*
X91604495Y-121143812D01*
X91795536Y-121271462D01*
X91794203Y-121285000D01*
X91809359Y-121438886D01*
X91854246Y-121586859D01*
X91854247Y-121586860D01*
X91927139Y-121723233D01*
X91941836Y-121741141D01*
X92000655Y-121812812D01*
X92000659Y-121812816D01*
X92025237Y-121842764D01*
X92055185Y-121867342D01*
X92572157Y-122384315D01*
X92596736Y-122414264D01*
X92626684Y-122438842D01*
X92626687Y-122438845D01*
X92643041Y-122452266D01*
X92716267Y-122512362D01*
X92852640Y-122585254D01*
X93000613Y-122630141D01*
X93115939Y-122641500D01*
X93115946Y-122641500D01*
X93154499Y-122645297D01*
X93193052Y-122641500D01*
X97116447Y-122641500D01*
X97155000Y-122645297D01*
X97193553Y-122641500D01*
X97193561Y-122641500D01*
X97308887Y-122630141D01*
X97456860Y-122585254D01*
X97593233Y-122512362D01*
X97712764Y-122414264D01*
X97737347Y-122384310D01*
X98571811Y-121549846D01*
X98601764Y-121525264D01*
X98699862Y-121405733D01*
X98772754Y-121269360D01*
X98772754Y-121269359D01*
X98817642Y-121121387D01*
X98825020Y-121046474D01*
X98829000Y-121006061D01*
X98829000Y-121006056D01*
X98832797Y-120967500D01*
X98829000Y-120928944D01*
X98829000Y-119705157D01*
X98894500Y-119639657D01*
X98894500Y-120601908D01*
X98916710Y-120827413D01*
X99004483Y-121116761D01*
X99147019Y-121383427D01*
X99338840Y-121617161D01*
X99572574Y-121808981D01*
X99839240Y-121951517D01*
X100128588Y-122039290D01*
X100429500Y-122068927D01*
X100730413Y-122039290D01*
X101019761Y-121951517D01*
X101286427Y-121808981D01*
X101520161Y-121617161D01*
X101711981Y-121383427D01*
X101854517Y-121116761D01*
X101942290Y-120827413D01*
X101943620Y-120813906D01*
X101968053Y-120811500D01*
X101968061Y-120811500D01*
X102083387Y-120800141D01*
X102231360Y-120755254D01*
X102367733Y-120682362D01*
X102487264Y-120584264D01*
X102511847Y-120554310D01*
X104679157Y-118387000D01*
X105338843Y-118387000D01*
X106885670Y-119933828D01*
X106910248Y-119963776D01*
X106940196Y-119988354D01*
X106940199Y-119988357D01*
X106969571Y-120012462D01*
X107029779Y-120061874D01*
X107166152Y-120134766D01*
X107279684Y-120169206D01*
X107314124Y-120179653D01*
X107321567Y-120180386D01*
X107429451Y-120191012D01*
X107429458Y-120191012D01*
X107468011Y-120194809D01*
X107506564Y-120191012D01*
X111149402Y-120191012D01*
X111187955Y-120194809D01*
X111226508Y-120191012D01*
X111226516Y-120191012D01*
X111297708Y-120184000D01*
X122014847Y-120184000D01*
X122053400Y-120187797D01*
X122091953Y-120184000D01*
X122091961Y-120184000D01*
X122207287Y-120172641D01*
X122355260Y-120127754D01*
X122491633Y-120054862D01*
X122611164Y-119956764D01*
X122635746Y-119926811D01*
X123153401Y-119409157D01*
X123153402Y-122155000D01*
X116128828Y-122155000D01*
X116078000Y-122149994D01*
X116027172Y-122155000D01*
X108508828Y-122155000D01*
X108458000Y-122149994D01*
X108407172Y-122155000D01*
X101650835Y-122155000D01*
X101600000Y-122149993D01*
X101549165Y-122155000D01*
X101549162Y-122155000D01*
X101397105Y-122169976D01*
X101247415Y-122215385D01*
X101202006Y-122229159D01*
X101022202Y-122325266D01*
X100978156Y-122361414D01*
X100864604Y-122454604D01*
X100832193Y-122494097D01*
X100269097Y-123057193D01*
X100229604Y-123089604D01*
X100100266Y-123247203D01*
X100004159Y-123427008D01*
X99944976Y-123622106D01*
X99930000Y-123774163D01*
X99930000Y-123774172D01*
X99924994Y-123825000D01*
X99930000Y-123875828D01*
X99930000Y-124745183D01*
X99772688Y-124902495D01*
X99695000Y-125018763D01*
X99617312Y-124902495D01*
X99403505Y-124688688D01*
X99152095Y-124520701D01*
X98872743Y-124404989D01*
X98576184Y-124346000D01*
X98273816Y-124346000D01*
X97977257Y-124404989D01*
X97697905Y-124520701D01*
X97446495Y-124688688D01*
X97232688Y-124902495D01*
X97064701Y-125153905D01*
X96948989Y-125433257D01*
X96890000Y-125729816D01*
X96890000Y-126032184D01*
X96948989Y-126328743D01*
X97064701Y-126608095D01*
X97232688Y-126859505D01*
X97446495Y-127073312D01*
X97697905Y-127241299D01*
X97977257Y-127357011D01*
X98273816Y-127416000D01*
X98576184Y-127416000D01*
X98872743Y-127357011D01*
X99152095Y-127241299D01*
X99403505Y-127073312D01*
X99617312Y-126859505D01*
X99695000Y-126743237D01*
X99772688Y-126859505D01*
X99986495Y-127073312D01*
X100237905Y-127241299D01*
X100517257Y-127357011D01*
X100813816Y-127416000D01*
X101116184Y-127416000D01*
X101412743Y-127357011D01*
X101692095Y-127241299D01*
X101943505Y-127073312D01*
X102157312Y-126859505D01*
X102325299Y-126608095D01*
X102441011Y-126328743D01*
X102500000Y-126032184D01*
X102500000Y-125729816D01*
X102441011Y-125433257D01*
X102325299Y-125153905D01*
X102157312Y-124902495D01*
X102000000Y-124745183D01*
X102000000Y-124253710D01*
X102028710Y-124225000D01*
X107550000Y-124225000D01*
X107550001Y-124745182D01*
X107392688Y-124902495D01*
X107315000Y-125018763D01*
X107237312Y-124902495D01*
X107023505Y-124688688D01*
X106772095Y-124520701D01*
X106492743Y-124404989D01*
X106196184Y-124346000D01*
X105893816Y-124346000D01*
X105597257Y-124404989D01*
X105317905Y-124520701D01*
X105066495Y-124688688D01*
X104852688Y-124902495D01*
X104684701Y-125153905D01*
X104568989Y-125433257D01*
X104510000Y-125729816D01*
X104510000Y-126032184D01*
X104568989Y-126328743D01*
X104684701Y-126608095D01*
X104852688Y-126859505D01*
X105066495Y-127073312D01*
X105317905Y-127241299D01*
X105597257Y-127357011D01*
X105893816Y-127416000D01*
X106196184Y-127416000D01*
X106492743Y-127357011D01*
X106772095Y-127241299D01*
X107023505Y-127073312D01*
X107237312Y-126859505D01*
X107315000Y-126743237D01*
X107392688Y-126859505D01*
X107606495Y-127073312D01*
X107857905Y-127241299D01*
X108137257Y-127357011D01*
X108433816Y-127416000D01*
X108736184Y-127416000D01*
X109032743Y-127357011D01*
X109312095Y-127241299D01*
X109563505Y-127073312D01*
X109777312Y-126859505D01*
X109945299Y-126608095D01*
X110061011Y-126328743D01*
X110120000Y-126032184D01*
X110120000Y-125729816D01*
X110061011Y-125433257D01*
X109945299Y-125153905D01*
X109777312Y-124902495D01*
X109620000Y-124745183D01*
X109620000Y-124225000D01*
X115170000Y-124225000D01*
X115170001Y-124745182D01*
X115012688Y-124902495D01*
X114935000Y-125018763D01*
X114857312Y-124902495D01*
X114643505Y-124688688D01*
X114392095Y-124520701D01*
X114112743Y-124404989D01*
X113816184Y-124346000D01*
X113513816Y-124346000D01*
X113217257Y-124404989D01*
X112937905Y-124520701D01*
X112686495Y-124688688D01*
X112472688Y-124902495D01*
X112304701Y-125153905D01*
X112188989Y-125433257D01*
X112130000Y-125729816D01*
X112130000Y-126032184D01*
X112188989Y-126328743D01*
X112304701Y-126608095D01*
X112472688Y-126859505D01*
X112686495Y-127073312D01*
X112937905Y-127241299D01*
X113217257Y-127357011D01*
X113513816Y-127416000D01*
X113816184Y-127416000D01*
X114112743Y-127357011D01*
X114392095Y-127241299D01*
X114643505Y-127073312D01*
X114857312Y-126859505D01*
X114935000Y-126743237D01*
X115012688Y-126859505D01*
X115226495Y-127073312D01*
X115477905Y-127241299D01*
X115757257Y-127357011D01*
X116053816Y-127416000D01*
X116356184Y-127416000D01*
X116652743Y-127357011D01*
X116932095Y-127241299D01*
X117183505Y-127073312D01*
X117397312Y-126859505D01*
X117565299Y-126608095D01*
X117681011Y-126328743D01*
X117740000Y-126032184D01*
X117740000Y-125729816D01*
X117681011Y-125433257D01*
X117565299Y-125153905D01*
X117397312Y-124902495D01*
X117240000Y-124745183D01*
X117240000Y-124225000D01*
X122790001Y-124225000D01*
X122790000Y-124721183D01*
X122632688Y-124878495D01*
X122546982Y-125006763D01*
X122477312Y-124902495D01*
X122263505Y-124688688D01*
X122012095Y-124520701D01*
X121732743Y-124404989D01*
X121436184Y-124346000D01*
X121133816Y-124346000D01*
X120837257Y-124404989D01*
X120557905Y-124520701D01*
X120306495Y-124688688D01*
X120092688Y-124902495D01*
X119924701Y-125153905D01*
X119808989Y-125433257D01*
X119750000Y-125729816D01*
X119750000Y-126032184D01*
X119808989Y-126328743D01*
X119924701Y-126608095D01*
X120092688Y-126859505D01*
X120306495Y-127073312D01*
X120557905Y-127241299D01*
X120837257Y-127357011D01*
X121133816Y-127416000D01*
X121436184Y-127416000D01*
X121732743Y-127357011D01*
X122012095Y-127241299D01*
X122263505Y-127073312D01*
X122477312Y-126859505D01*
X122563018Y-126731237D01*
X122632688Y-126835505D01*
X122846495Y-127049312D01*
X123097905Y-127217299D01*
X123377257Y-127333011D01*
X123673816Y-127392000D01*
X123976184Y-127392000D01*
X124272743Y-127333011D01*
X124552095Y-127217299D01*
X124803505Y-127049312D01*
X125017312Y-126835505D01*
X125185299Y-126584095D01*
X125301011Y-126304743D01*
X125360000Y-126008184D01*
X125360000Y-125705816D01*
X125301011Y-125409257D01*
X125185299Y-125129905D01*
X125017312Y-124878495D01*
X124860000Y-124721183D01*
X124860000Y-124225000D01*
X130410000Y-124225000D01*
X130410001Y-124745182D01*
X130252688Y-124902495D01*
X130175000Y-125018763D01*
X130097312Y-124902495D01*
X129883505Y-124688688D01*
X129632095Y-124520701D01*
X129352743Y-124404989D01*
X129056184Y-124346000D01*
X128753816Y-124346000D01*
X128457257Y-124404989D01*
X128177905Y-124520701D01*
X127926495Y-124688688D01*
X127712688Y-124902495D01*
X127544701Y-125153905D01*
X127428989Y-125433257D01*
X127370000Y-125729816D01*
X127370000Y-126032184D01*
X127428989Y-126328743D01*
X127544701Y-126608095D01*
X127712688Y-126859505D01*
X127926495Y-127073312D01*
X128177905Y-127241299D01*
X128457257Y-127357011D01*
X128753816Y-127416000D01*
X129056184Y-127416000D01*
X129352743Y-127357011D01*
X129632095Y-127241299D01*
X129883505Y-127073312D01*
X130097312Y-126859505D01*
X130175000Y-126743237D01*
X130252688Y-126859505D01*
X130466495Y-127073312D01*
X130717905Y-127241299D01*
X130997257Y-127357011D01*
X131293816Y-127416000D01*
X131596184Y-127416000D01*
X131892743Y-127357011D01*
X132172095Y-127241299D01*
X132423505Y-127073312D01*
X132637312Y-126859505D01*
X132805299Y-126608095D01*
X132921011Y-126328743D01*
X132980000Y-126032184D01*
X132980000Y-125729816D01*
X132921011Y-125433257D01*
X132805299Y-125153905D01*
X132637312Y-124902495D01*
X132480000Y-124745183D01*
X132480000Y-124225000D01*
X137383503Y-124225000D01*
X137954843Y-124796340D01*
X137872688Y-124878495D01*
X137795000Y-124994763D01*
X137717312Y-124878495D01*
X137503505Y-124664688D01*
X137252095Y-124496701D01*
X136972743Y-124380989D01*
X136676184Y-124322000D01*
X136373816Y-124322000D01*
X136077257Y-124380989D01*
X135797905Y-124496701D01*
X135546495Y-124664688D01*
X135332688Y-124878495D01*
X135164701Y-125129905D01*
X135048989Y-125409257D01*
X134990000Y-125705816D01*
X134990000Y-126008184D01*
X135048989Y-126304743D01*
X135164701Y-126584095D01*
X135332688Y-126835505D01*
X135546495Y-127049312D01*
X135797905Y-127217299D01*
X136077257Y-127333011D01*
X136373816Y-127392000D01*
X136676184Y-127392000D01*
X136972743Y-127333011D01*
X137252095Y-127217299D01*
X137503505Y-127049312D01*
X137717312Y-126835505D01*
X137795000Y-126719237D01*
X137872688Y-126835505D01*
X138086495Y-127049312D01*
X138337905Y-127217299D01*
X138617257Y-127333011D01*
X138913816Y-127392000D01*
X139216184Y-127392000D01*
X139512743Y-127333011D01*
X139792095Y-127217299D01*
X140043505Y-127049312D01*
X140257312Y-126835505D01*
X140425299Y-126584095D01*
X140541011Y-126304743D01*
X140600000Y-126008184D01*
X140600000Y-125787259D01*
X143840000Y-125787259D01*
X143840000Y-126212741D01*
X143923008Y-126630049D01*
X144085833Y-127023144D01*
X144322219Y-127376920D01*
X144623080Y-127677781D01*
X144976856Y-127914167D01*
X145369951Y-128076992D01*
X145787259Y-128160000D01*
X146212741Y-128160000D01*
X146630049Y-128076992D01*
X147023144Y-127914167D01*
X147376920Y-127677781D01*
X147677781Y-127376920D01*
X147914167Y-127023144D01*
X148076992Y-126630049D01*
X148160000Y-126212741D01*
X148160000Y-125787259D01*
X148076992Y-125369951D01*
X147914167Y-124976856D01*
X147677781Y-124623080D01*
X147376920Y-124322219D01*
X147023144Y-124085833D01*
X146630049Y-123923008D01*
X146212741Y-123840000D01*
X145787259Y-123840000D01*
X145369951Y-123923008D01*
X144976856Y-124085833D01*
X144623080Y-124322219D01*
X144322219Y-124623080D01*
X144085833Y-124976856D01*
X143923008Y-125369951D01*
X143840000Y-125787259D01*
X140600000Y-125787259D01*
X140600000Y-125705816D01*
X140541011Y-125409257D01*
X140425299Y-125129905D01*
X140257312Y-124878495D01*
X140100000Y-124721183D01*
X140100000Y-124493614D01*
X140105006Y-124442786D01*
X140100000Y-124391958D01*
X140100000Y-124391949D01*
X140085024Y-124239892D01*
X140025841Y-124044794D01*
X139960745Y-123923008D01*
X139929734Y-123864989D01*
X139832803Y-123746879D01*
X139800396Y-123707391D01*
X139760908Y-123674984D01*
X138580020Y-122494097D01*
X138547609Y-122454604D01*
X138390010Y-122325266D01*
X138210206Y-122229159D01*
X138015108Y-122169976D01*
X137863051Y-122155000D01*
X137863041Y-122155000D01*
X137812213Y-122149994D01*
X137761385Y-122155000D01*
X132461897Y-122155000D01*
X132508860Y-122140754D01*
X132645233Y-122067862D01*
X132764764Y-121969764D01*
X132789347Y-121939810D01*
X134989157Y-119740000D01*
X138957573Y-119740000D01*
X138987210Y-120040913D01*
X139074983Y-120330261D01*
X139217519Y-120596927D01*
X139409339Y-120830661D01*
X139643073Y-121022481D01*
X139909739Y-121165017D01*
X140199087Y-121252790D01*
X140424592Y-121275000D01*
X140575408Y-121275000D01*
X140800913Y-121252790D01*
X141090261Y-121165017D01*
X141356927Y-121022481D01*
X141590661Y-120830661D01*
X141782481Y-120596927D01*
X141925017Y-120330261D01*
X142012790Y-120040913D01*
X142042427Y-119740000D01*
X142012790Y-119439087D01*
X141925017Y-119149739D01*
X141782481Y-118883073D01*
X141644695Y-118715180D01*
X141705726Y-118696667D01*
X141798668Y-118646988D01*
X141880132Y-118580132D01*
X141946988Y-118498668D01*
X141996667Y-118405726D01*
X142027258Y-118304878D01*
X142037588Y-118200000D01*
X142037588Y-116200000D01*
X142027258Y-116095122D01*
X141996667Y-115994274D01*
X141946988Y-115901332D01*
X141880132Y-115819868D01*
X141798668Y-115753012D01*
X141705726Y-115703333D01*
X141604878Y-115672742D01*
X141500000Y-115662412D01*
X139500000Y-115662412D01*
X139395122Y-115672742D01*
X139294274Y-115703333D01*
X139201332Y-115753012D01*
X139119868Y-115819868D01*
X139053012Y-115901332D01*
X139003333Y-115994274D01*
X138972742Y-116095122D01*
X138962412Y-116200000D01*
X138962412Y-118200000D01*
X138972742Y-118304878D01*
X139003333Y-118405726D01*
X139053012Y-118498668D01*
X139119868Y-118580132D01*
X139201332Y-118646988D01*
X139294274Y-118696667D01*
X139355305Y-118715180D01*
X139217519Y-118883073D01*
X139074983Y-119149739D01*
X138987210Y-119439087D01*
X138957573Y-119740000D01*
X134989157Y-119740000D01*
X135020816Y-119708342D01*
X135050764Y-119683764D01*
X135078769Y-119649641D01*
X135116557Y-119603596D01*
X135148862Y-119564233D01*
X135221754Y-119427860D01*
X135247614Y-119342612D01*
X135266641Y-119279888D01*
X135269375Y-119252125D01*
X135278000Y-119164561D01*
X135278000Y-119164554D01*
X135281797Y-119126001D01*
X135278000Y-119087448D01*
X135278000Y-113957556D01*
X135281797Y-113919000D01*
X135278000Y-113880440D01*
X135278000Y-113880439D01*
X135273087Y-113830561D01*
X135266642Y-113765113D01*
X135221754Y-113617140D01*
X135198071Y-113572832D01*
X135148862Y-113480767D01*
X135050764Y-113361236D01*
X135020811Y-113336654D01*
X128293000Y-106608843D01*
X128293000Y-100838000D01*
X132055994Y-100838000D01*
X132061000Y-100888828D01*
X132061001Y-102920838D01*
X132075977Y-103072895D01*
X132135160Y-103267993D01*
X132231267Y-103447797D01*
X132360605Y-103605396D01*
X132518204Y-103734734D01*
X132698008Y-103830841D01*
X132893106Y-103890024D01*
X133096000Y-103910007D01*
X133298895Y-103890024D01*
X133493993Y-103830841D01*
X133673797Y-103734734D01*
X133831396Y-103605396D01*
X133960734Y-103447797D01*
X134056841Y-103267993D01*
X134116024Y-103072895D01*
X134131000Y-102920838D01*
X134131000Y-101266710D01*
X134540711Y-100857000D01*
X136589022Y-100857000D01*
X136563972Y-100873738D01*
X136433738Y-101003972D01*
X136331414Y-101157111D01*
X136260932Y-101327271D01*
X136245627Y-101404216D01*
X134092190Y-103557653D01*
X134062236Y-103582236D01*
X133964138Y-103701768D01*
X133891246Y-103838141D01*
X133846359Y-103986114D01*
X133835000Y-104101440D01*
X133835000Y-104101447D01*
X133831203Y-104140000D01*
X133835000Y-104178553D01*
X133835001Y-110540678D01*
X133791414Y-110605911D01*
X133720932Y-110776071D01*
X133685000Y-110956711D01*
X133685000Y-111140889D01*
X133720932Y-111321529D01*
X133791414Y-111491689D01*
X133893738Y-111644828D01*
X134023972Y-111775062D01*
X134177111Y-111877386D01*
X134347271Y-111947868D01*
X134527911Y-111983800D01*
X134712089Y-111983800D01*
X134892729Y-111947868D01*
X135062889Y-111877386D01*
X135216028Y-111775062D01*
X135346262Y-111644828D01*
X135448586Y-111491689D01*
X135519068Y-111321529D01*
X135555000Y-111140889D01*
X135555000Y-110956711D01*
X135519068Y-110776071D01*
X135448586Y-110605911D01*
X135405000Y-110540680D01*
X135405000Y-108052816D01*
X138365500Y-108052816D01*
X138365500Y-108355184D01*
X138424489Y-108651743D01*
X138540201Y-108931095D01*
X138708188Y-109182505D01*
X138921995Y-109396312D01*
X139173405Y-109564299D01*
X139452757Y-109680011D01*
X139749316Y-109739000D01*
X140051684Y-109739000D01*
X140348243Y-109680011D01*
X140627595Y-109564299D01*
X140879005Y-109396312D01*
X141092812Y-109182505D01*
X141260799Y-108931095D01*
X141376511Y-108651743D01*
X141435500Y-108355184D01*
X141435500Y-108052816D01*
X145965500Y-108052816D01*
X145965500Y-108355184D01*
X146024489Y-108651743D01*
X146140201Y-108931095D01*
X146308188Y-109182505D01*
X146521995Y-109396312D01*
X146773405Y-109564299D01*
X147052757Y-109680011D01*
X147349316Y-109739000D01*
X147651684Y-109739000D01*
X147948243Y-109680011D01*
X148227595Y-109564299D01*
X148479005Y-109396312D01*
X148692812Y-109182505D01*
X148860799Y-108931095D01*
X148976511Y-108651743D01*
X149035500Y-108355184D01*
X149035500Y-108052816D01*
X148976511Y-107756257D01*
X148860799Y-107476905D01*
X148692812Y-107225495D01*
X148479005Y-107011688D01*
X148227595Y-106843701D01*
X147948243Y-106727989D01*
X147651684Y-106669000D01*
X147349316Y-106669000D01*
X147052757Y-106727989D01*
X146773405Y-106843701D01*
X146521995Y-107011688D01*
X146308188Y-107225495D01*
X146140201Y-107476905D01*
X146024489Y-107756257D01*
X145965500Y-108052816D01*
X141435500Y-108052816D01*
X141376511Y-107756257D01*
X141260799Y-107476905D01*
X141092812Y-107225495D01*
X140879005Y-107011688D01*
X140627595Y-106843701D01*
X140348243Y-106727989D01*
X140051684Y-106669000D01*
X139749316Y-106669000D01*
X139452757Y-106727989D01*
X139173405Y-106843701D01*
X138921995Y-107011688D01*
X138708188Y-107225495D01*
X138540201Y-107476905D01*
X138424489Y-107756257D01*
X138365500Y-108052816D01*
X135405000Y-108052816D01*
X135405000Y-104465157D01*
X137355784Y-102514373D01*
X137432729Y-102499068D01*
X137602889Y-102428586D01*
X137756028Y-102326262D01*
X137886262Y-102196028D01*
X137988586Y-102042889D01*
X138059068Y-101872729D01*
X138095000Y-101692089D01*
X138095000Y-101507911D01*
X138059068Y-101327271D01*
X137988586Y-101157111D01*
X137886262Y-101003972D01*
X137756028Y-100873738D01*
X137730978Y-100857000D01*
X138777172Y-100857000D01*
X138828000Y-100862006D01*
X138878828Y-100857000D01*
X138878838Y-100857000D01*
X139030895Y-100842024D01*
X139225993Y-100782841D01*
X139405797Y-100686734D01*
X139563396Y-100557396D01*
X139595807Y-100517903D01*
X140120903Y-99992807D01*
X140160396Y-99960396D01*
X140289734Y-99802797D01*
X140385841Y-99622993D01*
X140445024Y-99427895D01*
X140460000Y-99275838D01*
X140460000Y-99275829D01*
X140465006Y-99225001D01*
X140460000Y-99174173D01*
X140460000Y-98787259D01*
X143840000Y-98787259D01*
X143840000Y-99212741D01*
X143923008Y-99630049D01*
X144085833Y-100023144D01*
X144322219Y-100376920D01*
X144623080Y-100677781D01*
X144976856Y-100914167D01*
X145369951Y-101076992D01*
X145787259Y-101160000D01*
X146212741Y-101160000D01*
X146630049Y-101076992D01*
X147023144Y-100914167D01*
X147376920Y-100677781D01*
X147677781Y-100376920D01*
X147914167Y-100023144D01*
X148076992Y-99630049D01*
X148160000Y-99212741D01*
X148160000Y-98787259D01*
X148076992Y-98369951D01*
X147914167Y-97976856D01*
X147677781Y-97623080D01*
X147376920Y-97322219D01*
X147023144Y-97085833D01*
X146630049Y-96923008D01*
X146212741Y-96840000D01*
X145787259Y-96840000D01*
X145369951Y-96923008D01*
X144976856Y-97085833D01*
X144623080Y-97322219D01*
X144322219Y-97623080D01*
X144085833Y-97976856D01*
X143923008Y-98369951D01*
X143840000Y-98787259D01*
X140460000Y-98787259D01*
X140460000Y-98297036D01*
X140582157Y-98148188D01*
X140710764Y-97907580D01*
X140789960Y-97646506D01*
X140810000Y-97443036D01*
X140810000Y-97006963D01*
X140789960Y-96803493D01*
X140710764Y-96542419D01*
X140582157Y-96301812D01*
X140409080Y-96090919D01*
X140198187Y-95917843D01*
X139957580Y-95789236D01*
X139696506Y-95710040D01*
X139425000Y-95683299D01*
X139153493Y-95710040D01*
X138892419Y-95789236D01*
X138651812Y-95917843D01*
X138440919Y-96090920D01*
X138285136Y-96280741D01*
X138252636Y-96173603D01*
X138179855Y-96037440D01*
X138081909Y-95918091D01*
X137962560Y-95820145D01*
X137826397Y-95747364D01*
X137678651Y-95702545D01*
X137525000Y-95687412D01*
X136325000Y-95687412D01*
X136171349Y-95702545D01*
X136023603Y-95747364D01*
X135887440Y-95820145D01*
X135768091Y-95918091D01*
X135670145Y-96037440D01*
X135597364Y-96173603D01*
X135552545Y-96321349D01*
X135537412Y-96475000D01*
X135537412Y-97975000D01*
X135552545Y-98128651D01*
X135597364Y-98276397D01*
X135670145Y-98412560D01*
X135768091Y-98531909D01*
X135887440Y-98629855D01*
X136023603Y-98702636D01*
X136171349Y-98747455D01*
X136325000Y-98762588D01*
X137525000Y-98762588D01*
X137678651Y-98747455D01*
X137826397Y-98702636D01*
X137962560Y-98629855D01*
X138081909Y-98531909D01*
X138179855Y-98412560D01*
X138252636Y-98276397D01*
X138285136Y-98169260D01*
X138390001Y-98297036D01*
X138390001Y-98787000D01*
X134162835Y-98787000D01*
X134112000Y-98781993D01*
X134061164Y-98787000D01*
X134061162Y-98787000D01*
X133909105Y-98801976D01*
X133714007Y-98861159D01*
X133680457Y-98879092D01*
X133534202Y-98957266D01*
X133437695Y-99036468D01*
X133376604Y-99086604D01*
X133344197Y-99126092D01*
X132400097Y-100070193D01*
X132360604Y-100102604D01*
X132231266Y-100260203D01*
X132135159Y-100440008D01*
X132075976Y-100635106D01*
X132061000Y-100787163D01*
X132061000Y-100787172D01*
X132055994Y-100838000D01*
X128293000Y-100838000D01*
X128293000Y-99860556D01*
X128296797Y-99822000D01*
X128293000Y-99783440D01*
X128293000Y-99783439D01*
X128289020Y-99743026D01*
X128281642Y-99668113D01*
X128236754Y-99520140D01*
X128215366Y-99480125D01*
X128163862Y-99383767D01*
X128065764Y-99264236D01*
X128035811Y-99239654D01*
X126378121Y-97581964D01*
X129490000Y-97581964D01*
X129490000Y-98018037D01*
X129510040Y-98221507D01*
X129589236Y-98482581D01*
X129717843Y-98723188D01*
X129890920Y-98934081D01*
X130101813Y-99107157D01*
X130342420Y-99235764D01*
X130603494Y-99314960D01*
X130875000Y-99341701D01*
X131146507Y-99314960D01*
X131407581Y-99235764D01*
X131648188Y-99107157D01*
X131859081Y-98934081D01*
X132032157Y-98723188D01*
X132160764Y-98482580D01*
X132239960Y-98221506D01*
X132260000Y-98018036D01*
X132260000Y-97581963D01*
X132239960Y-97378493D01*
X132160764Y-97117419D01*
X132032157Y-96876812D01*
X131859080Y-96665919D01*
X131648187Y-96492843D01*
X131407580Y-96364236D01*
X131146506Y-96285040D01*
X130875000Y-96258299D01*
X130603493Y-96285040D01*
X130342419Y-96364236D01*
X130101812Y-96492843D01*
X129890919Y-96665920D01*
X129717843Y-96876813D01*
X129589236Y-97117420D01*
X129510040Y-97378494D01*
X129490000Y-97581964D01*
X126378121Y-97581964D01*
X125210000Y-96413843D01*
X125210000Y-96405736D01*
X125189598Y-96198592D01*
X125108973Y-95932806D01*
X124978044Y-95687856D01*
X124873115Y-95560000D01*
X144975060Y-95560000D01*
X145785863Y-95632362D01*
G36*
X120081956Y-95687857D02*
G01*
X119951027Y-95932807D01*
X119870402Y-96198593D01*
X119850000Y-96405737D01*
X119850000Y-96994264D01*
X119870402Y-97201408D01*
X119951027Y-97467194D01*
X120081956Y-97712144D01*
X120258157Y-97926844D01*
X120472857Y-98103044D01*
X120475001Y-98104190D01*
X120475001Y-98107438D01*
X120471203Y-98146000D01*
X120486359Y-98299886D01*
X120531246Y-98447859D01*
X120553560Y-98489605D01*
X120604139Y-98584233D01*
X120628699Y-98614159D01*
X120677655Y-98673812D01*
X120677659Y-98673816D01*
X120702237Y-98703764D01*
X120732186Y-98728343D01*
X121083649Y-99079805D01*
X121108236Y-99109764D01*
X121227767Y-99207862D01*
X121329699Y-99262345D01*
X121364140Y-99280754D01*
X121512113Y-99325642D01*
X121587026Y-99333020D01*
X121627439Y-99337000D01*
X121627444Y-99337000D01*
X121666000Y-99340797D01*
X121704556Y-99337000D01*
X124388843Y-99337000D01*
X125707000Y-100655157D01*
X125707001Y-107149437D01*
X125703203Y-107188000D01*
X125718359Y-107341886D01*
X125763246Y-107489859D01*
X125789377Y-107538746D01*
X125836139Y-107626233D01*
X125873266Y-107671472D01*
X125909655Y-107715812D01*
X125909659Y-107715816D01*
X125934237Y-107745764D01*
X125964185Y-107770342D01*
X132311000Y-114117158D01*
X132311001Y-116387841D01*
X131526243Y-117172600D01*
X127203320Y-117172600D01*
X127138089Y-117129014D01*
X126967929Y-117058532D01*
X126787289Y-117022600D01*
X126603111Y-117022600D01*
X126422471Y-117058532D01*
X126252311Y-117129014D01*
X126099172Y-117231338D01*
X125968938Y-117361572D01*
X125866614Y-117514711D01*
X125796132Y-117684871D01*
X125760200Y-117865511D01*
X125760200Y-118049689D01*
X125796132Y-118230329D01*
X125866614Y-118400489D01*
X125968938Y-118553628D01*
X126099172Y-118683862D01*
X126252311Y-118786186D01*
X126422471Y-118856668D01*
X126603111Y-118892600D01*
X126787289Y-118892600D01*
X126967929Y-118856668D01*
X127138089Y-118786186D01*
X127203320Y-118742600D01*
X131812847Y-118742600D01*
X131851400Y-118746397D01*
X131889953Y-118742600D01*
X131889961Y-118742600D01*
X132005287Y-118731241D01*
X132153260Y-118686354D01*
X132289633Y-118613462D01*
X132409164Y-118515364D01*
X132433747Y-118485410D01*
X133623815Y-117295342D01*
X133653764Y-117270764D01*
X133708001Y-117204677D01*
X133708001Y-118800841D01*
X131881843Y-120627000D01*
X127762120Y-120627000D01*
X127696889Y-120583414D01*
X127526729Y-120512932D01*
X127346089Y-120477000D01*
X127161911Y-120477000D01*
X126981271Y-120512932D01*
X126811111Y-120583414D01*
X126657972Y-120685738D01*
X126527738Y-120815972D01*
X126425414Y-120969111D01*
X126354932Y-121139271D01*
X126319000Y-121319911D01*
X126319000Y-121504089D01*
X126354932Y-121684729D01*
X126425414Y-121854889D01*
X126527738Y-122008028D01*
X126657972Y-122138262D01*
X126683022Y-122155000D01*
X125223401Y-122155000D01*
X125223401Y-117710227D01*
X125228407Y-117659399D01*
X125223401Y-117608571D01*
X125223401Y-117608562D01*
X125208425Y-117456505D01*
X125149242Y-117261407D01*
X125101774Y-117172600D01*
X125053135Y-117081602D01*
X124956204Y-116963492D01*
X124923797Y-116924004D01*
X124884309Y-116891597D01*
X124096808Y-116104097D01*
X124064397Y-116064604D01*
X123906798Y-115935266D01*
X123726994Y-115839159D01*
X123531896Y-115779976D01*
X123379839Y-115765000D01*
X123379829Y-115765000D01*
X123329001Y-115759994D01*
X123278173Y-115765000D01*
X118752711Y-115765000D01*
X118730711Y-115743000D01*
X118842079Y-115743000D01*
X119022719Y-115707068D01*
X119192879Y-115636586D01*
X119258110Y-115593000D01*
X120103447Y-115593000D01*
X120142000Y-115596797D01*
X120180553Y-115593000D01*
X120180561Y-115593000D01*
X120295887Y-115581641D01*
X120443860Y-115536754D01*
X120580233Y-115463862D01*
X120699764Y-115365764D01*
X120724347Y-115335810D01*
X121685815Y-114374343D01*
X121715764Y-114349764D01*
X121743668Y-114315764D01*
X121764450Y-114290441D01*
X121813862Y-114230233D01*
X121886754Y-114093860D01*
X121902493Y-114041976D01*
X121931642Y-113945887D01*
X121939020Y-113870974D01*
X121943000Y-113830561D01*
X121943000Y-113830556D01*
X121946797Y-113792000D01*
X121943000Y-113753440D01*
X121943000Y-112085157D01*
X124183000Y-109845157D01*
X124183001Y-111721437D01*
X124179203Y-111760000D01*
X124194359Y-111913886D01*
X124239246Y-112061859D01*
X124273177Y-112125340D01*
X124312139Y-112198233D01*
X124352690Y-112247644D01*
X124385655Y-112287812D01*
X124385659Y-112287816D01*
X124410237Y-112317764D01*
X124440185Y-112342342D01*
X128602058Y-116504216D01*
X128626636Y-116534164D01*
X128656584Y-116558742D01*
X128656587Y-116558745D01*
X128666986Y-116567279D01*
X128746167Y-116632262D01*
X128882540Y-116705154D01*
X129030513Y-116750041D01*
X129145839Y-116761400D01*
X129145846Y-116761400D01*
X129184399Y-116765197D01*
X129222952Y-116761400D01*
X130606680Y-116761400D01*
X130671911Y-116804986D01*
X130842071Y-116875468D01*
X131022711Y-116911400D01*
X131206889Y-116911400D01*
X131387529Y-116875468D01*
X131557689Y-116804986D01*
X131710828Y-116702662D01*
X131841062Y-116572428D01*
X131943386Y-116419289D01*
X132013868Y-116249129D01*
X132049800Y-116068489D01*
X132049800Y-115884311D01*
X132013868Y-115703671D01*
X131943386Y-115533511D01*
X131841062Y-115380372D01*
X131710828Y-115250138D01*
X131557689Y-115147814D01*
X131387529Y-115077332D01*
X131206889Y-115041400D01*
X131022711Y-115041400D01*
X130842071Y-115077332D01*
X130671911Y-115147814D01*
X130606680Y-115191400D01*
X129509558Y-115191400D01*
X125753000Y-111434843D01*
X125753000Y-108520462D01*
X125785000Y-108359589D01*
X125785000Y-108175411D01*
X125749068Y-107994771D01*
X125678586Y-107824611D01*
X125576262Y-107671472D01*
X125446028Y-107541238D01*
X125292889Y-107438914D01*
X125122729Y-107368432D01*
X124942089Y-107332500D01*
X124785000Y-107332500D01*
X124785000Y-103182781D01*
X124948555Y-103048555D01*
X125115382Y-102845275D01*
X125239347Y-102613353D01*
X125315683Y-102361705D01*
X125335000Y-102165578D01*
X125335000Y-101634421D01*
X125315683Y-101438294D01*
X125239347Y-101186646D01*
X125115382Y-100954725D01*
X124948555Y-100751445D01*
X124745274Y-100584618D01*
X124513353Y-100460653D01*
X124261705Y-100384317D01*
X124000000Y-100358541D01*
X123738294Y-100384317D01*
X123486646Y-100460653D01*
X123254725Y-100584618D01*
X123051445Y-100751445D01*
X122884618Y-100954726D01*
X122760653Y-101186647D01*
X122730000Y-101287697D01*
X122699347Y-101186646D01*
X122575382Y-100954725D01*
X122408555Y-100751445D01*
X122205274Y-100584618D01*
X121973353Y-100460653D01*
X121721705Y-100384317D01*
X121460000Y-100358541D01*
X121198294Y-100384317D01*
X120946646Y-100460653D01*
X120714725Y-100584618D01*
X120511445Y-100751445D01*
X120344618Y-100954726D01*
X120220653Y-101186647D01*
X120190000Y-101287697D01*
X120159347Y-101186646D01*
X120035382Y-100954725D01*
X119955000Y-100856779D01*
X119955000Y-99950827D01*
X119960006Y-99899999D01*
X119955000Y-99849171D01*
X119955000Y-99849162D01*
X119940024Y-99697105D01*
X119880841Y-99502007D01*
X119784734Y-99322203D01*
X119655396Y-99164604D01*
X119615903Y-99132193D01*
X119362807Y-98879097D01*
X119330396Y-98839604D01*
X119172797Y-98710266D01*
X118992993Y-98614159D01*
X118797895Y-98554976D01*
X118645838Y-98540000D01*
X118645828Y-98540000D01*
X118595000Y-98534994D01*
X118544172Y-98540000D01*
X117383711Y-98540000D01*
X117215000Y-98371290D01*
X117215000Y-98310537D01*
X117260726Y-98296667D01*
X117353668Y-98246988D01*
X117435132Y-98180132D01*
X117501988Y-98098668D01*
X117551667Y-98005726D01*
X117582258Y-97904878D01*
X117592588Y-97800000D01*
X117592588Y-95600000D01*
X117588648Y-95560000D01*
X120186886Y-95560000D01*
X120081956Y-95687857D01*
X120081956Y-95687857D01*
G37*
X120081956Y-95687857D02*
X119951027Y-95932807D01*
X119870402Y-96198593D01*
X119850000Y-96405737D01*
X119850000Y-96994264D01*
X119870402Y-97201408D01*
X119951027Y-97467194D01*
X120081956Y-97712144D01*
X120258157Y-97926844D01*
X120472857Y-98103044D01*
X120475001Y-98104190D01*
X120475001Y-98107438D01*
X120471203Y-98146000D01*
X120486359Y-98299886D01*
X120531246Y-98447859D01*
X120553560Y-98489605D01*
X120604139Y-98584233D01*
X120628699Y-98614159D01*
X120677655Y-98673812D01*
X120677659Y-98673816D01*
X120702237Y-98703764D01*
X120732186Y-98728343D01*
X121083649Y-99079805D01*
X121108236Y-99109764D01*
X121227767Y-99207862D01*
X121329699Y-99262345D01*
X121364140Y-99280754D01*
X121512113Y-99325642D01*
X121587026Y-99333020D01*
X121627439Y-99337000D01*
X121627444Y-99337000D01*
X121666000Y-99340797D01*
X121704556Y-99337000D01*
X124388843Y-99337000D01*
X125707000Y-100655157D01*
X125707001Y-107149437D01*
X125703203Y-107188000D01*
X125718359Y-107341886D01*
X125763246Y-107489859D01*
X125789377Y-107538746D01*
X125836139Y-107626233D01*
X125873266Y-107671472D01*
X125909655Y-107715812D01*
X125909659Y-107715816D01*
X125934237Y-107745764D01*
X125964185Y-107770342D01*
X132311000Y-114117158D01*
X132311001Y-116387841D01*
X131526243Y-117172600D01*
X127203320Y-117172600D01*
X127138089Y-117129014D01*
X126967929Y-117058532D01*
X126787289Y-117022600D01*
X126603111Y-117022600D01*
X126422471Y-117058532D01*
X126252311Y-117129014D01*
X126099172Y-117231338D01*
X125968938Y-117361572D01*
X125866614Y-117514711D01*
X125796132Y-117684871D01*
X125760200Y-117865511D01*
X125760200Y-118049689D01*
X125796132Y-118230329D01*
X125866614Y-118400489D01*
X125968938Y-118553628D01*
X126099172Y-118683862D01*
X126252311Y-118786186D01*
X126422471Y-118856668D01*
X126603111Y-118892600D01*
X126787289Y-118892600D01*
X126967929Y-118856668D01*
X127138089Y-118786186D01*
X127203320Y-118742600D01*
X131812847Y-118742600D01*
X131851400Y-118746397D01*
X131889953Y-118742600D01*
X131889961Y-118742600D01*
X132005287Y-118731241D01*
X132153260Y-118686354D01*
X132289633Y-118613462D01*
X132409164Y-118515364D01*
X132433747Y-118485410D01*
X133623815Y-117295342D01*
X133653764Y-117270764D01*
X133708001Y-117204677D01*
X133708001Y-118800841D01*
X131881843Y-120627000D01*
X127762120Y-120627000D01*
X127696889Y-120583414D01*
X127526729Y-120512932D01*
X127346089Y-120477000D01*
X127161911Y-120477000D01*
X126981271Y-120512932D01*
X126811111Y-120583414D01*
X126657972Y-120685738D01*
X126527738Y-120815972D01*
X126425414Y-120969111D01*
X126354932Y-121139271D01*
X126319000Y-121319911D01*
X126319000Y-121504089D01*
X126354932Y-121684729D01*
X126425414Y-121854889D01*
X126527738Y-122008028D01*
X126657972Y-122138262D01*
X126683022Y-122155000D01*
X125223401Y-122155000D01*
X125223401Y-117710227D01*
X125228407Y-117659399D01*
X125223401Y-117608571D01*
X125223401Y-117608562D01*
X125208425Y-117456505D01*
X125149242Y-117261407D01*
X125101774Y-117172600D01*
X125053135Y-117081602D01*
X124956204Y-116963492D01*
X124923797Y-116924004D01*
X124884309Y-116891597D01*
X124096808Y-116104097D01*
X124064397Y-116064604D01*
X123906798Y-115935266D01*
X123726994Y-115839159D01*
X123531896Y-115779976D01*
X123379839Y-115765000D01*
X123379829Y-115765000D01*
X123329001Y-115759994D01*
X123278173Y-115765000D01*
X118752711Y-115765000D01*
X118730711Y-115743000D01*
X118842079Y-115743000D01*
X119022719Y-115707068D01*
X119192879Y-115636586D01*
X119258110Y-115593000D01*
X120103447Y-115593000D01*
X120142000Y-115596797D01*
X120180553Y-115593000D01*
X120180561Y-115593000D01*
X120295887Y-115581641D01*
X120443860Y-115536754D01*
X120580233Y-115463862D01*
X120699764Y-115365764D01*
X120724347Y-115335810D01*
X121685815Y-114374343D01*
X121715764Y-114349764D01*
X121743668Y-114315764D01*
X121764450Y-114290441D01*
X121813862Y-114230233D01*
X121886754Y-114093860D01*
X121902493Y-114041976D01*
X121931642Y-113945887D01*
X121939020Y-113870974D01*
X121943000Y-113830561D01*
X121943000Y-113830556D01*
X121946797Y-113792000D01*
X121943000Y-113753440D01*
X121943000Y-112085157D01*
X124183000Y-109845157D01*
X124183001Y-111721437D01*
X124179203Y-111760000D01*
X124194359Y-111913886D01*
X124239246Y-112061859D01*
X124273177Y-112125340D01*
X124312139Y-112198233D01*
X124352690Y-112247644D01*
X124385655Y-112287812D01*
X124385659Y-112287816D01*
X124410237Y-112317764D01*
X124440185Y-112342342D01*
X128602058Y-116504216D01*
X128626636Y-116534164D01*
X128656584Y-116558742D01*
X128656587Y-116558745D01*
X128666986Y-116567279D01*
X128746167Y-116632262D01*
X128882540Y-116705154D01*
X129030513Y-116750041D01*
X129145839Y-116761400D01*
X129145846Y-116761400D01*
X129184399Y-116765197D01*
X129222952Y-116761400D01*
X130606680Y-116761400D01*
X130671911Y-116804986D01*
X130842071Y-116875468D01*
X131022711Y-116911400D01*
X131206889Y-116911400D01*
X131387529Y-116875468D01*
X131557689Y-116804986D01*
X131710828Y-116702662D01*
X131841062Y-116572428D01*
X131943386Y-116419289D01*
X132013868Y-116249129D01*
X132049800Y-116068489D01*
X132049800Y-115884311D01*
X132013868Y-115703671D01*
X131943386Y-115533511D01*
X131841062Y-115380372D01*
X131710828Y-115250138D01*
X131557689Y-115147814D01*
X131387529Y-115077332D01*
X131206889Y-115041400D01*
X131022711Y-115041400D01*
X130842071Y-115077332D01*
X130671911Y-115147814D01*
X130606680Y-115191400D01*
X129509558Y-115191400D01*
X125753000Y-111434843D01*
X125753000Y-108520462D01*
X125785000Y-108359589D01*
X125785000Y-108175411D01*
X125749068Y-107994771D01*
X125678586Y-107824611D01*
X125576262Y-107671472D01*
X125446028Y-107541238D01*
X125292889Y-107438914D01*
X125122729Y-107368432D01*
X124942089Y-107332500D01*
X124785000Y-107332500D01*
X124785000Y-103182781D01*
X124948555Y-103048555D01*
X125115382Y-102845275D01*
X125239347Y-102613353D01*
X125315683Y-102361705D01*
X125335000Y-102165578D01*
X125335000Y-101634421D01*
X125315683Y-101438294D01*
X125239347Y-101186646D01*
X125115382Y-100954725D01*
X124948555Y-100751445D01*
X124745274Y-100584618D01*
X124513353Y-100460653D01*
X124261705Y-100384317D01*
X124000000Y-100358541D01*
X123738294Y-100384317D01*
X123486646Y-100460653D01*
X123254725Y-100584618D01*
X123051445Y-100751445D01*
X122884618Y-100954726D01*
X122760653Y-101186647D01*
X122730000Y-101287697D01*
X122699347Y-101186646D01*
X122575382Y-100954725D01*
X122408555Y-100751445D01*
X122205274Y-100584618D01*
X121973353Y-100460653D01*
X121721705Y-100384317D01*
X121460000Y-100358541D01*
X121198294Y-100384317D01*
X120946646Y-100460653D01*
X120714725Y-100584618D01*
X120511445Y-100751445D01*
X120344618Y-100954726D01*
X120220653Y-101186647D01*
X120190000Y-101287697D01*
X120159347Y-101186646D01*
X120035382Y-100954725D01*
X119955000Y-100856779D01*
X119955000Y-99950827D01*
X119960006Y-99899999D01*
X119955000Y-99849171D01*
X119955000Y-99849162D01*
X119940024Y-99697105D01*
X119880841Y-99502007D01*
X119784734Y-99322203D01*
X119655396Y-99164604D01*
X119615903Y-99132193D01*
X119362807Y-98879097D01*
X119330396Y-98839604D01*
X119172797Y-98710266D01*
X118992993Y-98614159D01*
X118797895Y-98554976D01*
X118645838Y-98540000D01*
X118645828Y-98540000D01*
X118595000Y-98534994D01*
X118544172Y-98540000D01*
X117383711Y-98540000D01*
X117215000Y-98371290D01*
X117215000Y-98310537D01*
X117260726Y-98296667D01*
X117353668Y-98246988D01*
X117435132Y-98180132D01*
X117501988Y-98098668D01*
X117551667Y-98005726D01*
X117582258Y-97904878D01*
X117592588Y-97800000D01*
X117592588Y-95600000D01*
X117588648Y-95560000D01*
X120186886Y-95560000D01*
X120081956Y-95687857D01*
G36*
X114213500Y-107398857D02*
G01*
X114213500Y-107695880D01*
X114169914Y-107761111D01*
X114099432Y-107931271D01*
X114063500Y-108111911D01*
X114063500Y-108296089D01*
X114096307Y-108461018D01*
X114064729Y-108447938D01*
X113884089Y-108412006D01*
X113699911Y-108412006D01*
X113519271Y-108447938D01*
X113349111Y-108518420D01*
X113195972Y-108620744D01*
X113065738Y-108750978D01*
X112963414Y-108904117D01*
X112892932Y-109074277D01*
X112868043Y-109199400D01*
X112734711Y-109199400D01*
X112554071Y-109235332D01*
X112383911Y-109305814D01*
X112230772Y-109408138D01*
X112100538Y-109538372D01*
X111998214Y-109691511D01*
X111927732Y-109861671D01*
X111912426Y-109938617D01*
X106964435Y-114886608D01*
X102806952Y-114886608D01*
X102768396Y-114882811D01*
X102729841Y-114886608D01*
X102729835Y-114886608D01*
X102705549Y-114889000D01*
X102523915Y-114889000D01*
X102343275Y-114924932D01*
X102173115Y-114995414D01*
X102019976Y-115097738D01*
X101889742Y-115227972D01*
X101787418Y-115381111D01*
X101716936Y-115551271D01*
X101681004Y-115731911D01*
X101681004Y-115916089D01*
X101708637Y-116055008D01*
X100622544Y-116055008D01*
X100583991Y-116051211D01*
X100545438Y-116055008D01*
X100545431Y-116055008D01*
X100444482Y-116064951D01*
X100430104Y-116066367D01*
X100312615Y-116102007D01*
X100282132Y-116111254D01*
X100145759Y-116184146D01*
X100099387Y-116222203D01*
X100056179Y-116257663D01*
X100056176Y-116257666D01*
X100026228Y-116282244D01*
X100001650Y-116312192D01*
X97516185Y-118797658D01*
X97486237Y-118822236D01*
X97461659Y-118852184D01*
X97461655Y-118852188D01*
X97432666Y-118887511D01*
X97388139Y-118941767D01*
X97351226Y-119010828D01*
X97315246Y-119078141D01*
X97270359Y-119226114D01*
X97255203Y-119380000D01*
X97259001Y-119418562D01*
X97259000Y-120642343D01*
X96829843Y-121071500D01*
X93633817Y-121071500D01*
X93775312Y-120930005D01*
X93943299Y-120678595D01*
X94059011Y-120399243D01*
X94118000Y-120102684D01*
X94118000Y-119800316D01*
X94059011Y-119503757D01*
X93943299Y-119224405D01*
X93775312Y-118972995D01*
X93561505Y-118759188D01*
X93445237Y-118681500D01*
X93561505Y-118603812D01*
X93775312Y-118390005D01*
X93853000Y-118273737D01*
X93930688Y-118390005D01*
X94144495Y-118603812D01*
X94395905Y-118771799D01*
X94675257Y-118887511D01*
X94971816Y-118946500D01*
X95274184Y-118946500D01*
X95570743Y-118887511D01*
X95850095Y-118771799D01*
X96101505Y-118603812D01*
X96315312Y-118390005D01*
X96444608Y-118196500D01*
X96925947Y-118196500D01*
X96964500Y-118200297D01*
X97003053Y-118196500D01*
X97003061Y-118196500D01*
X97118387Y-118185141D01*
X97266360Y-118140254D01*
X97402733Y-118067362D01*
X97522264Y-117969264D01*
X97546847Y-117939310D01*
X98571811Y-116914346D01*
X98601764Y-116889764D01*
X98699862Y-116770233D01*
X98772754Y-116633860D01*
X98778499Y-116614922D01*
X98817642Y-116485887D01*
X98825925Y-116401776D01*
X98829000Y-116370561D01*
X98829000Y-116370556D01*
X98832797Y-116332000D01*
X98829000Y-116293444D01*
X98829000Y-112951093D01*
X98894500Y-112951093D01*
X98894500Y-114101908D01*
X98916710Y-114327413D01*
X99004483Y-114616761D01*
X99147019Y-114883427D01*
X99338840Y-115117161D01*
X99572574Y-115308981D01*
X99839240Y-115451517D01*
X100128588Y-115539290D01*
X100429500Y-115568927D01*
X100730413Y-115539290D01*
X101019761Y-115451517D01*
X101286427Y-115308981D01*
X101520161Y-115117161D01*
X101711981Y-114883427D01*
X101854517Y-114616761D01*
X101942290Y-114327413D01*
X101964500Y-114101908D01*
X101964500Y-112951092D01*
X101942290Y-112725587D01*
X101854517Y-112436239D01*
X101711981Y-112169573D01*
X101520161Y-111935839D01*
X101286426Y-111744019D01*
X101019760Y-111601483D01*
X100730412Y-111513710D01*
X100429500Y-111484073D01*
X100128587Y-111513710D01*
X99839239Y-111601483D01*
X99572573Y-111744019D01*
X99338839Y-111935839D01*
X99147019Y-112169574D01*
X99004483Y-112436240D01*
X98916710Y-112725588D01*
X98894500Y-112951093D01*
X98829000Y-112951093D01*
X98829000Y-110561157D01*
X102687146Y-106703011D01*
X109727871Y-106703011D01*
X109793102Y-106746597D01*
X109963262Y-106817079D01*
X110143902Y-106853011D01*
X110328080Y-106853011D01*
X110508720Y-106817079D01*
X110678880Y-106746597D01*
X110832019Y-106644273D01*
X110962253Y-106514039D01*
X111064577Y-106360900D01*
X111135059Y-106190740D01*
X111170991Y-106010100D01*
X111170991Y-105825922D01*
X111135059Y-105645282D01*
X111064577Y-105475122D01*
X110962253Y-105321983D01*
X110832019Y-105191749D01*
X110678880Y-105089425D01*
X110508720Y-105018943D01*
X110328080Y-104983011D01*
X110143902Y-104983011D01*
X109963262Y-105018943D01*
X109793102Y-105089425D01*
X109727871Y-105133011D01*
X102400545Y-105133011D01*
X102361989Y-105129214D01*
X102323433Y-105133011D01*
X102323428Y-105133011D01*
X102283015Y-105136991D01*
X102208102Y-105144369D01*
X102060129Y-105189257D01*
X101923756Y-105262149D01*
X101804225Y-105360247D01*
X101779642Y-105390201D01*
X97516185Y-109653658D01*
X97486237Y-109678236D01*
X97461659Y-109708184D01*
X97461655Y-109708188D01*
X97428690Y-109748356D01*
X97388139Y-109797767D01*
X97369552Y-109832541D01*
X97315246Y-109934141D01*
X97270359Y-110082114D01*
X97255203Y-110236000D01*
X97259001Y-110274563D01*
X97259000Y-116006843D01*
X96639343Y-116626500D01*
X96444608Y-116626500D01*
X96315312Y-116432995D01*
X96101505Y-116219188D01*
X95985237Y-116141500D01*
X96101505Y-116063812D01*
X96315312Y-115850005D01*
X96483299Y-115598595D01*
X96599011Y-115319243D01*
X96658000Y-115022684D01*
X96658000Y-114720316D01*
X96599011Y-114423757D01*
X96483299Y-114144405D01*
X96315312Y-113892995D01*
X96101505Y-113679188D01*
X95850095Y-113511201D01*
X95570743Y-113395489D01*
X95274184Y-113336500D01*
X94971816Y-113336500D01*
X94675257Y-113395489D01*
X94395905Y-113511201D01*
X94144495Y-113679188D01*
X94097877Y-113725806D01*
X94079667Y-113665774D01*
X94029988Y-113572832D01*
X93963132Y-113491368D01*
X93881668Y-113424512D01*
X93788726Y-113374833D01*
X93687878Y-113344242D01*
X93583000Y-113333912D01*
X93368000Y-113333912D01*
X93368000Y-111132657D01*
X100083658Y-104417000D01*
X111231643Y-104417000D01*
X114213500Y-107398857D01*
X114213500Y-107398857D01*
G37*
X114213500Y-107398857D02*
X114213500Y-107695880D01*
X114169914Y-107761111D01*
X114099432Y-107931271D01*
X114063500Y-108111911D01*
X114063500Y-108296089D01*
X114096307Y-108461018D01*
X114064729Y-108447938D01*
X113884089Y-108412006D01*
X113699911Y-108412006D01*
X113519271Y-108447938D01*
X113349111Y-108518420D01*
X113195972Y-108620744D01*
X113065738Y-108750978D01*
X112963414Y-108904117D01*
X112892932Y-109074277D01*
X112868043Y-109199400D01*
X112734711Y-109199400D01*
X112554071Y-109235332D01*
X112383911Y-109305814D01*
X112230772Y-109408138D01*
X112100538Y-109538372D01*
X111998214Y-109691511D01*
X111927732Y-109861671D01*
X111912426Y-109938617D01*
X106964435Y-114886608D01*
X102806952Y-114886608D01*
X102768396Y-114882811D01*
X102729841Y-114886608D01*
X102729835Y-114886608D01*
X102705549Y-114889000D01*
X102523915Y-114889000D01*
X102343275Y-114924932D01*
X102173115Y-114995414D01*
X102019976Y-115097738D01*
X101889742Y-115227972D01*
X101787418Y-115381111D01*
X101716936Y-115551271D01*
X101681004Y-115731911D01*
X101681004Y-115916089D01*
X101708637Y-116055008D01*
X100622544Y-116055008D01*
X100583991Y-116051211D01*
X100545438Y-116055008D01*
X100545431Y-116055008D01*
X100444482Y-116064951D01*
X100430104Y-116066367D01*
X100312615Y-116102007D01*
X100282132Y-116111254D01*
X100145759Y-116184146D01*
X100099387Y-116222203D01*
X100056179Y-116257663D01*
X100056176Y-116257666D01*
X100026228Y-116282244D01*
X100001650Y-116312192D01*
X97516185Y-118797658D01*
X97486237Y-118822236D01*
X97461659Y-118852184D01*
X97461655Y-118852188D01*
X97432666Y-118887511D01*
X97388139Y-118941767D01*
X97351226Y-119010828D01*
X97315246Y-119078141D01*
X97270359Y-119226114D01*
X97255203Y-119380000D01*
X97259001Y-119418562D01*
X97259000Y-120642343D01*
X96829843Y-121071500D01*
X93633817Y-121071500D01*
X93775312Y-120930005D01*
X93943299Y-120678595D01*
X94059011Y-120399243D01*
X94118000Y-120102684D01*
X94118000Y-119800316D01*
X94059011Y-119503757D01*
X93943299Y-119224405D01*
X93775312Y-118972995D01*
X93561505Y-118759188D01*
X93445237Y-118681500D01*
X93561505Y-118603812D01*
X93775312Y-118390005D01*
X93853000Y-118273737D01*
X93930688Y-118390005D01*
X94144495Y-118603812D01*
X94395905Y-118771799D01*
X94675257Y-118887511D01*
X94971816Y-118946500D01*
X95274184Y-118946500D01*
X95570743Y-118887511D01*
X95850095Y-118771799D01*
X96101505Y-118603812D01*
X96315312Y-118390005D01*
X96444608Y-118196500D01*
X96925947Y-118196500D01*
X96964500Y-118200297D01*
X97003053Y-118196500D01*
X97003061Y-118196500D01*
X97118387Y-118185141D01*
X97266360Y-118140254D01*
X97402733Y-118067362D01*
X97522264Y-117969264D01*
X97546847Y-117939310D01*
X98571811Y-116914346D01*
X98601764Y-116889764D01*
X98699862Y-116770233D01*
X98772754Y-116633860D01*
X98778499Y-116614922D01*
X98817642Y-116485887D01*
X98825925Y-116401776D01*
X98829000Y-116370561D01*
X98829000Y-116370556D01*
X98832797Y-116332000D01*
X98829000Y-116293444D01*
X98829000Y-112951093D01*
X98894500Y-112951093D01*
X98894500Y-114101908D01*
X98916710Y-114327413D01*
X99004483Y-114616761D01*
X99147019Y-114883427D01*
X99338840Y-115117161D01*
X99572574Y-115308981D01*
X99839240Y-115451517D01*
X100128588Y-115539290D01*
X100429500Y-115568927D01*
X100730413Y-115539290D01*
X101019761Y-115451517D01*
X101286427Y-115308981D01*
X101520161Y-115117161D01*
X101711981Y-114883427D01*
X101854517Y-114616761D01*
X101942290Y-114327413D01*
X101964500Y-114101908D01*
X101964500Y-112951092D01*
X101942290Y-112725587D01*
X101854517Y-112436239D01*
X101711981Y-112169573D01*
X101520161Y-111935839D01*
X101286426Y-111744019D01*
X101019760Y-111601483D01*
X100730412Y-111513710D01*
X100429500Y-111484073D01*
X100128587Y-111513710D01*
X99839239Y-111601483D01*
X99572573Y-111744019D01*
X99338839Y-111935839D01*
X99147019Y-112169574D01*
X99004483Y-112436240D01*
X98916710Y-112725588D01*
X98894500Y-112951093D01*
X98829000Y-112951093D01*
X98829000Y-110561157D01*
X102687146Y-106703011D01*
X109727871Y-106703011D01*
X109793102Y-106746597D01*
X109963262Y-106817079D01*
X110143902Y-106853011D01*
X110328080Y-106853011D01*
X110508720Y-106817079D01*
X110678880Y-106746597D01*
X110832019Y-106644273D01*
X110962253Y-106514039D01*
X111064577Y-106360900D01*
X111135059Y-106190740D01*
X111170991Y-106010100D01*
X111170991Y-105825922D01*
X111135059Y-105645282D01*
X111064577Y-105475122D01*
X110962253Y-105321983D01*
X110832019Y-105191749D01*
X110678880Y-105089425D01*
X110508720Y-105018943D01*
X110328080Y-104983011D01*
X110143902Y-104983011D01*
X109963262Y-105018943D01*
X109793102Y-105089425D01*
X109727871Y-105133011D01*
X102400545Y-105133011D01*
X102361989Y-105129214D01*
X102323433Y-105133011D01*
X102323428Y-105133011D01*
X102283015Y-105136991D01*
X102208102Y-105144369D01*
X102060129Y-105189257D01*
X101923756Y-105262149D01*
X101804225Y-105360247D01*
X101779642Y-105390201D01*
X97516185Y-109653658D01*
X97486237Y-109678236D01*
X97461659Y-109708184D01*
X97461655Y-109708188D01*
X97428690Y-109748356D01*
X97388139Y-109797767D01*
X97369552Y-109832541D01*
X97315246Y-109934141D01*
X97270359Y-110082114D01*
X97255203Y-110236000D01*
X97259001Y-110274563D01*
X97259000Y-116006843D01*
X96639343Y-116626500D01*
X96444608Y-116626500D01*
X96315312Y-116432995D01*
X96101505Y-116219188D01*
X95985237Y-116141500D01*
X96101505Y-116063812D01*
X96315312Y-115850005D01*
X96483299Y-115598595D01*
X96599011Y-115319243D01*
X96658000Y-115022684D01*
X96658000Y-114720316D01*
X96599011Y-114423757D01*
X96483299Y-114144405D01*
X96315312Y-113892995D01*
X96101505Y-113679188D01*
X95850095Y-113511201D01*
X95570743Y-113395489D01*
X95274184Y-113336500D01*
X94971816Y-113336500D01*
X94675257Y-113395489D01*
X94395905Y-113511201D01*
X94144495Y-113679188D01*
X94097877Y-113725806D01*
X94079667Y-113665774D01*
X94029988Y-113572832D01*
X93963132Y-113491368D01*
X93881668Y-113424512D01*
X93788726Y-113374833D01*
X93687878Y-113344242D01*
X93583000Y-113333912D01*
X93368000Y-113333912D01*
X93368000Y-111132657D01*
X100083658Y-104417000D01*
X111231643Y-104417000D01*
X114213500Y-107398857D01*
G36*
X114767412Y-95600000D02*
G01*
X114767412Y-95665000D01*
X110360835Y-95665000D01*
X110310000Y-95659993D01*
X110259165Y-95665000D01*
X110259162Y-95665000D01*
X110107105Y-95679976D01*
X109912007Y-95739159D01*
X109857383Y-95768356D01*
X109732202Y-95835266D01*
X109631280Y-95918091D01*
X109574604Y-95964604D01*
X109542197Y-96004092D01*
X106759290Y-98787000D01*
X103578841Y-98787000D01*
X103807081Y-98717764D01*
X104047688Y-98589157D01*
X104258581Y-98416081D01*
X104431657Y-98205188D01*
X104560264Y-97964580D01*
X104639460Y-97703506D01*
X104659500Y-97500036D01*
X104659500Y-97063963D01*
X104639460Y-96860493D01*
X104560264Y-96599419D01*
X104431657Y-96358812D01*
X104258580Y-96147919D01*
X104047687Y-95974843D01*
X103807080Y-95846236D01*
X103546006Y-95767040D01*
X103274500Y-95740299D01*
X103002993Y-95767040D01*
X102741919Y-95846236D01*
X102501312Y-95974843D01*
X102290419Y-96147920D01*
X102134636Y-96337741D01*
X102102136Y-96230603D01*
X102029355Y-96094440D01*
X101931409Y-95975091D01*
X101812060Y-95877145D01*
X101675897Y-95804364D01*
X101528151Y-95759545D01*
X101374500Y-95744412D01*
X100174500Y-95744412D01*
X100020849Y-95759545D01*
X99873103Y-95804364D01*
X99736940Y-95877145D01*
X99617591Y-95975091D01*
X99519645Y-96094440D01*
X99446864Y-96230603D01*
X99402045Y-96378349D01*
X99386912Y-96532000D01*
X99386912Y-98032000D01*
X99402045Y-98185651D01*
X99446864Y-98333397D01*
X99519645Y-98469560D01*
X99617591Y-98588909D01*
X99736940Y-98686855D01*
X99873103Y-98759636D01*
X99963309Y-98787000D01*
X98348827Y-98787000D01*
X98297999Y-98781994D01*
X98247171Y-98787000D01*
X98247162Y-98787000D01*
X98095105Y-98801976D01*
X97900007Y-98861159D01*
X97866457Y-98879092D01*
X97720202Y-98957266D01*
X97623695Y-99036468D01*
X97562604Y-99086604D01*
X97530197Y-99126092D01*
X90926197Y-105730093D01*
X90829266Y-105848203D01*
X90733160Y-106028007D01*
X90673977Y-106223105D01*
X90653994Y-106426000D01*
X90673977Y-106628895D01*
X90733160Y-106823993D01*
X90829266Y-107003797D01*
X90958604Y-107161396D01*
X91116203Y-107290734D01*
X91296007Y-107386840D01*
X91491105Y-107446023D01*
X91694000Y-107466006D01*
X91896895Y-107446023D01*
X92091993Y-107386840D01*
X92271797Y-107290734D01*
X92389907Y-107193803D01*
X98726711Y-100857000D01*
X107137172Y-100857000D01*
X107188000Y-100862006D01*
X107238828Y-100857000D01*
X107238838Y-100857000D01*
X107390895Y-100842024D01*
X107585993Y-100782841D01*
X107765797Y-100686734D01*
X107923396Y-100557396D01*
X107955807Y-100517903D01*
X110738711Y-97735000D01*
X114767412Y-97735000D01*
X114767412Y-97800000D01*
X114777742Y-97904878D01*
X114808333Y-98005726D01*
X114858012Y-98098668D01*
X114924868Y-98180132D01*
X115006332Y-98246988D01*
X115099274Y-98296667D01*
X115145001Y-98310538D01*
X115145001Y-98749162D01*
X115139994Y-98800000D01*
X115159977Y-99002895D01*
X115219160Y-99197993D01*
X115315266Y-99377797D01*
X115399245Y-99480125D01*
X115444605Y-99535396D01*
X115484092Y-99567802D01*
X116187196Y-100270907D01*
X116219604Y-100310396D01*
X116259092Y-100342803D01*
X116377202Y-100439734D01*
X116557006Y-100535841D01*
X116585644Y-100544528D01*
X116752105Y-100595024D01*
X116904162Y-100610000D01*
X116904165Y-100610000D01*
X116955000Y-100615007D01*
X117005835Y-100610000D01*
X117885000Y-100610000D01*
X117885000Y-100856779D01*
X117804618Y-100954726D01*
X117680653Y-101186647D01*
X117604317Y-101438295D01*
X117585000Y-101634422D01*
X117585000Y-102165579D01*
X117604317Y-102361706D01*
X117680653Y-102613354D01*
X117804618Y-102845275D01*
X117885000Y-102943221D01*
X117885001Y-109151288D01*
X116652097Y-110384193D01*
X116612604Y-110416604D01*
X116483266Y-110574203D01*
X116387159Y-110754008D01*
X116327976Y-110949106D01*
X116313000Y-111101163D01*
X116313000Y-111101172D01*
X116307994Y-111152000D01*
X116313000Y-111202828D01*
X116313001Y-114277000D01*
X111735052Y-114277000D01*
X111696499Y-114273203D01*
X111657946Y-114277000D01*
X111657939Y-114277000D01*
X111556990Y-114286943D01*
X111542612Y-114288359D01*
X111508172Y-114298806D01*
X111394640Y-114333246D01*
X111258267Y-114406138D01*
X111236799Y-114423757D01*
X111168687Y-114479655D01*
X111168684Y-114479658D01*
X111138736Y-114504236D01*
X111114158Y-114534184D01*
X109836844Y-115811499D01*
X109828113Y-115812359D01*
X109680140Y-115857246D01*
X109543767Y-115930138D01*
X109424236Y-116028236D01*
X109326138Y-116147767D01*
X109253246Y-116284140D01*
X109208359Y-116432113D01*
X109193202Y-116586000D01*
X109197000Y-116624561D01*
X109197000Y-117005869D01*
X109153414Y-117071101D01*
X109082932Y-117241261D01*
X109047000Y-117421901D01*
X109047000Y-117579000D01*
X108275150Y-117579000D01*
X107353811Y-116657662D01*
X107340374Y-116644225D01*
X107325068Y-116567279D01*
X107280426Y-116459502D01*
X107289592Y-116460405D01*
X107328145Y-116456608D01*
X107328153Y-116456608D01*
X107443479Y-116445249D01*
X107591452Y-116400362D01*
X107727825Y-116327470D01*
X107847356Y-116229372D01*
X107871939Y-116199418D01*
X113022583Y-111048774D01*
X113099529Y-111033468D01*
X113269689Y-110962986D01*
X113422828Y-110860662D01*
X113553062Y-110730428D01*
X113655386Y-110577289D01*
X113725868Y-110407129D01*
X113750757Y-110282006D01*
X113884089Y-110282006D01*
X114064729Y-110246074D01*
X114234889Y-110175592D01*
X114300120Y-110132006D01*
X115658441Y-110132006D01*
X115696994Y-110135803D01*
X115735547Y-110132006D01*
X115735555Y-110132006D01*
X115850881Y-110120647D01*
X115998854Y-110075760D01*
X116135227Y-110002868D01*
X116254758Y-109904770D01*
X116279340Y-109874817D01*
X116859815Y-109294343D01*
X116889764Y-109269764D01*
X116987862Y-109150233D01*
X117060754Y-109013860D01*
X117071741Y-108977641D01*
X117105641Y-108865888D01*
X117110929Y-108812197D01*
X117117000Y-108750561D01*
X117117000Y-108750554D01*
X117120797Y-108712001D01*
X117117000Y-108673448D01*
X117117000Y-107074152D01*
X117120797Y-107035599D01*
X117117000Y-106997046D01*
X117117000Y-106997039D01*
X117105641Y-106881713D01*
X117060754Y-106733740D01*
X116987862Y-106597367D01*
X116934330Y-106532139D01*
X116914345Y-106507787D01*
X116914342Y-106507784D01*
X116889764Y-106477836D01*
X116859817Y-106453259D01*
X112748747Y-102342190D01*
X112724164Y-102312236D01*
X112604633Y-102214138D01*
X112468260Y-102141246D01*
X112320287Y-102096359D01*
X112204961Y-102085000D01*
X112204953Y-102085000D01*
X112166400Y-102081203D01*
X112127847Y-102085000D01*
X98895356Y-102085000D01*
X98856800Y-102081203D01*
X98818244Y-102085000D01*
X98818239Y-102085000D01*
X98777826Y-102088980D01*
X98702913Y-102096358D01*
X98554940Y-102141246D01*
X98418567Y-102214138D01*
X98299036Y-102312236D01*
X98274453Y-102342190D01*
X90560000Y-110056643D01*
X90560000Y-100024940D01*
X90632362Y-99214137D01*
X90749143Y-98787259D01*
X91840000Y-98787259D01*
X91840000Y-99212741D01*
X91923008Y-99630049D01*
X92085833Y-100023144D01*
X92322219Y-100376920D01*
X92623080Y-100677781D01*
X92976856Y-100914167D01*
X93369951Y-101076992D01*
X93787259Y-101160000D01*
X94212741Y-101160000D01*
X94630049Y-101076992D01*
X95023144Y-100914167D01*
X95376920Y-100677781D01*
X95677781Y-100376920D01*
X95914167Y-100023144D01*
X96076992Y-99630049D01*
X96160000Y-99212741D01*
X96160000Y-98787259D01*
X96076992Y-98369951D01*
X95914167Y-97976856D01*
X95677781Y-97623080D01*
X95376920Y-97322219D01*
X95023144Y-97085833D01*
X94630049Y-96923008D01*
X94212741Y-96840000D01*
X93787259Y-96840000D01*
X93369951Y-96923008D01*
X92976856Y-97085833D01*
X92623080Y-97322219D01*
X92322219Y-97623080D01*
X92085833Y-97976856D01*
X91923008Y-98369951D01*
X91840000Y-98787259D01*
X90749143Y-98787259D01*
X90840554Y-98453118D01*
X91180221Y-97740989D01*
X91640628Y-97100266D01*
X92207215Y-96551203D01*
X92862086Y-96111149D01*
X93584531Y-95794018D01*
X94356025Y-95608798D01*
X95020532Y-95560000D01*
X114771352Y-95560000D01*
X114767412Y-95600000D01*
X114767412Y-95600000D01*
G37*
X114767412Y-95600000D02*
X114767412Y-95665000D01*
X110360835Y-95665000D01*
X110310000Y-95659993D01*
X110259165Y-95665000D01*
X110259162Y-95665000D01*
X110107105Y-95679976D01*
X109912007Y-95739159D01*
X109857383Y-95768356D01*
X109732202Y-95835266D01*
X109631280Y-95918091D01*
X109574604Y-95964604D01*
X109542197Y-96004092D01*
X106759290Y-98787000D01*
X103578841Y-98787000D01*
X103807081Y-98717764D01*
X104047688Y-98589157D01*
X104258581Y-98416081D01*
X104431657Y-98205188D01*
X104560264Y-97964580D01*
X104639460Y-97703506D01*
X104659500Y-97500036D01*
X104659500Y-97063963D01*
X104639460Y-96860493D01*
X104560264Y-96599419D01*
X104431657Y-96358812D01*
X104258580Y-96147919D01*
X104047687Y-95974843D01*
X103807080Y-95846236D01*
X103546006Y-95767040D01*
X103274500Y-95740299D01*
X103002993Y-95767040D01*
X102741919Y-95846236D01*
X102501312Y-95974843D01*
X102290419Y-96147920D01*
X102134636Y-96337741D01*
X102102136Y-96230603D01*
X102029355Y-96094440D01*
X101931409Y-95975091D01*
X101812060Y-95877145D01*
X101675897Y-95804364D01*
X101528151Y-95759545D01*
X101374500Y-95744412D01*
X100174500Y-95744412D01*
X100020849Y-95759545D01*
X99873103Y-95804364D01*
X99736940Y-95877145D01*
X99617591Y-95975091D01*
X99519645Y-96094440D01*
X99446864Y-96230603D01*
X99402045Y-96378349D01*
X99386912Y-96532000D01*
X99386912Y-98032000D01*
X99402045Y-98185651D01*
X99446864Y-98333397D01*
X99519645Y-98469560D01*
X99617591Y-98588909D01*
X99736940Y-98686855D01*
X99873103Y-98759636D01*
X99963309Y-98787000D01*
X98348827Y-98787000D01*
X98297999Y-98781994D01*
X98247171Y-98787000D01*
X98247162Y-98787000D01*
X98095105Y-98801976D01*
X97900007Y-98861159D01*
X97866457Y-98879092D01*
X97720202Y-98957266D01*
X97623695Y-99036468D01*
X97562604Y-99086604D01*
X97530197Y-99126092D01*
X90926197Y-105730093D01*
X90829266Y-105848203D01*
X90733160Y-106028007D01*
X90673977Y-106223105D01*
X90653994Y-106426000D01*
X90673977Y-106628895D01*
X90733160Y-106823993D01*
X90829266Y-107003797D01*
X90958604Y-107161396D01*
X91116203Y-107290734D01*
X91296007Y-107386840D01*
X91491105Y-107446023D01*
X91694000Y-107466006D01*
X91896895Y-107446023D01*
X92091993Y-107386840D01*
X92271797Y-107290734D01*
X92389907Y-107193803D01*
X98726711Y-100857000D01*
X107137172Y-100857000D01*
X107188000Y-100862006D01*
X107238828Y-100857000D01*
X107238838Y-100857000D01*
X107390895Y-100842024D01*
X107585993Y-100782841D01*
X107765797Y-100686734D01*
X107923396Y-100557396D01*
X107955807Y-100517903D01*
X110738711Y-97735000D01*
X114767412Y-97735000D01*
X114767412Y-97800000D01*
X114777742Y-97904878D01*
X114808333Y-98005726D01*
X114858012Y-98098668D01*
X114924868Y-98180132D01*
X115006332Y-98246988D01*
X115099274Y-98296667D01*
X115145001Y-98310538D01*
X115145001Y-98749162D01*
X115139994Y-98800000D01*
X115159977Y-99002895D01*
X115219160Y-99197993D01*
X115315266Y-99377797D01*
X115399245Y-99480125D01*
X115444605Y-99535396D01*
X115484092Y-99567802D01*
X116187196Y-100270907D01*
X116219604Y-100310396D01*
X116259092Y-100342803D01*
X116377202Y-100439734D01*
X116557006Y-100535841D01*
X116585644Y-100544528D01*
X116752105Y-100595024D01*
X116904162Y-100610000D01*
X116904165Y-100610000D01*
X116955000Y-100615007D01*
X117005835Y-100610000D01*
X117885000Y-100610000D01*
X117885000Y-100856779D01*
X117804618Y-100954726D01*
X117680653Y-101186647D01*
X117604317Y-101438295D01*
X117585000Y-101634422D01*
X117585000Y-102165579D01*
X117604317Y-102361706D01*
X117680653Y-102613354D01*
X117804618Y-102845275D01*
X117885000Y-102943221D01*
X117885001Y-109151288D01*
X116652097Y-110384193D01*
X116612604Y-110416604D01*
X116483266Y-110574203D01*
X116387159Y-110754008D01*
X116327976Y-110949106D01*
X116313000Y-111101163D01*
X116313000Y-111101172D01*
X116307994Y-111152000D01*
X116313000Y-111202828D01*
X116313001Y-114277000D01*
X111735052Y-114277000D01*
X111696499Y-114273203D01*
X111657946Y-114277000D01*
X111657939Y-114277000D01*
X111556990Y-114286943D01*
X111542612Y-114288359D01*
X111508172Y-114298806D01*
X111394640Y-114333246D01*
X111258267Y-114406138D01*
X111236799Y-114423757D01*
X111168687Y-114479655D01*
X111168684Y-114479658D01*
X111138736Y-114504236D01*
X111114158Y-114534184D01*
X109836844Y-115811499D01*
X109828113Y-115812359D01*
X109680140Y-115857246D01*
X109543767Y-115930138D01*
X109424236Y-116028236D01*
X109326138Y-116147767D01*
X109253246Y-116284140D01*
X109208359Y-116432113D01*
X109193202Y-116586000D01*
X109197000Y-116624561D01*
X109197000Y-117005869D01*
X109153414Y-117071101D01*
X109082932Y-117241261D01*
X109047000Y-117421901D01*
X109047000Y-117579000D01*
X108275150Y-117579000D01*
X107353811Y-116657662D01*
X107340374Y-116644225D01*
X107325068Y-116567279D01*
X107280426Y-116459502D01*
X107289592Y-116460405D01*
X107328145Y-116456608D01*
X107328153Y-116456608D01*
X107443479Y-116445249D01*
X107591452Y-116400362D01*
X107727825Y-116327470D01*
X107847356Y-116229372D01*
X107871939Y-116199418D01*
X113022583Y-111048774D01*
X113099529Y-111033468D01*
X113269689Y-110962986D01*
X113422828Y-110860662D01*
X113553062Y-110730428D01*
X113655386Y-110577289D01*
X113725868Y-110407129D01*
X113750757Y-110282006D01*
X113884089Y-110282006D01*
X114064729Y-110246074D01*
X114234889Y-110175592D01*
X114300120Y-110132006D01*
X115658441Y-110132006D01*
X115696994Y-110135803D01*
X115735547Y-110132006D01*
X115735555Y-110132006D01*
X115850881Y-110120647D01*
X115998854Y-110075760D01*
X116135227Y-110002868D01*
X116254758Y-109904770D01*
X116279340Y-109874817D01*
X116859815Y-109294343D01*
X116889764Y-109269764D01*
X116987862Y-109150233D01*
X117060754Y-109013860D01*
X117071741Y-108977641D01*
X117105641Y-108865888D01*
X117110929Y-108812197D01*
X117117000Y-108750561D01*
X117117000Y-108750554D01*
X117120797Y-108712001D01*
X117117000Y-108673448D01*
X117117000Y-107074152D01*
X117120797Y-107035599D01*
X117117000Y-106997046D01*
X117117000Y-106997039D01*
X117105641Y-106881713D01*
X117060754Y-106733740D01*
X116987862Y-106597367D01*
X116934330Y-106532139D01*
X116914345Y-106507787D01*
X116914342Y-106507784D01*
X116889764Y-106477836D01*
X116859817Y-106453259D01*
X112748747Y-102342190D01*
X112724164Y-102312236D01*
X112604633Y-102214138D01*
X112468260Y-102141246D01*
X112320287Y-102096359D01*
X112204961Y-102085000D01*
X112204953Y-102085000D01*
X112166400Y-102081203D01*
X112127847Y-102085000D01*
X98895356Y-102085000D01*
X98856800Y-102081203D01*
X98818244Y-102085000D01*
X98818239Y-102085000D01*
X98777826Y-102088980D01*
X98702913Y-102096358D01*
X98554940Y-102141246D01*
X98418567Y-102214138D01*
X98299036Y-102312236D01*
X98274453Y-102342190D01*
X90560000Y-110056643D01*
X90560000Y-100024940D01*
X90632362Y-99214137D01*
X90749143Y-98787259D01*
X91840000Y-98787259D01*
X91840000Y-99212741D01*
X91923008Y-99630049D01*
X92085833Y-100023144D01*
X92322219Y-100376920D01*
X92623080Y-100677781D01*
X92976856Y-100914167D01*
X93369951Y-101076992D01*
X93787259Y-101160000D01*
X94212741Y-101160000D01*
X94630049Y-101076992D01*
X95023144Y-100914167D01*
X95376920Y-100677781D01*
X95677781Y-100376920D01*
X95914167Y-100023144D01*
X96076992Y-99630049D01*
X96160000Y-99212741D01*
X96160000Y-98787259D01*
X96076992Y-98369951D01*
X95914167Y-97976856D01*
X95677781Y-97623080D01*
X95376920Y-97322219D01*
X95023144Y-97085833D01*
X94630049Y-96923008D01*
X94212741Y-96840000D01*
X93787259Y-96840000D01*
X93369951Y-96923008D01*
X92976856Y-97085833D01*
X92623080Y-97322219D01*
X92322219Y-97623080D01*
X92085833Y-97976856D01*
X91923008Y-98369951D01*
X91840000Y-98787259D01*
X90749143Y-98787259D01*
X90840554Y-98453118D01*
X91180221Y-97740989D01*
X91640628Y-97100266D01*
X92207215Y-96551203D01*
X92862086Y-96111149D01*
X93584531Y-95794018D01*
X94356025Y-95608798D01*
X95020532Y-95560000D01*
X114771352Y-95560000D01*
X114767412Y-95600000D01*
M02*
