G04 #@! TF.GenerationSoftware,KiCad,Pcbnew,(5.1.4)-1*
G04 #@! TF.CreationDate,2021-02-09T03:21:47-03:00*
G04 #@! TF.ProjectId,Eucalyptus,45756361-6c79-4707-9475-732e6b696361,rev?*
G04 #@! TF.SameCoordinates,Original*
G04 #@! TF.FileFunction,Copper,L1,Top*
G04 #@! TF.FilePolarity,Positive*
%FSLAX46Y46*%
G04 Gerber Fmt 4.6, Leading zero omitted, Abs format (unit mm)*
G04 Created by KiCad (PCBNEW (5.1.4)-1) date 2021-02-09 03:21:47*
%MOMM*%
%LPD*%
G04 APERTURE LIST*
%ADD10O,1.600000X2.000000*%
%ADD11R,1.600000X0.550000*%
%ADD12R,0.550000X1.600000*%
%ADD13R,1.803400X1.600200*%
%ADD14C,2.000000*%
%ADD15R,2.000000X5.000000*%
%ADD16R,1.750000X2.200000*%
%ADD17O,1.750000X2.200000*%
%ADD18R,2.000000X2.000000*%
%ADD19O,2.000000X2.000000*%
%ADD20C,3.250000*%
%ADD21C,0.100000*%
%ADD22C,1.700000*%
%ADD23O,1.700000X2.000000*%
%ADD24R,1.600200X1.803400*%
%ADD25R,1.000000X2.700000*%
%ADD26R,2.700000X1.000000*%
%ADD27C,1.600200*%
%ADD28R,1.998980X1.000760*%
%ADD29R,1.498600X1.498600*%
%ADD30R,1.000760X0.599440*%
%ADD31O,2.000000X3.000000*%
%ADD32R,2.400000X1.000000*%
%ADD33R,2.400000X3.800000*%
%ADD34R,2.000000X0.711200*%
%ADD35R,1.200000X1.000000*%
%ADD36R,1.600000X2.000000*%
%ADD37C,0.800000*%
%ADD38C,0.500000*%
%ADD39C,1.000000*%
%ADD40C,0.254000*%
G04 APERTURE END LIST*
D10*
X124000000Y-101900000D03*
X121460000Y-101900000D03*
X116380000Y-101900000D03*
X118920000Y-101900000D03*
D11*
X124250000Y-115300000D03*
X124250000Y-114500000D03*
X124250000Y-113700000D03*
X124250000Y-112900000D03*
X124250000Y-112100000D03*
X124250000Y-111300000D03*
X124250000Y-110500000D03*
X124250000Y-109700000D03*
D12*
X122800000Y-108250000D03*
X122000000Y-108250000D03*
X121200000Y-108250000D03*
X120400000Y-108250000D03*
X119600000Y-108250000D03*
X118800000Y-108250000D03*
X118000000Y-108250000D03*
X117200000Y-108250000D03*
D11*
X115750000Y-109700000D03*
X115750000Y-110500000D03*
X115750000Y-111300000D03*
X115750000Y-112100000D03*
X115750000Y-112900000D03*
X115750000Y-113700000D03*
X115750000Y-114500000D03*
X115750000Y-115300000D03*
D12*
X117200000Y-116750000D03*
X118000000Y-116750000D03*
X118800000Y-116750000D03*
X119600000Y-116750000D03*
X120400000Y-116750000D03*
X121200000Y-116750000D03*
X122000000Y-116750000D03*
X122800000Y-116750000D03*
D13*
X137604500Y-119951500D03*
X137604500Y-117157500D03*
D14*
X123825000Y-125857000D03*
D15*
X123825000Y-127357000D03*
D14*
X141605000Y-125857000D03*
D15*
X141605000Y-127357000D03*
D14*
X139065000Y-125857000D03*
D15*
X139065000Y-127357000D03*
D14*
X113665000Y-125881000D03*
D15*
X113665000Y-127381000D03*
D14*
X133985000Y-125881000D03*
D15*
X133985000Y-127381000D03*
D14*
X131445000Y-125881000D03*
D15*
X131445000Y-127381000D03*
D14*
X136525000Y-125857000D03*
D15*
X136525000Y-127357000D03*
D14*
X118745000Y-125881000D03*
D15*
X118745000Y-127381000D03*
D14*
X116205000Y-125881000D03*
D15*
X116205000Y-127381000D03*
D14*
X128905000Y-125881000D03*
D15*
X128905000Y-127381000D03*
D14*
X126365000Y-125881000D03*
D15*
X126365000Y-127381000D03*
D14*
X121285000Y-125881000D03*
D15*
X121285000Y-127381000D03*
D16*
X116180000Y-96700000D03*
D17*
X118720000Y-96700000D03*
X121260000Y-96700000D03*
X123800000Y-96700000D03*
D18*
X92583000Y-114871500D03*
D14*
X95123000Y-114871500D03*
X92583000Y-117411500D03*
X95123000Y-117411500D03*
X92583000Y-119951500D03*
X95123000Y-119951500D03*
D18*
X140500000Y-117200000D03*
D19*
X148120000Y-117200000D03*
X140500000Y-119740000D03*
X148120000Y-119740000D03*
D20*
X146000000Y-126000000D03*
X146000000Y-99000000D03*
X94000000Y-126000000D03*
X94000000Y-99000000D03*
D21*
G36*
X128999504Y-96801204D02*
G01*
X129023773Y-96804804D01*
X129047571Y-96810765D01*
X129070671Y-96819030D01*
X129092849Y-96829520D01*
X129113893Y-96842133D01*
X129133598Y-96856747D01*
X129151777Y-96873223D01*
X129168253Y-96891402D01*
X129182867Y-96911107D01*
X129195480Y-96932151D01*
X129205970Y-96954329D01*
X129214235Y-96977429D01*
X129220196Y-97001227D01*
X129223796Y-97025496D01*
X129225000Y-97050000D01*
X129225000Y-98550000D01*
X129223796Y-98574504D01*
X129220196Y-98598773D01*
X129214235Y-98622571D01*
X129205970Y-98645671D01*
X129195480Y-98667849D01*
X129182867Y-98688893D01*
X129168253Y-98708598D01*
X129151777Y-98726777D01*
X129133598Y-98743253D01*
X129113893Y-98757867D01*
X129092849Y-98770480D01*
X129070671Y-98780970D01*
X129047571Y-98789235D01*
X129023773Y-98795196D01*
X128999504Y-98798796D01*
X128975000Y-98800000D01*
X127775000Y-98800000D01*
X127750496Y-98798796D01*
X127726227Y-98795196D01*
X127702429Y-98789235D01*
X127679329Y-98780970D01*
X127657151Y-98770480D01*
X127636107Y-98757867D01*
X127616402Y-98743253D01*
X127598223Y-98726777D01*
X127581747Y-98708598D01*
X127567133Y-98688893D01*
X127554520Y-98667849D01*
X127544030Y-98645671D01*
X127535765Y-98622571D01*
X127529804Y-98598773D01*
X127526204Y-98574504D01*
X127525000Y-98550000D01*
X127525000Y-97050000D01*
X127526204Y-97025496D01*
X127529804Y-97001227D01*
X127535765Y-96977429D01*
X127544030Y-96954329D01*
X127554520Y-96932151D01*
X127567133Y-96911107D01*
X127581747Y-96891402D01*
X127598223Y-96873223D01*
X127616402Y-96856747D01*
X127636107Y-96842133D01*
X127657151Y-96829520D01*
X127679329Y-96819030D01*
X127702429Y-96810765D01*
X127726227Y-96804804D01*
X127750496Y-96801204D01*
X127775000Y-96800000D01*
X128975000Y-96800000D01*
X128999504Y-96801204D01*
X128999504Y-96801204D01*
G37*
D22*
X128375000Y-97800000D03*
D23*
X130875000Y-97800000D03*
D21*
G36*
X137549504Y-96226204D02*
G01*
X137573773Y-96229804D01*
X137597571Y-96235765D01*
X137620671Y-96244030D01*
X137642849Y-96254520D01*
X137663893Y-96267133D01*
X137683598Y-96281747D01*
X137701777Y-96298223D01*
X137718253Y-96316402D01*
X137732867Y-96336107D01*
X137745480Y-96357151D01*
X137755970Y-96379329D01*
X137764235Y-96402429D01*
X137770196Y-96426227D01*
X137773796Y-96450496D01*
X137775000Y-96475000D01*
X137775000Y-97975000D01*
X137773796Y-97999504D01*
X137770196Y-98023773D01*
X137764235Y-98047571D01*
X137755970Y-98070671D01*
X137745480Y-98092849D01*
X137732867Y-98113893D01*
X137718253Y-98133598D01*
X137701777Y-98151777D01*
X137683598Y-98168253D01*
X137663893Y-98182867D01*
X137642849Y-98195480D01*
X137620671Y-98205970D01*
X137597571Y-98214235D01*
X137573773Y-98220196D01*
X137549504Y-98223796D01*
X137525000Y-98225000D01*
X136325000Y-98225000D01*
X136300496Y-98223796D01*
X136276227Y-98220196D01*
X136252429Y-98214235D01*
X136229329Y-98205970D01*
X136207151Y-98195480D01*
X136186107Y-98182867D01*
X136166402Y-98168253D01*
X136148223Y-98151777D01*
X136131747Y-98133598D01*
X136117133Y-98113893D01*
X136104520Y-98092849D01*
X136094030Y-98070671D01*
X136085765Y-98047571D01*
X136079804Y-98023773D01*
X136076204Y-97999504D01*
X136075000Y-97975000D01*
X136075000Y-96475000D01*
X136076204Y-96450496D01*
X136079804Y-96426227D01*
X136085765Y-96402429D01*
X136094030Y-96379329D01*
X136104520Y-96357151D01*
X136117133Y-96336107D01*
X136131747Y-96316402D01*
X136148223Y-96298223D01*
X136166402Y-96281747D01*
X136186107Y-96267133D01*
X136207151Y-96254520D01*
X136229329Y-96244030D01*
X136252429Y-96235765D01*
X136276227Y-96229804D01*
X136300496Y-96226204D01*
X136325000Y-96225000D01*
X137525000Y-96225000D01*
X137549504Y-96226204D01*
X137549504Y-96226204D01*
G37*
D22*
X136925000Y-97225000D03*
D23*
X139425000Y-97225000D03*
X103274500Y-97282000D03*
D21*
G36*
X101399004Y-96283204D02*
G01*
X101423273Y-96286804D01*
X101447071Y-96292765D01*
X101470171Y-96301030D01*
X101492349Y-96311520D01*
X101513393Y-96324133D01*
X101533098Y-96338747D01*
X101551277Y-96355223D01*
X101567753Y-96373402D01*
X101582367Y-96393107D01*
X101594980Y-96414151D01*
X101605470Y-96436329D01*
X101613735Y-96459429D01*
X101619696Y-96483227D01*
X101623296Y-96507496D01*
X101624500Y-96532000D01*
X101624500Y-98032000D01*
X101623296Y-98056504D01*
X101619696Y-98080773D01*
X101613735Y-98104571D01*
X101605470Y-98127671D01*
X101594980Y-98149849D01*
X101582367Y-98170893D01*
X101567753Y-98190598D01*
X101551277Y-98208777D01*
X101533098Y-98225253D01*
X101513393Y-98239867D01*
X101492349Y-98252480D01*
X101470171Y-98262970D01*
X101447071Y-98271235D01*
X101423273Y-98277196D01*
X101399004Y-98280796D01*
X101374500Y-98282000D01*
X100174500Y-98282000D01*
X100149996Y-98280796D01*
X100125727Y-98277196D01*
X100101929Y-98271235D01*
X100078829Y-98262970D01*
X100056651Y-98252480D01*
X100035607Y-98239867D01*
X100015902Y-98225253D01*
X99997723Y-98208777D01*
X99981247Y-98190598D01*
X99966633Y-98170893D01*
X99954020Y-98149849D01*
X99943530Y-98127671D01*
X99935265Y-98104571D01*
X99929304Y-98080773D01*
X99925704Y-98056504D01*
X99924500Y-98032000D01*
X99924500Y-96532000D01*
X99925704Y-96507496D01*
X99929304Y-96483227D01*
X99935265Y-96459429D01*
X99943530Y-96436329D01*
X99954020Y-96414151D01*
X99966633Y-96393107D01*
X99981247Y-96373402D01*
X99997723Y-96355223D01*
X100015902Y-96338747D01*
X100035607Y-96324133D01*
X100056651Y-96311520D01*
X100078829Y-96301030D01*
X100101929Y-96292765D01*
X100125727Y-96286804D01*
X100149996Y-96283204D01*
X100174500Y-96282000D01*
X101374500Y-96282000D01*
X101399004Y-96283204D01*
X101399004Y-96283204D01*
G37*
D22*
X100774500Y-97282000D03*
D13*
X108204000Y-110617000D03*
X108204000Y-113411000D03*
D24*
X103730000Y-122850000D03*
X100936000Y-122850000D03*
D15*
X103505000Y-127381000D03*
D14*
X103505000Y-125881000D03*
D15*
X100965000Y-127381000D03*
D14*
X100965000Y-125881000D03*
X98425000Y-125881000D03*
D15*
X98425000Y-127381000D03*
D14*
X111125000Y-125881000D03*
D15*
X111125000Y-127381000D03*
X108585000Y-127381000D03*
D14*
X108585000Y-125881000D03*
X106045000Y-125881000D03*
D15*
X106045000Y-127381000D03*
D14*
X147500500Y-108204000D03*
X139900500Y-108204000D03*
D25*
X99060000Y-104933500D03*
X99060000Y-100933500D03*
X108585000Y-119221500D03*
X108585000Y-123221500D03*
D24*
X91694000Y-104076500D03*
X94488000Y-104076500D03*
D26*
X131794000Y-120015000D03*
X127794000Y-120015000D03*
D27*
X137922000Y-103378000D03*
D21*
G36*
X137850158Y-102174646D02*
G01*
X139125354Y-103449842D01*
X137993842Y-104581354D01*
X136718646Y-103306158D01*
X137850158Y-102174646D01*
X137850158Y-102174646D01*
G37*
D27*
X139897656Y-101402344D03*
D21*
G36*
X139825814Y-100198990D02*
G01*
X141101010Y-101474186D01*
X139969498Y-102605698D01*
X138694302Y-101330502D01*
X139825814Y-100198990D01*
X139825814Y-100198990D01*
G37*
D26*
X129553200Y-107899200D03*
X133553200Y-107899200D03*
D24*
X102184200Y-110490000D03*
X104978200Y-110490000D03*
D26*
X107982000Y-97599500D03*
X111982000Y-97599500D03*
D28*
X136245600Y-109900720D03*
X136245600Y-106202480D03*
D29*
X97917000Y-117033040D03*
X97917000Y-113538000D03*
D30*
X137170160Y-112636300D03*
X139283440Y-113588800D03*
X137170160Y-114541300D03*
D24*
X129692400Y-115468400D03*
X132486400Y-115468400D03*
D13*
X134937500Y-117157500D03*
X134937500Y-119951500D03*
X97917000Y-119253000D03*
X97917000Y-122047000D03*
X124968000Y-120269000D03*
X124968000Y-117475000D03*
D24*
X122428000Y-120904000D03*
X119634000Y-120904000D03*
X134772400Y-112877600D03*
X131978400Y-112877600D03*
X102158800Y-106527600D03*
X104952800Y-106527600D03*
D31*
X100429500Y-113526500D03*
X104929500Y-113526500D03*
X104929500Y-120026500D03*
X100429500Y-120026500D03*
D32*
X98042000Y-111710500D03*
X98042000Y-109410500D03*
X98042000Y-107110500D03*
D33*
X91592000Y-109410500D03*
D34*
X134953000Y-100838000D03*
X134953000Y-102108000D03*
X134953000Y-103378000D03*
X134953000Y-104648000D03*
X128953000Y-104648000D03*
X128953000Y-103378000D03*
X128953000Y-102108000D03*
X128953000Y-100838000D03*
X111648500Y-104648000D03*
X111648500Y-103378000D03*
X111648500Y-102108000D03*
X111648500Y-100838000D03*
X105648500Y-100838000D03*
X105648500Y-102108000D03*
X105648500Y-103378000D03*
X105648500Y-104648000D03*
D24*
X129489200Y-112928400D03*
X126695200Y-112928400D03*
X123850400Y-105968800D03*
X126644400Y-105968800D03*
D35*
X126492000Y-110693200D03*
X128092000Y-110693200D03*
X128092000Y-109493200D03*
X126492000Y-109493200D03*
D36*
X111658400Y-107739200D03*
X111658400Y-113139200D03*
D24*
X110871000Y-115887500D03*
X108077000Y-115887500D03*
X112176001Y-120197001D03*
X114970001Y-120197001D03*
X112268000Y-122936000D03*
X115062000Y-122936000D03*
D37*
X113334800Y-112928400D03*
X130556000Y-100838000D03*
X97028000Y-103124000D03*
X100838000Y-105156000D03*
X100076000Y-110744000D03*
X122174000Y-114808000D03*
X131064000Y-114046000D03*
X127508000Y-118872000D03*
X122732800Y-112115600D03*
X119126000Y-118364000D03*
X106426000Y-116840008D03*
X91694000Y-106426000D03*
X118100000Y-110500000D03*
X109982000Y-117513990D03*
X105156000Y-123190000D03*
X123037600Y-118414800D03*
X127254000Y-121412000D03*
X126695200Y-117957600D03*
X114998500Y-108204000D03*
X113792000Y-109347006D03*
X110235991Y-105918011D03*
X131114800Y-115976400D03*
X124850000Y-108267500D03*
X118749990Y-114808000D03*
X119600000Y-113758000D03*
X137160000Y-101600000D03*
X134620000Y-111048800D03*
X133096000Y-102870000D03*
X112826800Y-110134400D03*
X102616004Y-115824000D03*
D38*
X139283440Y-112789080D02*
X139283440Y-113588800D01*
X139283440Y-111439070D02*
X139283440Y-112789080D01*
X137745090Y-109900720D02*
X139283440Y-111439070D01*
X136245600Y-109900720D02*
X137745090Y-109900720D01*
X144411700Y-113588800D02*
X147500500Y-110500000D01*
X139283440Y-113588800D02*
X144411700Y-113588800D01*
X147500500Y-108204000D02*
X147500500Y-110500000D01*
D39*
X132690620Y-107815380D02*
X132683000Y-107823000D01*
X107982000Y-99028500D02*
X108013500Y-99060000D01*
X107982000Y-97599500D02*
X107982000Y-99028500D01*
X136245600Y-107702860D02*
X136245600Y-106202480D01*
X136049260Y-107899200D02*
X136245600Y-107702860D01*
X133553200Y-107899200D02*
X136049260Y-107899200D01*
X108013500Y-99060000D02*
X108948483Y-99994983D01*
X130873500Y-97801500D02*
X130875000Y-97800000D01*
X130873500Y-99568000D02*
X130873500Y-97801500D01*
X109375466Y-99568000D02*
X130873500Y-99568000D01*
X108948483Y-99994983D02*
X109375466Y-99568000D01*
X102053900Y-108458000D02*
X101854000Y-108458000D01*
X102184200Y-108588300D02*
X102053900Y-108458000D01*
X102184200Y-110490000D02*
X102184200Y-108588300D01*
X99554000Y-107110500D02*
X98042000Y-107110500D01*
X100133150Y-107689650D02*
X99554000Y-107110500D01*
X100901500Y-108458000D02*
X100133150Y-107689650D01*
X101854000Y-108458000D02*
X100901500Y-108458000D01*
X97637600Y-106706100D02*
X98042000Y-107110500D01*
X97637600Y-105308400D02*
X97637600Y-106706100D01*
X99060000Y-104933500D02*
X98012500Y-104933500D01*
X98012500Y-104933500D02*
X97637600Y-105308400D01*
X106984800Y-108458000D02*
X101854000Y-108458000D01*
X108881998Y-106560802D02*
X106984800Y-108458000D01*
X108948483Y-99994983D02*
X108881998Y-100061468D01*
X108881998Y-100061468D02*
X108881998Y-106560802D01*
X137922000Y-103378000D02*
X136652000Y-104648000D01*
X136652000Y-104648000D02*
X134953000Y-104648000D01*
X136245600Y-104702100D02*
X136245600Y-106202480D01*
X136299700Y-104648000D02*
X136245600Y-104702100D01*
X136652000Y-104648000D02*
X136299700Y-104648000D01*
X139900500Y-108204000D02*
X137922000Y-108204000D01*
X137617200Y-107899200D02*
X136049260Y-107899200D01*
X137922000Y-108204000D02*
X137617200Y-107899200D01*
X132953000Y-104648000D02*
X134953000Y-104648000D01*
X131826000Y-103521000D02*
X132953000Y-104648000D01*
X131826000Y-99885500D02*
X131826000Y-103521000D01*
X130873500Y-99568000D02*
X131508500Y-99568000D01*
X131508500Y-99568000D02*
X131826000Y-99885500D01*
X105648500Y-99482400D02*
X106070900Y-99060000D01*
X105648500Y-100838000D02*
X105648500Y-99482400D01*
X106070900Y-99060000D02*
X108013500Y-99060000D01*
D38*
X124250000Y-112100000D02*
X122748400Y-112100000D01*
X122748400Y-112100000D02*
X122732800Y-112115600D01*
X115750000Y-112900000D02*
X117720800Y-112900000D01*
X117720800Y-112900000D02*
X117800000Y-112979200D01*
X115750000Y-112900000D02*
X113363200Y-112900000D01*
X113363200Y-112900000D02*
X113334800Y-112928400D01*
X112176001Y-122844001D02*
X112268000Y-122936000D01*
X112176001Y-120197001D02*
X112176001Y-122844001D01*
X124250000Y-113700000D02*
X122266000Y-113700000D01*
X122174000Y-113792000D02*
X122174000Y-114808000D01*
X122266000Y-113700000D02*
X122174000Y-113792000D01*
X120400000Y-116750000D02*
X120400000Y-118050000D01*
X119691685Y-118364000D02*
X119126000Y-118364000D01*
X120086000Y-118364000D02*
X119691685Y-118364000D01*
X120400000Y-118050000D02*
X120086000Y-118364000D01*
X109220000Y-115887500D02*
X108077000Y-115887500D01*
X110634800Y-113139200D02*
X110013750Y-113760250D01*
X111658400Y-113139200D02*
X110634800Y-113139200D01*
X110013750Y-113760250D02*
X110013750Y-114113052D01*
X110013750Y-114113052D02*
X109347000Y-114779802D01*
X109347000Y-114779802D02*
X109347000Y-115760500D01*
X109347000Y-115760500D02*
X109220000Y-115887500D01*
X106426000Y-116238400D02*
X106426000Y-116274323D01*
X106776900Y-115887500D02*
X106426000Y-116238400D01*
X106426000Y-116274323D02*
X106426000Y-116840008D01*
X108077000Y-115887500D02*
X106776900Y-115887500D01*
X134937500Y-119951500D02*
X137604500Y-119951500D01*
X139065000Y-127357000D02*
X139065000Y-123063000D01*
X137604500Y-121602500D02*
X137604500Y-119951500D01*
X139065000Y-123063000D02*
X137604500Y-121602500D01*
D39*
X91592000Y-109410500D02*
X94932500Y-109410500D01*
X94932500Y-109410500D02*
X98042000Y-109410500D01*
X95123000Y-114871500D02*
X94932500Y-114681000D01*
D38*
X131857500Y-119951500D02*
X131794000Y-120015000D01*
X134937500Y-119951500D02*
X131857500Y-119951500D01*
X108585000Y-123221500D02*
X108585000Y-127381000D01*
X95123000Y-113538000D02*
X94932500Y-113728500D01*
X97917000Y-113538000D02*
X95123000Y-113538000D01*
D39*
X94932500Y-114681000D02*
X94932500Y-113728500D01*
X94932500Y-113728500D02*
X94932500Y-109410500D01*
D38*
X123355999Y-112965601D02*
X122008001Y-112965601D01*
X124250000Y-112900000D02*
X123421600Y-112900000D01*
X123421600Y-112900000D02*
X123355999Y-112965601D01*
X122008001Y-112965601D02*
X121513600Y-112471200D01*
X124175001Y-111225001D02*
X124250000Y-111300000D01*
X121946999Y-111225001D02*
X124175001Y-111225001D01*
X121513600Y-111658400D02*
X121946999Y-111225001D01*
X121513600Y-111912400D02*
X120802400Y-111912400D01*
X121513600Y-111912400D02*
X121513600Y-111658400D01*
X121513600Y-112471200D02*
X121513600Y-111912400D01*
X119390000Y-110500000D02*
X118100000Y-110500000D01*
X120802400Y-111912400D02*
X119390000Y-110500000D01*
D39*
X91694000Y-109308500D02*
X91592000Y-109410500D01*
X91694000Y-106426000D02*
X91694000Y-109308500D01*
X91694000Y-104076500D02*
X91694000Y-106426000D01*
D38*
X118100000Y-110500000D02*
X115750000Y-110500000D01*
X110646210Y-117513990D02*
X110547685Y-117513990D01*
X110871000Y-115887500D02*
X110871000Y-117289200D01*
X110871000Y-117289200D02*
X110646210Y-117513990D01*
X110547685Y-117513990D02*
X109982000Y-117513990D01*
X104816000Y-122850000D02*
X105156000Y-123190000D01*
X103730000Y-122850000D02*
X104816000Y-122850000D01*
X114970001Y-122844001D02*
X115062000Y-122936000D01*
X114970001Y-120197001D02*
X114970001Y-122844001D01*
X116205000Y-127381000D02*
X116205000Y-125095000D01*
X115062000Y-124337700D02*
X115062000Y-122936000D01*
X115819300Y-125095000D02*
X115062000Y-124337700D01*
X116205000Y-125095000D02*
X115819300Y-125095000D01*
D39*
X100429500Y-113526500D02*
X100429500Y-120026500D01*
D38*
X100936000Y-120533000D02*
X100429500Y-120026500D01*
X100936000Y-122850000D02*
X100936000Y-120533000D01*
X122800000Y-118177200D02*
X123037600Y-118414800D01*
X122800000Y-116750000D02*
X122800000Y-118177200D01*
X114450000Y-112100000D02*
X115750000Y-112100000D01*
X113802437Y-112100000D02*
X114450000Y-112100000D01*
X108204000Y-112268000D02*
X108458000Y-112014000D01*
X108204000Y-113411000D02*
X108204000Y-112268000D01*
X108458000Y-112014000D02*
X110045500Y-112014000D01*
X110045500Y-112014000D02*
X110807500Y-111252000D01*
X110807500Y-111252000D02*
X112954437Y-111252000D01*
X112954437Y-111252000D02*
X113802437Y-112100000D01*
X124250000Y-110500000D02*
X125587600Y-110500000D01*
X125780800Y-110693200D02*
X126492000Y-110693200D01*
X125587600Y-110500000D02*
X125780800Y-110693200D01*
X126492000Y-110693200D02*
X126492000Y-111455200D01*
X126695200Y-111526700D02*
X126695200Y-112928400D01*
X126623700Y-111455200D02*
X126695200Y-111526700D01*
X126492000Y-111455200D02*
X126623700Y-111455200D01*
X126492000Y-109493200D02*
X125812400Y-109493200D01*
X125605600Y-109700000D02*
X124250000Y-109700000D01*
X125812400Y-109493200D02*
X125605600Y-109700000D01*
X125150500Y-105968800D02*
X123850400Y-105968800D01*
X125394299Y-106212599D02*
X125150500Y-105968800D01*
X125394299Y-107395499D02*
X125394299Y-106212599D01*
X126492000Y-108493200D02*
X125394299Y-107395499D01*
X126492000Y-109493200D02*
X126492000Y-108493200D01*
X97917000Y-117033040D02*
X97917000Y-119253000D01*
X126854001Y-121811999D02*
X127254000Y-121412000D01*
X124097999Y-121811999D02*
X126854001Y-121811999D01*
X122428000Y-120904000D02*
X123190000Y-120904000D01*
X123190000Y-120904000D02*
X124097999Y-121811999D01*
X124968000Y-117475000D02*
X126212600Y-117475000D01*
X126212600Y-117475000D02*
X126695200Y-117957600D01*
X113665000Y-127381000D02*
X114754999Y-126291001D01*
X113665000Y-115285000D02*
X113665000Y-125881000D01*
X115750000Y-114500000D02*
X114450000Y-114500000D01*
X114450000Y-114500000D02*
X113665000Y-115285000D01*
X121285000Y-124460000D02*
X121285000Y-127381000D01*
X121031000Y-124206000D02*
X121285000Y-124460000D01*
X115780000Y-115330000D02*
X115780000Y-116600000D01*
X115750000Y-115300000D02*
X115780000Y-115330000D01*
X115780000Y-116600000D02*
X116474999Y-117294999D01*
X116474999Y-117294999D02*
X116474999Y-122874999D01*
X116474999Y-122874999D02*
X117806000Y-124206000D01*
X117806000Y-124206000D02*
X121031000Y-124206000D01*
X117200000Y-116750000D02*
X117200000Y-122280000D01*
X117200000Y-122280000D02*
X118390013Y-123470013D01*
X128905000Y-124381000D02*
X128905000Y-127381000D01*
X118390013Y-123470013D02*
X127994013Y-123470013D01*
X127994013Y-123470013D02*
X128905000Y-124381000D01*
X136525000Y-124442787D02*
X136525000Y-125857000D01*
X134852215Y-122770002D02*
X136525000Y-124442787D01*
X118960002Y-122770002D02*
X134852215Y-122770002D01*
X118000000Y-116750000D02*
X118000000Y-121810000D01*
X118000000Y-121810000D02*
X118960002Y-122770002D01*
X117200000Y-108250000D02*
X115044500Y-108250000D01*
X115044500Y-108250000D02*
X114998500Y-108204000D01*
X91122500Y-117411500D02*
X92583000Y-117411500D01*
X90678000Y-117856000D02*
X91122500Y-117411500D01*
X90678000Y-121158000D02*
X90678000Y-117856000D01*
X97917000Y-122047000D02*
X91567000Y-122047000D01*
X91567000Y-122047000D02*
X90678000Y-121158000D01*
X115750000Y-109700000D02*
X114144994Y-109700000D01*
X114144994Y-109700000D02*
X113792000Y-109347006D01*
X118000000Y-106951000D02*
X118000000Y-108250000D01*
X111648500Y-103378000D02*
X114427000Y-103378000D01*
X114427000Y-103378000D02*
X118000000Y-106951000D01*
X110148500Y-103378000D02*
X109835992Y-103690508D01*
X111648500Y-103378000D02*
X110148500Y-103378000D01*
X109835992Y-103690508D02*
X109835992Y-105518012D01*
X109835992Y-105518012D02*
X110235991Y-105918011D01*
X131114800Y-115539900D02*
X131114800Y-115976400D01*
X132486400Y-115468400D02*
X131186300Y-115468400D01*
X131186300Y-115468400D02*
X131114800Y-115539900D01*
X122800000Y-108250000D02*
X124832500Y-108250000D01*
X124832500Y-108250000D02*
X124850000Y-108267500D01*
X133786500Y-115468400D02*
X132486400Y-115468400D01*
X134497700Y-114757200D02*
X133786500Y-115468400D01*
X135404602Y-114757200D02*
X134497700Y-114757200D01*
X137170160Y-112636300D02*
X137170160Y-113527840D01*
X136906421Y-113791579D02*
X136309779Y-113791579D01*
X136309779Y-113791579D02*
X136309358Y-113792000D01*
X137170160Y-113527840D02*
X136906421Y-113791579D01*
X136309358Y-113792000D02*
X136309358Y-113852444D01*
X136309358Y-113852444D02*
X135404602Y-114757200D01*
X137604500Y-118457600D02*
X137604500Y-117157500D01*
X137507600Y-118554500D02*
X137604500Y-118457600D01*
X128804500Y-118554500D02*
X137507600Y-118554500D01*
X125550000Y-115300000D02*
X128804500Y-118554500D01*
X124250000Y-115300000D02*
X125550000Y-115300000D01*
X139085787Y-119740000D02*
X140500000Y-119740000D01*
X139060001Y-119714214D02*
X139085787Y-119740000D01*
X139060001Y-118740001D02*
X139060001Y-119714214D01*
X138874500Y-118554500D02*
X139060001Y-118740001D01*
X137507600Y-118554500D02*
X138874500Y-118554500D01*
X125550000Y-114500000D02*
X124250000Y-114500000D01*
X125739963Y-114500000D02*
X125550000Y-114500000D01*
X128397463Y-117157500D02*
X125739963Y-114500000D01*
X134937500Y-117157500D02*
X128397463Y-117157500D01*
X134937500Y-116078000D02*
X134937500Y-117157500D01*
X135572500Y-115443000D02*
X134937500Y-116078000D01*
X139890500Y-115443000D02*
X135572500Y-115443000D01*
X140500000Y-117200000D02*
X140500000Y-116052500D01*
X140500000Y-116052500D02*
X139890500Y-115443000D01*
X122000000Y-118952000D02*
X122428000Y-119380000D01*
X122000000Y-116750000D02*
X122000000Y-118952000D01*
X124079000Y-119380000D02*
X124968000Y-120269000D01*
X122428000Y-119380000D02*
X124079000Y-119380000D01*
X121200000Y-118830000D02*
X120777000Y-119253000D01*
X121200000Y-116750000D02*
X121200000Y-118830000D01*
X119634000Y-119502300D02*
X119634000Y-120904000D01*
X119883300Y-119253000D02*
X119634000Y-119502300D01*
X120777000Y-119253000D02*
X119883300Y-119253000D01*
X118800000Y-116750000D02*
X118800000Y-114858010D01*
X118800000Y-114858010D02*
X118749990Y-114808000D01*
X119600000Y-116750000D02*
X119600000Y-113758000D01*
X134953000Y-102108000D02*
X136652000Y-102108000D01*
X136652000Y-102108000D02*
X137160000Y-101600000D01*
X134620000Y-112725200D02*
X134772400Y-112877600D01*
X134620000Y-111048800D02*
X134620000Y-112725200D01*
X105648500Y-103378000D02*
X107148500Y-103378000D01*
X104952800Y-106527600D02*
X107188000Y-106527600D01*
X107676250Y-106039350D02*
X107676250Y-103905750D01*
X107188000Y-106527600D02*
X107676250Y-106039350D01*
X107148500Y-103378000D02*
X107676250Y-103905750D01*
X126238000Y-103378000D02*
X128953000Y-103378000D01*
X125069600Y-104546400D02*
X126238000Y-103378000D01*
X122834400Y-104546400D02*
X125069600Y-104546400D01*
X122000000Y-108250000D02*
X122000000Y-105380800D01*
X122000000Y-105380800D02*
X122834400Y-104546400D01*
X119600000Y-104580400D02*
X119600000Y-108250000D01*
X120677881Y-103502519D02*
X119600000Y-104580400D01*
X124457519Y-103502519D02*
X120677881Y-103502519D01*
X128953000Y-102108000D02*
X125852038Y-102108000D01*
X125852038Y-102108000D02*
X124457519Y-103502519D01*
X113148500Y-102108000D02*
X111648500Y-102108000D01*
X114173000Y-102108000D02*
X113148500Y-102108000D01*
X118800000Y-108250000D02*
X118800000Y-106735000D01*
X118800000Y-106735000D02*
X114173000Y-102108000D01*
D39*
X134953000Y-100838000D02*
X136144000Y-100838000D01*
X136925000Y-100057000D02*
X136925000Y-97225000D01*
X136144000Y-100838000D02*
X136925000Y-100057000D01*
X133096000Y-102870000D02*
X133096000Y-103093930D01*
X133380070Y-103378000D02*
X134953000Y-103378000D01*
X133096000Y-103093930D02*
X133380070Y-103378000D01*
X104394000Y-102108000D02*
X103274500Y-100988500D01*
X105648500Y-102108000D02*
X104394000Y-102108000D01*
X103274500Y-100988500D02*
X103274500Y-97282000D01*
X100774500Y-97282000D02*
X100774500Y-102679500D01*
X102743000Y-104648000D02*
X105648500Y-104648000D01*
X100774500Y-102679500D02*
X102743000Y-104648000D01*
D38*
X113992400Y-111300000D02*
X112826800Y-110134400D01*
X115750000Y-111300000D02*
X113992400Y-111300000D01*
X98425000Y-127381000D02*
X98425000Y-124381000D01*
X98425000Y-124381000D02*
X98604299Y-124201701D01*
X102096101Y-124201701D02*
X102215997Y-124081805D01*
X102215997Y-124081805D02*
X102215997Y-116224007D01*
X102216005Y-116223999D02*
X102616004Y-115824000D01*
X102215997Y-116224007D02*
X102216005Y-116223999D01*
X98604299Y-124201701D02*
X102096101Y-124201701D01*
X106045000Y-123825000D02*
X106045000Y-127381000D01*
X106045000Y-122701500D02*
X106045000Y-123825000D01*
X109410500Y-121285000D02*
X107461500Y-121285000D01*
X113707602Y-113700000D02*
X112649000Y-114758602D01*
X115750000Y-113700000D02*
X113707602Y-113700000D01*
X112649000Y-114758602D02*
X112649000Y-117030500D01*
X107461500Y-121285000D02*
X106045000Y-122701500D01*
X112649000Y-117030500D02*
X110426500Y-119253000D01*
X110426500Y-119253000D02*
X110426500Y-120269000D01*
X110426500Y-120269000D02*
X109410500Y-121285000D01*
D40*
G36*
X117767439Y-124991000D02*
G01*
X117767444Y-124991000D01*
X117806000Y-124994797D01*
X117844556Y-124991000D01*
X119747412Y-124991000D01*
X119747412Y-129440000D01*
X117742588Y-129440000D01*
X117742588Y-124988552D01*
X117767439Y-124991000D01*
X117767439Y-124991000D01*
G37*
X117767439Y-124991000D02*
X117767444Y-124991000D01*
X117806000Y-124994797D01*
X117844556Y-124991000D01*
X119747412Y-124991000D01*
X119747412Y-129440000D01*
X117742588Y-129440000D01*
X117742588Y-124988552D01*
X117767439Y-124991000D01*
G36*
X105063911Y-124125000D02*
G01*
X105248089Y-124125000D01*
X105260000Y-124122631D01*
X105260000Y-124343412D01*
X105045000Y-124343412D01*
X104940122Y-124353742D01*
X104839274Y-124384333D01*
X104746332Y-124434012D01*
X104664868Y-124500868D01*
X104598012Y-124582332D01*
X104548333Y-124675274D01*
X104517742Y-124776122D01*
X104507412Y-124881000D01*
X104507412Y-129440000D01*
X102502588Y-129440000D01*
X102502588Y-124881000D01*
X102501983Y-124874855D01*
X102534334Y-124857563D01*
X102653865Y-124759465D01*
X102678449Y-124729509D01*
X102743804Y-124664154D01*
X102773761Y-124639569D01*
X102871859Y-124520038D01*
X102944751Y-124383665D01*
X102961108Y-124329742D01*
X102973380Y-124289288D01*
X104530100Y-124289288D01*
X104634978Y-124278958D01*
X104735826Y-124248367D01*
X104828768Y-124198688D01*
X104910232Y-124131832D01*
X104936619Y-124099680D01*
X105063911Y-124125000D01*
X105063911Y-124125000D01*
G37*
X105063911Y-124125000D02*
X105248089Y-124125000D01*
X105260000Y-124122631D01*
X105260000Y-124343412D01*
X105045000Y-124343412D01*
X104940122Y-124353742D01*
X104839274Y-124384333D01*
X104746332Y-124434012D01*
X104664868Y-124500868D01*
X104598012Y-124582332D01*
X104548333Y-124675274D01*
X104517742Y-124776122D01*
X104507412Y-124881000D01*
X104507412Y-129440000D01*
X102502588Y-129440000D01*
X102502588Y-124881000D01*
X102501983Y-124874855D01*
X102534334Y-124857563D01*
X102653865Y-124759465D01*
X102678449Y-124729509D01*
X102743804Y-124664154D01*
X102773761Y-124639569D01*
X102871859Y-124520038D01*
X102944751Y-124383665D01*
X102961108Y-124329742D01*
X102973380Y-124289288D01*
X104530100Y-124289288D01*
X104634978Y-124278958D01*
X104735826Y-124248367D01*
X104828768Y-124198688D01*
X104910232Y-124131832D01*
X104936619Y-124099680D01*
X105063911Y-124125000D01*
G36*
X135329336Y-124357281D02*
G01*
X135319274Y-124360333D01*
X135226332Y-124410012D01*
X135144868Y-124476868D01*
X135078012Y-124558332D01*
X135028333Y-124651274D01*
X134997742Y-124752122D01*
X134987412Y-124857000D01*
X134987412Y-129440000D01*
X132982588Y-129440000D01*
X132982588Y-124881000D01*
X132972258Y-124776122D01*
X132941667Y-124675274D01*
X132891988Y-124582332D01*
X132825132Y-124500868D01*
X132743668Y-124434012D01*
X132650726Y-124384333D01*
X132549878Y-124353742D01*
X132445000Y-124343412D01*
X130445000Y-124343412D01*
X130340122Y-124353742D01*
X130239274Y-124384333D01*
X130175000Y-124418688D01*
X130110726Y-124384333D01*
X130009878Y-124353742D01*
X129905000Y-124343412D01*
X129690095Y-124343412D01*
X129690000Y-124342446D01*
X129690000Y-124342439D01*
X129678641Y-124227113D01*
X129672237Y-124206000D01*
X129633754Y-124079140D01*
X129618375Y-124050368D01*
X129560862Y-123942767D01*
X129511450Y-123882559D01*
X129487345Y-123853187D01*
X129487342Y-123853184D01*
X129462764Y-123823236D01*
X129432817Y-123798659D01*
X129189160Y-123555002D01*
X134527058Y-123555002D01*
X135329336Y-124357281D01*
X135329336Y-124357281D01*
G37*
X135329336Y-124357281D02*
X135319274Y-124360333D01*
X135226332Y-124410012D01*
X135144868Y-124476868D01*
X135078012Y-124558332D01*
X135028333Y-124651274D01*
X134997742Y-124752122D01*
X134987412Y-124857000D01*
X134987412Y-129440000D01*
X132982588Y-129440000D01*
X132982588Y-124881000D01*
X132972258Y-124776122D01*
X132941667Y-124675274D01*
X132891988Y-124582332D01*
X132825132Y-124500868D01*
X132743668Y-124434012D01*
X132650726Y-124384333D01*
X132549878Y-124353742D01*
X132445000Y-124343412D01*
X130445000Y-124343412D01*
X130340122Y-124353742D01*
X130239274Y-124384333D01*
X130175000Y-124418688D01*
X130110726Y-124384333D01*
X130009878Y-124353742D01*
X129905000Y-124343412D01*
X129690095Y-124343412D01*
X129690000Y-124342446D01*
X129690000Y-124342439D01*
X129678641Y-124227113D01*
X129672237Y-124206000D01*
X129633754Y-124079140D01*
X129618375Y-124050368D01*
X129560862Y-123942767D01*
X129511450Y-123882559D01*
X129487345Y-123853187D01*
X129487342Y-123853184D01*
X129462764Y-123823236D01*
X129432817Y-123798659D01*
X129189160Y-123555002D01*
X134527058Y-123555002D01*
X135329336Y-124357281D01*
G36*
X112880001Y-124343412D02*
G01*
X112665000Y-124343412D01*
X112560122Y-124353742D01*
X112459274Y-124384333D01*
X112366332Y-124434012D01*
X112284868Y-124500868D01*
X112218012Y-124582332D01*
X112168333Y-124675274D01*
X112137742Y-124776122D01*
X112127412Y-124881000D01*
X112127412Y-129440000D01*
X110122588Y-129440000D01*
X110122588Y-124881000D01*
X110112258Y-124776122D01*
X110081667Y-124675274D01*
X110031988Y-124582332D01*
X109965132Y-124500868D01*
X109883668Y-124434012D01*
X109790726Y-124384333D01*
X109689878Y-124353742D01*
X109622588Y-124347114D01*
X109622588Y-122040986D01*
X109712360Y-122013754D01*
X109848733Y-121940862D01*
X109968264Y-121842764D01*
X109992847Y-121812810D01*
X110954315Y-120851343D01*
X110984264Y-120826764D01*
X111015552Y-120788641D01*
X111032950Y-120767441D01*
X111082362Y-120707233D01*
X111155254Y-120570860D01*
X111160274Y-120554312D01*
X111200142Y-120422887D01*
X111209264Y-120330261D01*
X111211500Y-120307561D01*
X111211500Y-120307556D01*
X111215297Y-120269000D01*
X111211500Y-120230445D01*
X111211500Y-119578157D01*
X112880000Y-117909657D01*
X112880001Y-124343412D01*
X112880001Y-124343412D01*
G37*
X112880001Y-124343412D02*
X112665000Y-124343412D01*
X112560122Y-124353742D01*
X112459274Y-124384333D01*
X112366332Y-124434012D01*
X112284868Y-124500868D01*
X112218012Y-124582332D01*
X112168333Y-124675274D01*
X112137742Y-124776122D01*
X112127412Y-124881000D01*
X112127412Y-129440000D01*
X110122588Y-129440000D01*
X110122588Y-124881000D01*
X110112258Y-124776122D01*
X110081667Y-124675274D01*
X110031988Y-124582332D01*
X109965132Y-124500868D01*
X109883668Y-124434012D01*
X109790726Y-124384333D01*
X109689878Y-124353742D01*
X109622588Y-124347114D01*
X109622588Y-122040986D01*
X109712360Y-122013754D01*
X109848733Y-121940862D01*
X109968264Y-121842764D01*
X109992847Y-121812810D01*
X110954315Y-120851343D01*
X110984264Y-120826764D01*
X111015552Y-120788641D01*
X111032950Y-120767441D01*
X111082362Y-120707233D01*
X111155254Y-120570860D01*
X111160274Y-120554312D01*
X111200142Y-120422887D01*
X111209264Y-120330261D01*
X111211500Y-120307561D01*
X111211500Y-120307556D01*
X111215297Y-120269000D01*
X111211500Y-120230445D01*
X111211500Y-119578157D01*
X112880000Y-117909657D01*
X112880001Y-124343412D01*
G36*
X127775157Y-124361315D02*
G01*
X127699274Y-124384333D01*
X127606332Y-124434012D01*
X127524868Y-124500868D01*
X127458012Y-124582332D01*
X127408333Y-124675274D01*
X127377742Y-124776122D01*
X127367412Y-124881000D01*
X127367412Y-129440000D01*
X125362588Y-129440000D01*
X125362588Y-124857000D01*
X125352258Y-124752122D01*
X125321667Y-124651274D01*
X125271988Y-124558332D01*
X125205132Y-124476868D01*
X125123668Y-124410012D01*
X125030726Y-124360333D01*
X124929878Y-124329742D01*
X124825000Y-124319412D01*
X122825000Y-124319412D01*
X122720122Y-124329742D01*
X122619274Y-124360333D01*
X122532550Y-124406688D01*
X122490726Y-124384333D01*
X122389878Y-124353742D01*
X122285000Y-124343412D01*
X122062315Y-124343412D01*
X122058641Y-124306113D01*
X122043140Y-124255013D01*
X127668856Y-124255013D01*
X127775157Y-124361315D01*
X127775157Y-124361315D01*
G37*
X127775157Y-124361315D02*
X127699274Y-124384333D01*
X127606332Y-124434012D01*
X127524868Y-124500868D01*
X127458012Y-124582332D01*
X127408333Y-124675274D01*
X127377742Y-124776122D01*
X127367412Y-124881000D01*
X127367412Y-129440000D01*
X125362588Y-129440000D01*
X125362588Y-124857000D01*
X125352258Y-124752122D01*
X125321667Y-124651274D01*
X125271988Y-124558332D01*
X125205132Y-124476868D01*
X125123668Y-124410012D01*
X125030726Y-124360333D01*
X124929878Y-124329742D01*
X124825000Y-124319412D01*
X122825000Y-124319412D01*
X122720122Y-124329742D01*
X122619274Y-124360333D01*
X122532550Y-124406688D01*
X122490726Y-124384333D01*
X122389878Y-124353742D01*
X122285000Y-124343412D01*
X122062315Y-124343412D01*
X122058641Y-124306113D01*
X122043140Y-124255013D01*
X127668856Y-124255013D01*
X127775157Y-124361315D01*
G36*
X114767412Y-95600000D02*
G01*
X114767412Y-97800000D01*
X114777742Y-97904878D01*
X114808333Y-98005726D01*
X114858012Y-98098668D01*
X114924868Y-98180132D01*
X115006332Y-98246988D01*
X115099274Y-98296667D01*
X115200122Y-98327258D01*
X115305000Y-98337588D01*
X117055000Y-98337588D01*
X117159878Y-98327258D01*
X117260726Y-98296667D01*
X117353668Y-98246988D01*
X117435132Y-98180132D01*
X117501988Y-98098668D01*
X117551667Y-98005726D01*
X117582258Y-97904878D01*
X117592588Y-97800000D01*
X117592588Y-95600000D01*
X117588648Y-95560000D01*
X120186886Y-95560000D01*
X120081956Y-95687857D01*
X119951027Y-95932807D01*
X119870402Y-96198593D01*
X119850000Y-96405737D01*
X119850000Y-96994264D01*
X119870402Y-97201408D01*
X119951027Y-97467194D01*
X120081956Y-97712144D01*
X120258157Y-97926844D01*
X120472857Y-98103044D01*
X120717807Y-98233973D01*
X120983593Y-98314598D01*
X121260000Y-98341822D01*
X121536408Y-98314598D01*
X121802194Y-98233973D01*
X122047144Y-98103044D01*
X122261844Y-97926844D01*
X122438044Y-97712144D01*
X122530000Y-97540107D01*
X122621956Y-97712144D01*
X122798157Y-97926844D01*
X123012857Y-98103044D01*
X123257807Y-98233973D01*
X123523593Y-98314598D01*
X123800000Y-98341822D01*
X124076408Y-98314598D01*
X124342194Y-98233973D01*
X124587144Y-98103044D01*
X124801844Y-97926844D01*
X124978044Y-97712144D01*
X125108973Y-97467193D01*
X125189598Y-97201407D01*
X125210000Y-96994263D01*
X125210000Y-96405736D01*
X125189598Y-96198592D01*
X125108973Y-95932806D01*
X124978044Y-95687856D01*
X124873115Y-95560000D01*
X144975060Y-95560000D01*
X145785863Y-95632362D01*
X146546882Y-95840554D01*
X147259011Y-96180221D01*
X147899734Y-96640628D01*
X148448797Y-97207215D01*
X148888851Y-97862086D01*
X149205982Y-98584531D01*
X149391202Y-99356025D01*
X149440001Y-100020546D01*
X149440000Y-104972494D01*
X149440000Y-104972495D01*
X149440001Y-124975049D01*
X149367638Y-125785863D01*
X149159446Y-126546882D01*
X148819779Y-127259011D01*
X148359372Y-127899733D01*
X147792781Y-128448799D01*
X147137914Y-128888851D01*
X146415468Y-129205983D01*
X145643975Y-129391202D01*
X144979468Y-129440000D01*
X140602588Y-129440000D01*
X140602588Y-125787259D01*
X143840000Y-125787259D01*
X143840000Y-126212741D01*
X143923008Y-126630049D01*
X144085833Y-127023144D01*
X144322219Y-127376920D01*
X144623080Y-127677781D01*
X144976856Y-127914167D01*
X145369951Y-128076992D01*
X145787259Y-128160000D01*
X146212741Y-128160000D01*
X146630049Y-128076992D01*
X147023144Y-127914167D01*
X147376920Y-127677781D01*
X147677781Y-127376920D01*
X147914167Y-127023144D01*
X148076992Y-126630049D01*
X148160000Y-126212741D01*
X148160000Y-125787259D01*
X148076992Y-125369951D01*
X147914167Y-124976856D01*
X147677781Y-124623080D01*
X147376920Y-124322219D01*
X147023144Y-124085833D01*
X146630049Y-123923008D01*
X146212741Y-123840000D01*
X145787259Y-123840000D01*
X145369951Y-123923008D01*
X144976856Y-124085833D01*
X144623080Y-124322219D01*
X144322219Y-124623080D01*
X144085833Y-124976856D01*
X143923008Y-125369951D01*
X143840000Y-125787259D01*
X140602588Y-125787259D01*
X140602588Y-124857000D01*
X140592258Y-124752122D01*
X140561667Y-124651274D01*
X140511988Y-124558332D01*
X140445132Y-124476868D01*
X140363668Y-124410012D01*
X140270726Y-124360333D01*
X140169878Y-124329742D01*
X140065000Y-124319412D01*
X139850000Y-124319412D01*
X139850000Y-123101556D01*
X139853797Y-123063000D01*
X139850000Y-123024444D01*
X139850000Y-123024439D01*
X139842863Y-122951978D01*
X139838642Y-122909113D01*
X139793754Y-122761140D01*
X139786255Y-122747111D01*
X139720862Y-122624767D01*
X139657975Y-122548140D01*
X139647345Y-122535187D01*
X139647342Y-122535184D01*
X139622764Y-122505236D01*
X139592816Y-122480658D01*
X138401345Y-121289188D01*
X138506200Y-121289188D01*
X138611078Y-121278858D01*
X138711926Y-121248267D01*
X138804868Y-121198588D01*
X138886332Y-121131732D01*
X138953188Y-121050268D01*
X139002867Y-120957326D01*
X139033458Y-120856478D01*
X139043788Y-120751600D01*
X139043788Y-120524661D01*
X139047226Y-120525000D01*
X139047232Y-120525000D01*
X139085787Y-120528797D01*
X139124343Y-120525000D01*
X139179073Y-120525000D01*
X139217519Y-120596927D01*
X139409339Y-120830661D01*
X139643073Y-121022481D01*
X139909739Y-121165017D01*
X140199087Y-121252790D01*
X140424592Y-121275000D01*
X140575408Y-121275000D01*
X140800913Y-121252790D01*
X141090261Y-121165017D01*
X141356927Y-121022481D01*
X141590661Y-120830661D01*
X141782481Y-120596927D01*
X141925017Y-120330261D01*
X142012790Y-120040913D01*
X142042427Y-119740000D01*
X142012790Y-119439087D01*
X141925017Y-119149739D01*
X141782481Y-118883073D01*
X141644695Y-118715180D01*
X141705726Y-118696667D01*
X141798668Y-118646988D01*
X141880132Y-118580132D01*
X141946988Y-118498668D01*
X141996667Y-118405726D01*
X142027258Y-118304878D01*
X142037588Y-118200000D01*
X142037588Y-116200000D01*
X142027258Y-116095122D01*
X141996667Y-115994274D01*
X141946988Y-115901332D01*
X141880132Y-115819868D01*
X141798668Y-115753012D01*
X141705726Y-115703333D01*
X141604878Y-115672742D01*
X141500000Y-115662412D01*
X141181596Y-115662412D01*
X141155862Y-115614267D01*
X141100984Y-115547399D01*
X141082345Y-115524687D01*
X141082342Y-115524684D01*
X141057764Y-115494736D01*
X141027815Y-115470157D01*
X140472846Y-114915189D01*
X140448264Y-114885236D01*
X140328733Y-114787138D01*
X140192360Y-114714246D01*
X140044387Y-114669359D01*
X139929061Y-114658000D01*
X139929053Y-114658000D01*
X139890500Y-114654203D01*
X139851947Y-114658000D01*
X136613960Y-114658000D01*
X136695381Y-114576579D01*
X136867868Y-114576579D01*
X136906421Y-114580376D01*
X136944974Y-114576579D01*
X136944982Y-114576579D01*
X137060308Y-114565220D01*
X137208281Y-114520333D01*
X137344654Y-114447441D01*
X137464185Y-114349343D01*
X137488768Y-114319389D01*
X137697970Y-114110187D01*
X137727924Y-114085604D01*
X137826022Y-113966073D01*
X137898914Y-113829700D01*
X137938258Y-113700000D01*
X137943801Y-113681728D01*
X137947813Y-113640994D01*
X137955160Y-113566401D01*
X137955160Y-113566394D01*
X137958957Y-113527841D01*
X137955160Y-113489288D01*
X137955160Y-113390517D01*
X137969208Y-113383008D01*
X138050672Y-113316152D01*
X138117528Y-113234688D01*
X138167207Y-113141746D01*
X138197798Y-113040898D01*
X138208128Y-112936020D01*
X138208128Y-112336580D01*
X138197798Y-112231702D01*
X138167207Y-112130854D01*
X138117528Y-112037912D01*
X138050672Y-111956448D01*
X137969208Y-111889592D01*
X137876266Y-111839913D01*
X137775418Y-111809322D01*
X137670540Y-111798992D01*
X136669780Y-111798992D01*
X136564902Y-111809322D01*
X136464054Y-111839913D01*
X136371112Y-111889592D01*
X136289648Y-111956448D01*
X136222792Y-112037912D01*
X136173113Y-112130854D01*
X136142522Y-112231702D01*
X136132192Y-112336580D01*
X136132192Y-112936020D01*
X136140714Y-113022542D01*
X136110088Y-113031832D01*
X136110088Y-111975900D01*
X136099758Y-111871022D01*
X136069167Y-111770174D01*
X136019488Y-111677232D01*
X135952632Y-111595768D01*
X135871168Y-111528912D01*
X135778226Y-111479233D01*
X135677378Y-111448642D01*
X135572500Y-111438312D01*
X135470695Y-111438312D01*
X135519068Y-111321529D01*
X135555000Y-111140889D01*
X135555000Y-110956711D01*
X135551415Y-110938688D01*
X137245090Y-110938688D01*
X137349968Y-110928358D01*
X137450816Y-110897767D01*
X137543758Y-110848088D01*
X137564927Y-110830715D01*
X138498440Y-111764228D01*
X138498441Y-112750510D01*
X138498440Y-112750520D01*
X138498440Y-112834583D01*
X138484392Y-112842092D01*
X138402928Y-112908948D01*
X138336072Y-112990412D01*
X138286393Y-113083354D01*
X138255802Y-113184202D01*
X138245472Y-113289080D01*
X138245472Y-113888520D01*
X138255802Y-113993398D01*
X138286393Y-114094246D01*
X138336072Y-114187188D01*
X138402928Y-114268652D01*
X138484392Y-114335508D01*
X138577334Y-114385187D01*
X138678182Y-114415778D01*
X138783060Y-114426108D01*
X139783820Y-114426108D01*
X139888698Y-114415778D01*
X139989546Y-114385187D01*
X140010849Y-114373800D01*
X144373147Y-114373800D01*
X144411700Y-114377597D01*
X144450253Y-114373800D01*
X144450261Y-114373800D01*
X144565587Y-114362441D01*
X144713560Y-114317554D01*
X144849933Y-114244662D01*
X144969464Y-114146564D01*
X144994047Y-114116610D01*
X148028310Y-111082347D01*
X148058264Y-111057764D01*
X148156362Y-110938233D01*
X148229254Y-110801860D01*
X148234912Y-110783208D01*
X148274142Y-110653887D01*
X148283725Y-110556582D01*
X148285500Y-110538561D01*
X148285500Y-110538556D01*
X148289297Y-110500000D01*
X148285500Y-110461444D01*
X148285500Y-109525608D01*
X148479005Y-109396312D01*
X148692812Y-109182505D01*
X148860799Y-108931095D01*
X148976511Y-108651743D01*
X149035500Y-108355184D01*
X149035500Y-108052816D01*
X148976511Y-107756257D01*
X148860799Y-107476905D01*
X148692812Y-107225495D01*
X148479005Y-107011688D01*
X148227595Y-106843701D01*
X147948243Y-106727989D01*
X147651684Y-106669000D01*
X147349316Y-106669000D01*
X147052757Y-106727989D01*
X146773405Y-106843701D01*
X146521995Y-107011688D01*
X146308188Y-107225495D01*
X146140201Y-107476905D01*
X146024489Y-107756257D01*
X145965500Y-108052816D01*
X145965500Y-108355184D01*
X146024489Y-108651743D01*
X146140201Y-108931095D01*
X146308188Y-109182505D01*
X146521995Y-109396312D01*
X146715501Y-109525608D01*
X146715501Y-110174842D01*
X144086543Y-112803800D01*
X140068440Y-112803800D01*
X140068440Y-111477622D01*
X140072237Y-111439069D01*
X140068440Y-111400516D01*
X140068440Y-111400509D01*
X140057081Y-111285183D01*
X140057026Y-111285000D01*
X140039963Y-111228754D01*
X140012194Y-111137210D01*
X139939302Y-111000837D01*
X139888297Y-110938688D01*
X139865785Y-110911257D01*
X139865782Y-110911254D01*
X139841204Y-110881306D01*
X139811257Y-110856729D01*
X138327437Y-109372910D01*
X138302854Y-109342956D01*
X138183323Y-109244858D01*
X138172363Y-109239000D01*
X138764683Y-109239000D01*
X138921995Y-109396312D01*
X139173405Y-109564299D01*
X139452757Y-109680011D01*
X139749316Y-109739000D01*
X140051684Y-109739000D01*
X140348243Y-109680011D01*
X140627595Y-109564299D01*
X140879005Y-109396312D01*
X141092812Y-109182505D01*
X141260799Y-108931095D01*
X141376511Y-108651743D01*
X141435500Y-108355184D01*
X141435500Y-108052816D01*
X141376511Y-107756257D01*
X141260799Y-107476905D01*
X141092812Y-107225495D01*
X140879005Y-107011688D01*
X140627595Y-106843701D01*
X140348243Y-106727989D01*
X140051684Y-106669000D01*
X139749316Y-106669000D01*
X139452757Y-106727989D01*
X139173405Y-106843701D01*
X138921995Y-107011688D01*
X138764683Y-107169000D01*
X138356860Y-107169000D01*
X138352596Y-107163804D01*
X138194997Y-107034466D01*
X138015193Y-106938359D01*
X137820095Y-106879176D01*
X137752692Y-106872538D01*
X137772348Y-106807738D01*
X137782678Y-106702860D01*
X137782678Y-105702100D01*
X137772348Y-105597222D01*
X137741757Y-105496374D01*
X137692078Y-105403432D01*
X137625222Y-105321968D01*
X137543758Y-105255112D01*
X137520845Y-105242865D01*
X137721367Y-105042343D01*
X137788116Y-105078021D01*
X137888964Y-105108612D01*
X137993842Y-105118942D01*
X138098720Y-105108612D01*
X138199568Y-105078021D01*
X138292510Y-105028342D01*
X138373974Y-104961486D01*
X139505486Y-103829974D01*
X139572342Y-103748510D01*
X139622021Y-103655568D01*
X139652612Y-103554720D01*
X139662942Y-103449842D01*
X139652612Y-103344964D01*
X139622021Y-103244116D01*
X139572342Y-103151174D01*
X139505486Y-103069710D01*
X138230290Y-101794514D01*
X138148826Y-101727658D01*
X138093778Y-101698234D01*
X138095000Y-101692089D01*
X138095000Y-101507911D01*
X138059068Y-101327271D01*
X137988586Y-101157111D01*
X137886262Y-101003972D01*
X137756028Y-100873738D01*
X137648680Y-100802011D01*
X137660396Y-100792396D01*
X137694004Y-100751445D01*
X137789734Y-100634798D01*
X137842946Y-100535245D01*
X137885841Y-100454993D01*
X137945024Y-100259895D01*
X137960000Y-100107838D01*
X137960000Y-100107835D01*
X137965007Y-100057000D01*
X137960000Y-100006165D01*
X137960000Y-98787259D01*
X143840000Y-98787259D01*
X143840000Y-99212741D01*
X143923008Y-99630049D01*
X144085833Y-100023144D01*
X144322219Y-100376920D01*
X144623080Y-100677781D01*
X144976856Y-100914167D01*
X145369951Y-101076992D01*
X145787259Y-101160000D01*
X146212741Y-101160000D01*
X146630049Y-101076992D01*
X147023144Y-100914167D01*
X147376920Y-100677781D01*
X147677781Y-100376920D01*
X147914167Y-100023144D01*
X148076992Y-99630049D01*
X148160000Y-99212741D01*
X148160000Y-98787259D01*
X148076992Y-98369951D01*
X147914167Y-97976856D01*
X147677781Y-97623080D01*
X147376920Y-97322219D01*
X147023144Y-97085833D01*
X146630049Y-96923008D01*
X146212741Y-96840000D01*
X145787259Y-96840000D01*
X145369951Y-96923008D01*
X144976856Y-97085833D01*
X144623080Y-97322219D01*
X144322219Y-97623080D01*
X144085833Y-97976856D01*
X143923008Y-98369951D01*
X143840000Y-98787259D01*
X137960000Y-98787259D01*
X137960000Y-98631223D01*
X137962560Y-98629855D01*
X138081909Y-98531909D01*
X138179855Y-98412560D01*
X138252636Y-98276397D01*
X138285136Y-98169260D01*
X138440920Y-98359081D01*
X138651813Y-98532157D01*
X138892420Y-98660764D01*
X139153494Y-98739960D01*
X139425000Y-98766701D01*
X139696507Y-98739960D01*
X139957581Y-98660764D01*
X140198188Y-98532157D01*
X140409081Y-98359081D01*
X140582157Y-98148188D01*
X140710764Y-97907580D01*
X140789960Y-97646506D01*
X140810000Y-97443036D01*
X140810000Y-97006963D01*
X140789960Y-96803493D01*
X140710764Y-96542419D01*
X140582157Y-96301812D01*
X140409080Y-96090919D01*
X140198187Y-95917843D01*
X139957580Y-95789236D01*
X139696506Y-95710040D01*
X139425000Y-95683299D01*
X139153493Y-95710040D01*
X138892419Y-95789236D01*
X138651812Y-95917843D01*
X138440919Y-96090920D01*
X138285136Y-96280741D01*
X138252636Y-96173603D01*
X138179855Y-96037440D01*
X138081909Y-95918091D01*
X137962560Y-95820145D01*
X137826397Y-95747364D01*
X137678651Y-95702545D01*
X137525000Y-95687412D01*
X136325000Y-95687412D01*
X136171349Y-95702545D01*
X136023603Y-95747364D01*
X135887440Y-95820145D01*
X135768091Y-95918091D01*
X135670145Y-96037440D01*
X135597364Y-96173603D01*
X135552545Y-96321349D01*
X135537412Y-96475000D01*
X135537412Y-97975000D01*
X135552545Y-98128651D01*
X135597364Y-98276397D01*
X135670145Y-98412560D01*
X135768091Y-98531909D01*
X135887440Y-98629855D01*
X135890001Y-98631224D01*
X135890000Y-99628289D01*
X135715290Y-99803000D01*
X134902162Y-99803000D01*
X134750105Y-99817976D01*
X134555007Y-99877159D01*
X134428437Y-99944812D01*
X133953000Y-99944812D01*
X133848122Y-99955142D01*
X133747274Y-99985733D01*
X133654332Y-100035412D01*
X133572868Y-100102268D01*
X133506012Y-100183732D01*
X133456333Y-100276674D01*
X133425742Y-100377522D01*
X133415412Y-100482400D01*
X133415412Y-101193600D01*
X133425742Y-101298478D01*
X133456333Y-101399326D01*
X133495713Y-101473000D01*
X133456333Y-101546674D01*
X133425742Y-101647522D01*
X133415412Y-101752400D01*
X133415412Y-101885322D01*
X133298894Y-101849976D01*
X133096000Y-101829993D01*
X132893105Y-101849976D01*
X132861000Y-101859715D01*
X132861000Y-99936335D01*
X132866007Y-99885500D01*
X132860324Y-99827803D01*
X132846024Y-99682605D01*
X132786841Y-99487507D01*
X132690734Y-99307703D01*
X132561396Y-99150104D01*
X132521903Y-99117693D01*
X132276307Y-98872097D01*
X132243896Y-98832604D01*
X132086297Y-98703266D01*
X132052470Y-98685185D01*
X132160764Y-98482580D01*
X132239960Y-98221506D01*
X132260000Y-98018036D01*
X132260000Y-97581963D01*
X132239960Y-97378493D01*
X132160764Y-97117419D01*
X132032157Y-96876812D01*
X131859080Y-96665919D01*
X131648187Y-96492843D01*
X131407580Y-96364236D01*
X131146506Y-96285040D01*
X130875000Y-96258299D01*
X130603493Y-96285040D01*
X130342419Y-96364236D01*
X130101812Y-96492843D01*
X129890919Y-96665920D01*
X129717843Y-96876813D01*
X129589236Y-97117420D01*
X129510040Y-97378494D01*
X129490000Y-97581964D01*
X129490000Y-98018037D01*
X129510040Y-98221507D01*
X129589236Y-98482581D01*
X129616185Y-98533000D01*
X109647103Y-98533000D01*
X109712132Y-98479632D01*
X109778988Y-98398168D01*
X109828667Y-98305226D01*
X109859258Y-98204378D01*
X109869588Y-98099500D01*
X109869588Y-97099500D01*
X109859258Y-96994622D01*
X109828667Y-96893774D01*
X109778988Y-96800832D01*
X109712132Y-96719368D01*
X109630668Y-96652512D01*
X109537726Y-96602833D01*
X109436878Y-96572242D01*
X109332000Y-96561912D01*
X108006561Y-96561912D01*
X107982000Y-96559493D01*
X107957439Y-96561912D01*
X106632000Y-96561912D01*
X106527122Y-96572242D01*
X106426274Y-96602833D01*
X106333332Y-96652512D01*
X106251868Y-96719368D01*
X106185012Y-96800832D01*
X106135333Y-96893774D01*
X106104742Y-96994622D01*
X106094412Y-97099500D01*
X106094412Y-98022309D01*
X106070900Y-98019993D01*
X106020065Y-98025000D01*
X106020062Y-98025000D01*
X105868005Y-98039976D01*
X105672907Y-98099159D01*
X105493103Y-98195266D01*
X105335504Y-98324604D01*
X105303093Y-98364097D01*
X104952593Y-98714597D01*
X104913105Y-98747004D01*
X104880698Y-98786492D01*
X104880697Y-98786493D01*
X104783766Y-98904603D01*
X104687660Y-99084407D01*
X104628477Y-99279505D01*
X104608494Y-99482400D01*
X104613501Y-99533237D01*
X104613501Y-99948259D01*
X104543622Y-99955142D01*
X104442774Y-99985733D01*
X104349832Y-100035412D01*
X104309500Y-100068512D01*
X104309500Y-98354036D01*
X104431657Y-98205188D01*
X104560264Y-97964580D01*
X104639460Y-97703506D01*
X104659500Y-97500036D01*
X104659500Y-97063963D01*
X104639460Y-96860493D01*
X104560264Y-96599419D01*
X104431657Y-96358812D01*
X104258580Y-96147919D01*
X104047687Y-95974843D01*
X103807080Y-95846236D01*
X103546006Y-95767040D01*
X103274500Y-95740299D01*
X103002993Y-95767040D01*
X102741919Y-95846236D01*
X102501312Y-95974843D01*
X102290419Y-96147920D01*
X102134636Y-96337741D01*
X102102136Y-96230603D01*
X102029355Y-96094440D01*
X101931409Y-95975091D01*
X101812060Y-95877145D01*
X101675897Y-95804364D01*
X101528151Y-95759545D01*
X101374500Y-95744412D01*
X100174500Y-95744412D01*
X100020849Y-95759545D01*
X99873103Y-95804364D01*
X99736940Y-95877145D01*
X99617591Y-95975091D01*
X99519645Y-96094440D01*
X99446864Y-96230603D01*
X99402045Y-96378349D01*
X99386912Y-96532000D01*
X99386912Y-98032000D01*
X99402045Y-98185651D01*
X99446864Y-98333397D01*
X99519645Y-98469560D01*
X99617591Y-98588909D01*
X99736940Y-98686855D01*
X99739500Y-98688223D01*
X99739501Y-102628662D01*
X99734494Y-102679500D01*
X99754477Y-102882395D01*
X99813660Y-103077493D01*
X99839821Y-103126438D01*
X99765726Y-103086833D01*
X99664878Y-103056242D01*
X99560000Y-103045912D01*
X98560000Y-103045912D01*
X98455122Y-103056242D01*
X98354274Y-103086833D01*
X98261332Y-103136512D01*
X98179868Y-103203368D01*
X98113012Y-103284832D01*
X98063333Y-103377774D01*
X98032742Y-103478622D01*
X98022412Y-103583500D01*
X98022412Y-103894469D01*
X98012500Y-103893493D01*
X97961665Y-103898500D01*
X97961662Y-103898500D01*
X97809605Y-103913476D01*
X97614507Y-103972659D01*
X97434703Y-104068766D01*
X97277104Y-104198104D01*
X97244693Y-104237597D01*
X96941697Y-104540593D01*
X96902204Y-104573004D01*
X96772866Y-104730603D01*
X96676759Y-104910408D01*
X96617576Y-105105506D01*
X96602600Y-105257563D01*
X96602600Y-105257572D01*
X96597594Y-105308400D01*
X96602600Y-105359229D01*
X96602601Y-106131832D01*
X96543332Y-106163512D01*
X96461868Y-106230368D01*
X96395012Y-106311832D01*
X96345333Y-106404774D01*
X96314742Y-106505622D01*
X96304412Y-106610500D01*
X96304412Y-107610500D01*
X96314742Y-107715378D01*
X96345333Y-107816226D01*
X96395012Y-107909168D01*
X96461868Y-107990632D01*
X96543332Y-108057488D01*
X96636274Y-108107167D01*
X96737122Y-108137758D01*
X96842000Y-108148088D01*
X98017440Y-108148088D01*
X98042000Y-108150507D01*
X98066560Y-108148088D01*
X99127878Y-108148088D01*
X99370066Y-108390276D01*
X99346878Y-108383242D01*
X99242000Y-108372912D01*
X96842000Y-108372912D01*
X96815725Y-108375500D01*
X94983338Y-108375500D01*
X94932500Y-108370493D01*
X94881662Y-108375500D01*
X93329588Y-108375500D01*
X93329588Y-107510500D01*
X93319258Y-107405622D01*
X93288667Y-107304774D01*
X93238988Y-107211832D01*
X93172132Y-107130368D01*
X93090668Y-107063512D01*
X92997726Y-107013833D01*
X92896878Y-106983242D01*
X92792000Y-106972912D01*
X92729000Y-106972912D01*
X92729000Y-105459273D01*
X92792768Y-105425188D01*
X92874232Y-105358332D01*
X92941088Y-105276868D01*
X92990767Y-105183926D01*
X93021358Y-105083078D01*
X93031688Y-104978200D01*
X93031688Y-103174800D01*
X93021358Y-103069922D01*
X92990767Y-102969074D01*
X92941088Y-102876132D01*
X92874232Y-102794668D01*
X92792768Y-102727812D01*
X92699826Y-102678133D01*
X92598978Y-102647542D01*
X92494100Y-102637212D01*
X90893900Y-102637212D01*
X90789022Y-102647542D01*
X90688174Y-102678133D01*
X90595232Y-102727812D01*
X90560000Y-102756726D01*
X90560000Y-100024940D01*
X90632362Y-99214137D01*
X90749143Y-98787259D01*
X91840000Y-98787259D01*
X91840000Y-99212741D01*
X91923008Y-99630049D01*
X92085833Y-100023144D01*
X92322219Y-100376920D01*
X92623080Y-100677781D01*
X92976856Y-100914167D01*
X93369951Y-101076992D01*
X93787259Y-101160000D01*
X94212741Y-101160000D01*
X94630049Y-101076992D01*
X95023144Y-100914167D01*
X95376920Y-100677781D01*
X95677781Y-100376920D01*
X95914167Y-100023144D01*
X96076992Y-99630049D01*
X96160000Y-99212741D01*
X96160000Y-98787259D01*
X96076992Y-98369951D01*
X95914167Y-97976856D01*
X95677781Y-97623080D01*
X95376920Y-97322219D01*
X95023144Y-97085833D01*
X94630049Y-96923008D01*
X94212741Y-96840000D01*
X93787259Y-96840000D01*
X93369951Y-96923008D01*
X92976856Y-97085833D01*
X92623080Y-97322219D01*
X92322219Y-97623080D01*
X92085833Y-97976856D01*
X91923008Y-98369951D01*
X91840000Y-98787259D01*
X90749143Y-98787259D01*
X90840554Y-98453118D01*
X91180221Y-97740989D01*
X91640628Y-97100266D01*
X92207215Y-96551203D01*
X92862086Y-96111149D01*
X93584531Y-95794018D01*
X94356025Y-95608798D01*
X95020532Y-95560000D01*
X114771352Y-95560000D01*
X114767412Y-95600000D01*
X114767412Y-95600000D01*
G37*
X114767412Y-95600000D02*
X114767412Y-97800000D01*
X114777742Y-97904878D01*
X114808333Y-98005726D01*
X114858012Y-98098668D01*
X114924868Y-98180132D01*
X115006332Y-98246988D01*
X115099274Y-98296667D01*
X115200122Y-98327258D01*
X115305000Y-98337588D01*
X117055000Y-98337588D01*
X117159878Y-98327258D01*
X117260726Y-98296667D01*
X117353668Y-98246988D01*
X117435132Y-98180132D01*
X117501988Y-98098668D01*
X117551667Y-98005726D01*
X117582258Y-97904878D01*
X117592588Y-97800000D01*
X117592588Y-95600000D01*
X117588648Y-95560000D01*
X120186886Y-95560000D01*
X120081956Y-95687857D01*
X119951027Y-95932807D01*
X119870402Y-96198593D01*
X119850000Y-96405737D01*
X119850000Y-96994264D01*
X119870402Y-97201408D01*
X119951027Y-97467194D01*
X120081956Y-97712144D01*
X120258157Y-97926844D01*
X120472857Y-98103044D01*
X120717807Y-98233973D01*
X120983593Y-98314598D01*
X121260000Y-98341822D01*
X121536408Y-98314598D01*
X121802194Y-98233973D01*
X122047144Y-98103044D01*
X122261844Y-97926844D01*
X122438044Y-97712144D01*
X122530000Y-97540107D01*
X122621956Y-97712144D01*
X122798157Y-97926844D01*
X123012857Y-98103044D01*
X123257807Y-98233973D01*
X123523593Y-98314598D01*
X123800000Y-98341822D01*
X124076408Y-98314598D01*
X124342194Y-98233973D01*
X124587144Y-98103044D01*
X124801844Y-97926844D01*
X124978044Y-97712144D01*
X125108973Y-97467193D01*
X125189598Y-97201407D01*
X125210000Y-96994263D01*
X125210000Y-96405736D01*
X125189598Y-96198592D01*
X125108973Y-95932806D01*
X124978044Y-95687856D01*
X124873115Y-95560000D01*
X144975060Y-95560000D01*
X145785863Y-95632362D01*
X146546882Y-95840554D01*
X147259011Y-96180221D01*
X147899734Y-96640628D01*
X148448797Y-97207215D01*
X148888851Y-97862086D01*
X149205982Y-98584531D01*
X149391202Y-99356025D01*
X149440001Y-100020546D01*
X149440000Y-104972494D01*
X149440000Y-104972495D01*
X149440001Y-124975049D01*
X149367638Y-125785863D01*
X149159446Y-126546882D01*
X148819779Y-127259011D01*
X148359372Y-127899733D01*
X147792781Y-128448799D01*
X147137914Y-128888851D01*
X146415468Y-129205983D01*
X145643975Y-129391202D01*
X144979468Y-129440000D01*
X140602588Y-129440000D01*
X140602588Y-125787259D01*
X143840000Y-125787259D01*
X143840000Y-126212741D01*
X143923008Y-126630049D01*
X144085833Y-127023144D01*
X144322219Y-127376920D01*
X144623080Y-127677781D01*
X144976856Y-127914167D01*
X145369951Y-128076992D01*
X145787259Y-128160000D01*
X146212741Y-128160000D01*
X146630049Y-128076992D01*
X147023144Y-127914167D01*
X147376920Y-127677781D01*
X147677781Y-127376920D01*
X147914167Y-127023144D01*
X148076992Y-126630049D01*
X148160000Y-126212741D01*
X148160000Y-125787259D01*
X148076992Y-125369951D01*
X147914167Y-124976856D01*
X147677781Y-124623080D01*
X147376920Y-124322219D01*
X147023144Y-124085833D01*
X146630049Y-123923008D01*
X146212741Y-123840000D01*
X145787259Y-123840000D01*
X145369951Y-123923008D01*
X144976856Y-124085833D01*
X144623080Y-124322219D01*
X144322219Y-124623080D01*
X144085833Y-124976856D01*
X143923008Y-125369951D01*
X143840000Y-125787259D01*
X140602588Y-125787259D01*
X140602588Y-124857000D01*
X140592258Y-124752122D01*
X140561667Y-124651274D01*
X140511988Y-124558332D01*
X140445132Y-124476868D01*
X140363668Y-124410012D01*
X140270726Y-124360333D01*
X140169878Y-124329742D01*
X140065000Y-124319412D01*
X139850000Y-124319412D01*
X139850000Y-123101556D01*
X139853797Y-123063000D01*
X139850000Y-123024444D01*
X139850000Y-123024439D01*
X139842863Y-122951978D01*
X139838642Y-122909113D01*
X139793754Y-122761140D01*
X139786255Y-122747111D01*
X139720862Y-122624767D01*
X139657975Y-122548140D01*
X139647345Y-122535187D01*
X139647342Y-122535184D01*
X139622764Y-122505236D01*
X139592816Y-122480658D01*
X138401345Y-121289188D01*
X138506200Y-121289188D01*
X138611078Y-121278858D01*
X138711926Y-121248267D01*
X138804868Y-121198588D01*
X138886332Y-121131732D01*
X138953188Y-121050268D01*
X139002867Y-120957326D01*
X139033458Y-120856478D01*
X139043788Y-120751600D01*
X139043788Y-120524661D01*
X139047226Y-120525000D01*
X139047232Y-120525000D01*
X139085787Y-120528797D01*
X139124343Y-120525000D01*
X139179073Y-120525000D01*
X139217519Y-120596927D01*
X139409339Y-120830661D01*
X139643073Y-121022481D01*
X139909739Y-121165017D01*
X140199087Y-121252790D01*
X140424592Y-121275000D01*
X140575408Y-121275000D01*
X140800913Y-121252790D01*
X141090261Y-121165017D01*
X141356927Y-121022481D01*
X141590661Y-120830661D01*
X141782481Y-120596927D01*
X141925017Y-120330261D01*
X142012790Y-120040913D01*
X142042427Y-119740000D01*
X142012790Y-119439087D01*
X141925017Y-119149739D01*
X141782481Y-118883073D01*
X141644695Y-118715180D01*
X141705726Y-118696667D01*
X141798668Y-118646988D01*
X141880132Y-118580132D01*
X141946988Y-118498668D01*
X141996667Y-118405726D01*
X142027258Y-118304878D01*
X142037588Y-118200000D01*
X142037588Y-116200000D01*
X142027258Y-116095122D01*
X141996667Y-115994274D01*
X141946988Y-115901332D01*
X141880132Y-115819868D01*
X141798668Y-115753012D01*
X141705726Y-115703333D01*
X141604878Y-115672742D01*
X141500000Y-115662412D01*
X141181596Y-115662412D01*
X141155862Y-115614267D01*
X141100984Y-115547399D01*
X141082345Y-115524687D01*
X141082342Y-115524684D01*
X141057764Y-115494736D01*
X141027815Y-115470157D01*
X140472846Y-114915189D01*
X140448264Y-114885236D01*
X140328733Y-114787138D01*
X140192360Y-114714246D01*
X140044387Y-114669359D01*
X139929061Y-114658000D01*
X139929053Y-114658000D01*
X139890500Y-114654203D01*
X139851947Y-114658000D01*
X136613960Y-114658000D01*
X136695381Y-114576579D01*
X136867868Y-114576579D01*
X136906421Y-114580376D01*
X136944974Y-114576579D01*
X136944982Y-114576579D01*
X137060308Y-114565220D01*
X137208281Y-114520333D01*
X137344654Y-114447441D01*
X137464185Y-114349343D01*
X137488768Y-114319389D01*
X137697970Y-114110187D01*
X137727924Y-114085604D01*
X137826022Y-113966073D01*
X137898914Y-113829700D01*
X137938258Y-113700000D01*
X137943801Y-113681728D01*
X137947813Y-113640994D01*
X137955160Y-113566401D01*
X137955160Y-113566394D01*
X137958957Y-113527841D01*
X137955160Y-113489288D01*
X137955160Y-113390517D01*
X137969208Y-113383008D01*
X138050672Y-113316152D01*
X138117528Y-113234688D01*
X138167207Y-113141746D01*
X138197798Y-113040898D01*
X138208128Y-112936020D01*
X138208128Y-112336580D01*
X138197798Y-112231702D01*
X138167207Y-112130854D01*
X138117528Y-112037912D01*
X138050672Y-111956448D01*
X137969208Y-111889592D01*
X137876266Y-111839913D01*
X137775418Y-111809322D01*
X137670540Y-111798992D01*
X136669780Y-111798992D01*
X136564902Y-111809322D01*
X136464054Y-111839913D01*
X136371112Y-111889592D01*
X136289648Y-111956448D01*
X136222792Y-112037912D01*
X136173113Y-112130854D01*
X136142522Y-112231702D01*
X136132192Y-112336580D01*
X136132192Y-112936020D01*
X136140714Y-113022542D01*
X136110088Y-113031832D01*
X136110088Y-111975900D01*
X136099758Y-111871022D01*
X136069167Y-111770174D01*
X136019488Y-111677232D01*
X135952632Y-111595768D01*
X135871168Y-111528912D01*
X135778226Y-111479233D01*
X135677378Y-111448642D01*
X135572500Y-111438312D01*
X135470695Y-111438312D01*
X135519068Y-111321529D01*
X135555000Y-111140889D01*
X135555000Y-110956711D01*
X135551415Y-110938688D01*
X137245090Y-110938688D01*
X137349968Y-110928358D01*
X137450816Y-110897767D01*
X137543758Y-110848088D01*
X137564927Y-110830715D01*
X138498440Y-111764228D01*
X138498441Y-112750510D01*
X138498440Y-112750520D01*
X138498440Y-112834583D01*
X138484392Y-112842092D01*
X138402928Y-112908948D01*
X138336072Y-112990412D01*
X138286393Y-113083354D01*
X138255802Y-113184202D01*
X138245472Y-113289080D01*
X138245472Y-113888520D01*
X138255802Y-113993398D01*
X138286393Y-114094246D01*
X138336072Y-114187188D01*
X138402928Y-114268652D01*
X138484392Y-114335508D01*
X138577334Y-114385187D01*
X138678182Y-114415778D01*
X138783060Y-114426108D01*
X139783820Y-114426108D01*
X139888698Y-114415778D01*
X139989546Y-114385187D01*
X140010849Y-114373800D01*
X144373147Y-114373800D01*
X144411700Y-114377597D01*
X144450253Y-114373800D01*
X144450261Y-114373800D01*
X144565587Y-114362441D01*
X144713560Y-114317554D01*
X144849933Y-114244662D01*
X144969464Y-114146564D01*
X144994047Y-114116610D01*
X148028310Y-111082347D01*
X148058264Y-111057764D01*
X148156362Y-110938233D01*
X148229254Y-110801860D01*
X148234912Y-110783208D01*
X148274142Y-110653887D01*
X148283725Y-110556582D01*
X148285500Y-110538561D01*
X148285500Y-110538556D01*
X148289297Y-110500000D01*
X148285500Y-110461444D01*
X148285500Y-109525608D01*
X148479005Y-109396312D01*
X148692812Y-109182505D01*
X148860799Y-108931095D01*
X148976511Y-108651743D01*
X149035500Y-108355184D01*
X149035500Y-108052816D01*
X148976511Y-107756257D01*
X148860799Y-107476905D01*
X148692812Y-107225495D01*
X148479005Y-107011688D01*
X148227595Y-106843701D01*
X147948243Y-106727989D01*
X147651684Y-106669000D01*
X147349316Y-106669000D01*
X147052757Y-106727989D01*
X146773405Y-106843701D01*
X146521995Y-107011688D01*
X146308188Y-107225495D01*
X146140201Y-107476905D01*
X146024489Y-107756257D01*
X145965500Y-108052816D01*
X145965500Y-108355184D01*
X146024489Y-108651743D01*
X146140201Y-108931095D01*
X146308188Y-109182505D01*
X146521995Y-109396312D01*
X146715501Y-109525608D01*
X146715501Y-110174842D01*
X144086543Y-112803800D01*
X140068440Y-112803800D01*
X140068440Y-111477622D01*
X140072237Y-111439069D01*
X140068440Y-111400516D01*
X140068440Y-111400509D01*
X140057081Y-111285183D01*
X140057026Y-111285000D01*
X140039963Y-111228754D01*
X140012194Y-111137210D01*
X139939302Y-111000837D01*
X139888297Y-110938688D01*
X139865785Y-110911257D01*
X139865782Y-110911254D01*
X139841204Y-110881306D01*
X139811257Y-110856729D01*
X138327437Y-109372910D01*
X138302854Y-109342956D01*
X138183323Y-109244858D01*
X138172363Y-109239000D01*
X138764683Y-109239000D01*
X138921995Y-109396312D01*
X139173405Y-109564299D01*
X139452757Y-109680011D01*
X139749316Y-109739000D01*
X140051684Y-109739000D01*
X140348243Y-109680011D01*
X140627595Y-109564299D01*
X140879005Y-109396312D01*
X141092812Y-109182505D01*
X141260799Y-108931095D01*
X141376511Y-108651743D01*
X141435500Y-108355184D01*
X141435500Y-108052816D01*
X141376511Y-107756257D01*
X141260799Y-107476905D01*
X141092812Y-107225495D01*
X140879005Y-107011688D01*
X140627595Y-106843701D01*
X140348243Y-106727989D01*
X140051684Y-106669000D01*
X139749316Y-106669000D01*
X139452757Y-106727989D01*
X139173405Y-106843701D01*
X138921995Y-107011688D01*
X138764683Y-107169000D01*
X138356860Y-107169000D01*
X138352596Y-107163804D01*
X138194997Y-107034466D01*
X138015193Y-106938359D01*
X137820095Y-106879176D01*
X137752692Y-106872538D01*
X137772348Y-106807738D01*
X137782678Y-106702860D01*
X137782678Y-105702100D01*
X137772348Y-105597222D01*
X137741757Y-105496374D01*
X137692078Y-105403432D01*
X137625222Y-105321968D01*
X137543758Y-105255112D01*
X137520845Y-105242865D01*
X137721367Y-105042343D01*
X137788116Y-105078021D01*
X137888964Y-105108612D01*
X137993842Y-105118942D01*
X138098720Y-105108612D01*
X138199568Y-105078021D01*
X138292510Y-105028342D01*
X138373974Y-104961486D01*
X139505486Y-103829974D01*
X139572342Y-103748510D01*
X139622021Y-103655568D01*
X139652612Y-103554720D01*
X139662942Y-103449842D01*
X139652612Y-103344964D01*
X139622021Y-103244116D01*
X139572342Y-103151174D01*
X139505486Y-103069710D01*
X138230290Y-101794514D01*
X138148826Y-101727658D01*
X138093778Y-101698234D01*
X138095000Y-101692089D01*
X138095000Y-101507911D01*
X138059068Y-101327271D01*
X137988586Y-101157111D01*
X137886262Y-101003972D01*
X137756028Y-100873738D01*
X137648680Y-100802011D01*
X137660396Y-100792396D01*
X137694004Y-100751445D01*
X137789734Y-100634798D01*
X137842946Y-100535245D01*
X137885841Y-100454993D01*
X137945024Y-100259895D01*
X137960000Y-100107838D01*
X137960000Y-100107835D01*
X137965007Y-100057000D01*
X137960000Y-100006165D01*
X137960000Y-98787259D01*
X143840000Y-98787259D01*
X143840000Y-99212741D01*
X143923008Y-99630049D01*
X144085833Y-100023144D01*
X144322219Y-100376920D01*
X144623080Y-100677781D01*
X144976856Y-100914167D01*
X145369951Y-101076992D01*
X145787259Y-101160000D01*
X146212741Y-101160000D01*
X146630049Y-101076992D01*
X147023144Y-100914167D01*
X147376920Y-100677781D01*
X147677781Y-100376920D01*
X147914167Y-100023144D01*
X148076992Y-99630049D01*
X148160000Y-99212741D01*
X148160000Y-98787259D01*
X148076992Y-98369951D01*
X147914167Y-97976856D01*
X147677781Y-97623080D01*
X147376920Y-97322219D01*
X147023144Y-97085833D01*
X146630049Y-96923008D01*
X146212741Y-96840000D01*
X145787259Y-96840000D01*
X145369951Y-96923008D01*
X144976856Y-97085833D01*
X144623080Y-97322219D01*
X144322219Y-97623080D01*
X144085833Y-97976856D01*
X143923008Y-98369951D01*
X143840000Y-98787259D01*
X137960000Y-98787259D01*
X137960000Y-98631223D01*
X137962560Y-98629855D01*
X138081909Y-98531909D01*
X138179855Y-98412560D01*
X138252636Y-98276397D01*
X138285136Y-98169260D01*
X138440920Y-98359081D01*
X138651813Y-98532157D01*
X138892420Y-98660764D01*
X139153494Y-98739960D01*
X139425000Y-98766701D01*
X139696507Y-98739960D01*
X139957581Y-98660764D01*
X140198188Y-98532157D01*
X140409081Y-98359081D01*
X140582157Y-98148188D01*
X140710764Y-97907580D01*
X140789960Y-97646506D01*
X140810000Y-97443036D01*
X140810000Y-97006963D01*
X140789960Y-96803493D01*
X140710764Y-96542419D01*
X140582157Y-96301812D01*
X140409080Y-96090919D01*
X140198187Y-95917843D01*
X139957580Y-95789236D01*
X139696506Y-95710040D01*
X139425000Y-95683299D01*
X139153493Y-95710040D01*
X138892419Y-95789236D01*
X138651812Y-95917843D01*
X138440919Y-96090920D01*
X138285136Y-96280741D01*
X138252636Y-96173603D01*
X138179855Y-96037440D01*
X138081909Y-95918091D01*
X137962560Y-95820145D01*
X137826397Y-95747364D01*
X137678651Y-95702545D01*
X137525000Y-95687412D01*
X136325000Y-95687412D01*
X136171349Y-95702545D01*
X136023603Y-95747364D01*
X135887440Y-95820145D01*
X135768091Y-95918091D01*
X135670145Y-96037440D01*
X135597364Y-96173603D01*
X135552545Y-96321349D01*
X135537412Y-96475000D01*
X135537412Y-97975000D01*
X135552545Y-98128651D01*
X135597364Y-98276397D01*
X135670145Y-98412560D01*
X135768091Y-98531909D01*
X135887440Y-98629855D01*
X135890001Y-98631224D01*
X135890000Y-99628289D01*
X135715290Y-99803000D01*
X134902162Y-99803000D01*
X134750105Y-99817976D01*
X134555007Y-99877159D01*
X134428437Y-99944812D01*
X133953000Y-99944812D01*
X133848122Y-99955142D01*
X133747274Y-99985733D01*
X133654332Y-100035412D01*
X133572868Y-100102268D01*
X133506012Y-100183732D01*
X133456333Y-100276674D01*
X133425742Y-100377522D01*
X133415412Y-100482400D01*
X133415412Y-101193600D01*
X133425742Y-101298478D01*
X133456333Y-101399326D01*
X133495713Y-101473000D01*
X133456333Y-101546674D01*
X133425742Y-101647522D01*
X133415412Y-101752400D01*
X133415412Y-101885322D01*
X133298894Y-101849976D01*
X133096000Y-101829993D01*
X132893105Y-101849976D01*
X132861000Y-101859715D01*
X132861000Y-99936335D01*
X132866007Y-99885500D01*
X132860324Y-99827803D01*
X132846024Y-99682605D01*
X132786841Y-99487507D01*
X132690734Y-99307703D01*
X132561396Y-99150104D01*
X132521903Y-99117693D01*
X132276307Y-98872097D01*
X132243896Y-98832604D01*
X132086297Y-98703266D01*
X132052470Y-98685185D01*
X132160764Y-98482580D01*
X132239960Y-98221506D01*
X132260000Y-98018036D01*
X132260000Y-97581963D01*
X132239960Y-97378493D01*
X132160764Y-97117419D01*
X132032157Y-96876812D01*
X131859080Y-96665919D01*
X131648187Y-96492843D01*
X131407580Y-96364236D01*
X131146506Y-96285040D01*
X130875000Y-96258299D01*
X130603493Y-96285040D01*
X130342419Y-96364236D01*
X130101812Y-96492843D01*
X129890919Y-96665920D01*
X129717843Y-96876813D01*
X129589236Y-97117420D01*
X129510040Y-97378494D01*
X129490000Y-97581964D01*
X129490000Y-98018037D01*
X129510040Y-98221507D01*
X129589236Y-98482581D01*
X129616185Y-98533000D01*
X109647103Y-98533000D01*
X109712132Y-98479632D01*
X109778988Y-98398168D01*
X109828667Y-98305226D01*
X109859258Y-98204378D01*
X109869588Y-98099500D01*
X109869588Y-97099500D01*
X109859258Y-96994622D01*
X109828667Y-96893774D01*
X109778988Y-96800832D01*
X109712132Y-96719368D01*
X109630668Y-96652512D01*
X109537726Y-96602833D01*
X109436878Y-96572242D01*
X109332000Y-96561912D01*
X108006561Y-96561912D01*
X107982000Y-96559493D01*
X107957439Y-96561912D01*
X106632000Y-96561912D01*
X106527122Y-96572242D01*
X106426274Y-96602833D01*
X106333332Y-96652512D01*
X106251868Y-96719368D01*
X106185012Y-96800832D01*
X106135333Y-96893774D01*
X106104742Y-96994622D01*
X106094412Y-97099500D01*
X106094412Y-98022309D01*
X106070900Y-98019993D01*
X106020065Y-98025000D01*
X106020062Y-98025000D01*
X105868005Y-98039976D01*
X105672907Y-98099159D01*
X105493103Y-98195266D01*
X105335504Y-98324604D01*
X105303093Y-98364097D01*
X104952593Y-98714597D01*
X104913105Y-98747004D01*
X104880698Y-98786492D01*
X104880697Y-98786493D01*
X104783766Y-98904603D01*
X104687660Y-99084407D01*
X104628477Y-99279505D01*
X104608494Y-99482400D01*
X104613501Y-99533237D01*
X104613501Y-99948259D01*
X104543622Y-99955142D01*
X104442774Y-99985733D01*
X104349832Y-100035412D01*
X104309500Y-100068512D01*
X104309500Y-98354036D01*
X104431657Y-98205188D01*
X104560264Y-97964580D01*
X104639460Y-97703506D01*
X104659500Y-97500036D01*
X104659500Y-97063963D01*
X104639460Y-96860493D01*
X104560264Y-96599419D01*
X104431657Y-96358812D01*
X104258580Y-96147919D01*
X104047687Y-95974843D01*
X103807080Y-95846236D01*
X103546006Y-95767040D01*
X103274500Y-95740299D01*
X103002993Y-95767040D01*
X102741919Y-95846236D01*
X102501312Y-95974843D01*
X102290419Y-96147920D01*
X102134636Y-96337741D01*
X102102136Y-96230603D01*
X102029355Y-96094440D01*
X101931409Y-95975091D01*
X101812060Y-95877145D01*
X101675897Y-95804364D01*
X101528151Y-95759545D01*
X101374500Y-95744412D01*
X100174500Y-95744412D01*
X100020849Y-95759545D01*
X99873103Y-95804364D01*
X99736940Y-95877145D01*
X99617591Y-95975091D01*
X99519645Y-96094440D01*
X99446864Y-96230603D01*
X99402045Y-96378349D01*
X99386912Y-96532000D01*
X99386912Y-98032000D01*
X99402045Y-98185651D01*
X99446864Y-98333397D01*
X99519645Y-98469560D01*
X99617591Y-98588909D01*
X99736940Y-98686855D01*
X99739500Y-98688223D01*
X99739501Y-102628662D01*
X99734494Y-102679500D01*
X99754477Y-102882395D01*
X99813660Y-103077493D01*
X99839821Y-103126438D01*
X99765726Y-103086833D01*
X99664878Y-103056242D01*
X99560000Y-103045912D01*
X98560000Y-103045912D01*
X98455122Y-103056242D01*
X98354274Y-103086833D01*
X98261332Y-103136512D01*
X98179868Y-103203368D01*
X98113012Y-103284832D01*
X98063333Y-103377774D01*
X98032742Y-103478622D01*
X98022412Y-103583500D01*
X98022412Y-103894469D01*
X98012500Y-103893493D01*
X97961665Y-103898500D01*
X97961662Y-103898500D01*
X97809605Y-103913476D01*
X97614507Y-103972659D01*
X97434703Y-104068766D01*
X97277104Y-104198104D01*
X97244693Y-104237597D01*
X96941697Y-104540593D01*
X96902204Y-104573004D01*
X96772866Y-104730603D01*
X96676759Y-104910408D01*
X96617576Y-105105506D01*
X96602600Y-105257563D01*
X96602600Y-105257572D01*
X96597594Y-105308400D01*
X96602600Y-105359229D01*
X96602601Y-106131832D01*
X96543332Y-106163512D01*
X96461868Y-106230368D01*
X96395012Y-106311832D01*
X96345333Y-106404774D01*
X96314742Y-106505622D01*
X96304412Y-106610500D01*
X96304412Y-107610500D01*
X96314742Y-107715378D01*
X96345333Y-107816226D01*
X96395012Y-107909168D01*
X96461868Y-107990632D01*
X96543332Y-108057488D01*
X96636274Y-108107167D01*
X96737122Y-108137758D01*
X96842000Y-108148088D01*
X98017440Y-108148088D01*
X98042000Y-108150507D01*
X98066560Y-108148088D01*
X99127878Y-108148088D01*
X99370066Y-108390276D01*
X99346878Y-108383242D01*
X99242000Y-108372912D01*
X96842000Y-108372912D01*
X96815725Y-108375500D01*
X94983338Y-108375500D01*
X94932500Y-108370493D01*
X94881662Y-108375500D01*
X93329588Y-108375500D01*
X93329588Y-107510500D01*
X93319258Y-107405622D01*
X93288667Y-107304774D01*
X93238988Y-107211832D01*
X93172132Y-107130368D01*
X93090668Y-107063512D01*
X92997726Y-107013833D01*
X92896878Y-106983242D01*
X92792000Y-106972912D01*
X92729000Y-106972912D01*
X92729000Y-105459273D01*
X92792768Y-105425188D01*
X92874232Y-105358332D01*
X92941088Y-105276868D01*
X92990767Y-105183926D01*
X93021358Y-105083078D01*
X93031688Y-104978200D01*
X93031688Y-103174800D01*
X93021358Y-103069922D01*
X92990767Y-102969074D01*
X92941088Y-102876132D01*
X92874232Y-102794668D01*
X92792768Y-102727812D01*
X92699826Y-102678133D01*
X92598978Y-102647542D01*
X92494100Y-102637212D01*
X90893900Y-102637212D01*
X90789022Y-102647542D01*
X90688174Y-102678133D01*
X90595232Y-102727812D01*
X90560000Y-102756726D01*
X90560000Y-100024940D01*
X90632362Y-99214137D01*
X90749143Y-98787259D01*
X91840000Y-98787259D01*
X91840000Y-99212741D01*
X91923008Y-99630049D01*
X92085833Y-100023144D01*
X92322219Y-100376920D01*
X92623080Y-100677781D01*
X92976856Y-100914167D01*
X93369951Y-101076992D01*
X93787259Y-101160000D01*
X94212741Y-101160000D01*
X94630049Y-101076992D01*
X95023144Y-100914167D01*
X95376920Y-100677781D01*
X95677781Y-100376920D01*
X95914167Y-100023144D01*
X96076992Y-99630049D01*
X96160000Y-99212741D01*
X96160000Y-98787259D01*
X96076992Y-98369951D01*
X95914167Y-97976856D01*
X95677781Y-97623080D01*
X95376920Y-97322219D01*
X95023144Y-97085833D01*
X94630049Y-96923008D01*
X94212741Y-96840000D01*
X93787259Y-96840000D01*
X93369951Y-96923008D01*
X92976856Y-97085833D01*
X92623080Y-97322219D01*
X92322219Y-97623080D01*
X92085833Y-97976856D01*
X91923008Y-98369951D01*
X91840000Y-98787259D01*
X90749143Y-98787259D01*
X90840554Y-98453118D01*
X91180221Y-97740989D01*
X91640628Y-97100266D01*
X92207215Y-96551203D01*
X92862086Y-96111149D01*
X93584531Y-95794018D01*
X94356025Y-95608798D01*
X95020532Y-95560000D01*
X114771352Y-95560000D01*
X114767412Y-95600000D01*
G36*
X128222158Y-119082316D02*
G01*
X128246736Y-119112264D01*
X128276684Y-119136842D01*
X128276687Y-119136845D01*
X128296125Y-119152797D01*
X128366267Y-119210362D01*
X128502640Y-119283254D01*
X128650613Y-119328141D01*
X128765939Y-119339500D01*
X128765946Y-119339500D01*
X128804499Y-119343297D01*
X128843052Y-119339500D01*
X129938164Y-119339500D01*
X129916742Y-119410122D01*
X129906412Y-119515000D01*
X129906412Y-120515000D01*
X129916742Y-120619878D01*
X129947333Y-120720726D01*
X129997012Y-120813668D01*
X130063868Y-120895132D01*
X130145332Y-120961988D01*
X130238274Y-121011667D01*
X130339122Y-121042258D01*
X130444000Y-121052588D01*
X133144000Y-121052588D01*
X133248878Y-121042258D01*
X133349726Y-121011667D01*
X133442668Y-120961988D01*
X133521038Y-120897672D01*
X133539133Y-120957326D01*
X133588812Y-121050268D01*
X133655668Y-121131732D01*
X133737132Y-121198588D01*
X133830074Y-121248267D01*
X133930922Y-121278858D01*
X134035800Y-121289188D01*
X135839200Y-121289188D01*
X135944078Y-121278858D01*
X136044926Y-121248267D01*
X136137868Y-121198588D01*
X136219332Y-121131732D01*
X136271000Y-121068775D01*
X136322668Y-121131732D01*
X136404132Y-121198588D01*
X136497074Y-121248267D01*
X136597922Y-121278858D01*
X136702800Y-121289188D01*
X136819500Y-121289188D01*
X136819500Y-121563947D01*
X136815703Y-121602500D01*
X136819500Y-121641053D01*
X136819500Y-121641060D01*
X136830859Y-121756386D01*
X136875746Y-121904359D01*
X136948638Y-122040732D01*
X137046736Y-122160264D01*
X137076690Y-122184847D01*
X138280001Y-123388159D01*
X138280001Y-124319412D01*
X138065000Y-124319412D01*
X137960122Y-124329742D01*
X137859274Y-124360333D01*
X137795000Y-124394688D01*
X137730726Y-124360333D01*
X137629878Y-124329742D01*
X137525000Y-124319412D01*
X137301646Y-124319412D01*
X137298641Y-124288900D01*
X137297364Y-124284688D01*
X137284916Y-124243654D01*
X137253754Y-124140927D01*
X137180862Y-124004554D01*
X137082764Y-123885023D01*
X137052817Y-123860446D01*
X135434560Y-122242190D01*
X135409979Y-122212238D01*
X135290448Y-122114140D01*
X135154075Y-122041248D01*
X135006102Y-121996361D01*
X134890776Y-121985002D01*
X134890768Y-121985002D01*
X134852215Y-121981205D01*
X134813662Y-121985002D01*
X127995647Y-121985002D01*
X128082586Y-121854889D01*
X128153068Y-121684729D01*
X128189000Y-121504089D01*
X128189000Y-121319911D01*
X128153068Y-121139271D01*
X128082586Y-120969111D01*
X127980262Y-120815972D01*
X127850028Y-120685738D01*
X127696889Y-120583414D01*
X127526729Y-120512932D01*
X127346089Y-120477000D01*
X127161911Y-120477000D01*
X126981271Y-120512932D01*
X126811111Y-120583414D01*
X126657972Y-120685738D01*
X126527738Y-120815972D01*
X126425414Y-120969111D01*
X126407288Y-121012871D01*
X126407288Y-119468900D01*
X126396958Y-119364022D01*
X126366367Y-119263174D01*
X126316688Y-119170232D01*
X126249832Y-119088768D01*
X126168368Y-119021912D01*
X126075426Y-118972233D01*
X125974578Y-118941642D01*
X125869700Y-118931312D01*
X124740469Y-118931312D01*
X124661345Y-118852188D01*
X124636764Y-118822236D01*
X124625130Y-118812688D01*
X125869700Y-118812688D01*
X125974578Y-118802358D01*
X126075426Y-118771767D01*
X126161709Y-118725648D01*
X126252311Y-118786186D01*
X126422471Y-118856668D01*
X126603111Y-118892600D01*
X126787289Y-118892600D01*
X126967929Y-118856668D01*
X127138089Y-118786186D01*
X127291228Y-118683862D01*
X127421462Y-118553628D01*
X127523786Y-118400489D01*
X127528632Y-118388790D01*
X128222158Y-119082316D01*
X128222158Y-119082316D01*
G37*
X128222158Y-119082316D02*
X128246736Y-119112264D01*
X128276684Y-119136842D01*
X128276687Y-119136845D01*
X128296125Y-119152797D01*
X128366267Y-119210362D01*
X128502640Y-119283254D01*
X128650613Y-119328141D01*
X128765939Y-119339500D01*
X128765946Y-119339500D01*
X128804499Y-119343297D01*
X128843052Y-119339500D01*
X129938164Y-119339500D01*
X129916742Y-119410122D01*
X129906412Y-119515000D01*
X129906412Y-120515000D01*
X129916742Y-120619878D01*
X129947333Y-120720726D01*
X129997012Y-120813668D01*
X130063868Y-120895132D01*
X130145332Y-120961988D01*
X130238274Y-121011667D01*
X130339122Y-121042258D01*
X130444000Y-121052588D01*
X133144000Y-121052588D01*
X133248878Y-121042258D01*
X133349726Y-121011667D01*
X133442668Y-120961988D01*
X133521038Y-120897672D01*
X133539133Y-120957326D01*
X133588812Y-121050268D01*
X133655668Y-121131732D01*
X133737132Y-121198588D01*
X133830074Y-121248267D01*
X133930922Y-121278858D01*
X134035800Y-121289188D01*
X135839200Y-121289188D01*
X135944078Y-121278858D01*
X136044926Y-121248267D01*
X136137868Y-121198588D01*
X136219332Y-121131732D01*
X136271000Y-121068775D01*
X136322668Y-121131732D01*
X136404132Y-121198588D01*
X136497074Y-121248267D01*
X136597922Y-121278858D01*
X136702800Y-121289188D01*
X136819500Y-121289188D01*
X136819500Y-121563947D01*
X136815703Y-121602500D01*
X136819500Y-121641053D01*
X136819500Y-121641060D01*
X136830859Y-121756386D01*
X136875746Y-121904359D01*
X136948638Y-122040732D01*
X137046736Y-122160264D01*
X137076690Y-122184847D01*
X138280001Y-123388159D01*
X138280001Y-124319412D01*
X138065000Y-124319412D01*
X137960122Y-124329742D01*
X137859274Y-124360333D01*
X137795000Y-124394688D01*
X137730726Y-124360333D01*
X137629878Y-124329742D01*
X137525000Y-124319412D01*
X137301646Y-124319412D01*
X137298641Y-124288900D01*
X137297364Y-124284688D01*
X137284916Y-124243654D01*
X137253754Y-124140927D01*
X137180862Y-124004554D01*
X137082764Y-123885023D01*
X137052817Y-123860446D01*
X135434560Y-122242190D01*
X135409979Y-122212238D01*
X135290448Y-122114140D01*
X135154075Y-122041248D01*
X135006102Y-121996361D01*
X134890776Y-121985002D01*
X134890768Y-121985002D01*
X134852215Y-121981205D01*
X134813662Y-121985002D01*
X127995647Y-121985002D01*
X128082586Y-121854889D01*
X128153068Y-121684729D01*
X128189000Y-121504089D01*
X128189000Y-121319911D01*
X128153068Y-121139271D01*
X128082586Y-120969111D01*
X127980262Y-120815972D01*
X127850028Y-120685738D01*
X127696889Y-120583414D01*
X127526729Y-120512932D01*
X127346089Y-120477000D01*
X127161911Y-120477000D01*
X126981271Y-120512932D01*
X126811111Y-120583414D01*
X126657972Y-120685738D01*
X126527738Y-120815972D01*
X126425414Y-120969111D01*
X126407288Y-121012871D01*
X126407288Y-119468900D01*
X126396958Y-119364022D01*
X126366367Y-119263174D01*
X126316688Y-119170232D01*
X126249832Y-119088768D01*
X126168368Y-119021912D01*
X126075426Y-118972233D01*
X125974578Y-118941642D01*
X125869700Y-118931312D01*
X124740469Y-118931312D01*
X124661345Y-118852188D01*
X124636764Y-118822236D01*
X124625130Y-118812688D01*
X125869700Y-118812688D01*
X125974578Y-118802358D01*
X126075426Y-118771767D01*
X126161709Y-118725648D01*
X126252311Y-118786186D01*
X126422471Y-118856668D01*
X126603111Y-118892600D01*
X126787289Y-118892600D01*
X126967929Y-118856668D01*
X127138089Y-118786186D01*
X127291228Y-118683862D01*
X127421462Y-118553628D01*
X127523786Y-118400489D01*
X127528632Y-118388790D01*
X128222158Y-119082316D01*
G36*
X116857867Y-106919024D02*
G01*
X116820122Y-106922742D01*
X116719274Y-106953333D01*
X116626332Y-107003012D01*
X116544868Y-107069868D01*
X116478012Y-107151332D01*
X116428333Y-107244274D01*
X116397742Y-107345122D01*
X116387412Y-107450000D01*
X116387412Y-107465000D01*
X115575464Y-107465000D01*
X115441389Y-107375414D01*
X115271229Y-107304932D01*
X115090589Y-107269000D01*
X114906411Y-107269000D01*
X114725771Y-107304932D01*
X114555611Y-107375414D01*
X114402472Y-107477738D01*
X114272238Y-107607972D01*
X114169914Y-107761111D01*
X114099432Y-107931271D01*
X114063500Y-108111911D01*
X114063500Y-108296089D01*
X114096307Y-108461018D01*
X114064729Y-108447938D01*
X113884089Y-108412006D01*
X113699911Y-108412006D01*
X113519271Y-108447938D01*
X113349111Y-108518420D01*
X113195972Y-108620744D01*
X113065738Y-108750978D01*
X112963414Y-108904117D01*
X112892932Y-109074277D01*
X112868043Y-109199400D01*
X112734711Y-109199400D01*
X112554071Y-109235332D01*
X112383911Y-109305814D01*
X112230772Y-109408138D01*
X112100538Y-109538372D01*
X111998214Y-109691511D01*
X111927732Y-109861671D01*
X111891800Y-110042311D01*
X111891800Y-110226489D01*
X111927732Y-110407129D01*
X111952531Y-110467000D01*
X110846056Y-110467000D01*
X110807500Y-110463203D01*
X110768944Y-110467000D01*
X110768939Y-110467000D01*
X110728526Y-110470980D01*
X110653613Y-110478358D01*
X110532823Y-110515000D01*
X110505640Y-110523246D01*
X110369267Y-110596138D01*
X110249736Y-110694236D01*
X110225153Y-110724190D01*
X109720343Y-111229000D01*
X108496552Y-111229000D01*
X108457999Y-111225203D01*
X108419446Y-111229000D01*
X108419439Y-111229000D01*
X108318490Y-111238943D01*
X108304112Y-111240359D01*
X108276175Y-111248834D01*
X108156140Y-111285246D01*
X108019767Y-111358138D01*
X107900236Y-111456236D01*
X107875655Y-111486188D01*
X107676185Y-111685658D01*
X107646237Y-111710236D01*
X107621659Y-111740184D01*
X107621655Y-111740188D01*
X107606161Y-111759068D01*
X107548139Y-111829767D01*
X107520828Y-111880863D01*
X107475246Y-111966141D01*
X107442736Y-112073312D01*
X107302300Y-112073312D01*
X107197422Y-112083642D01*
X107096574Y-112114233D01*
X107003632Y-112163912D01*
X106922168Y-112230768D01*
X106855312Y-112312232D01*
X106805633Y-112405174D01*
X106775042Y-112506022D01*
X106764712Y-112610900D01*
X106764712Y-114211100D01*
X106775042Y-114315978D01*
X106805633Y-114416826D01*
X106855312Y-114509768D01*
X106919025Y-114587402D01*
X106896768Y-114605668D01*
X106829912Y-114687132D01*
X106780233Y-114780074D01*
X106749642Y-114880922D01*
X106739312Y-114985800D01*
X106739312Y-115102405D01*
X106738344Y-115102500D01*
X106738339Y-115102500D01*
X106697926Y-115106480D01*
X106623013Y-115113858D01*
X106486954Y-115155132D01*
X106475040Y-115158746D01*
X106338667Y-115231638D01*
X106219136Y-115329736D01*
X106194549Y-115359695D01*
X105898191Y-115656053D01*
X105868236Y-115680636D01*
X105770138Y-115800168D01*
X105697246Y-115936541D01*
X105652359Y-116084514D01*
X105641000Y-116199840D01*
X105641000Y-116199847D01*
X105637203Y-116238400D01*
X105641000Y-116276953D01*
X105641000Y-116331888D01*
X105597414Y-116397119D01*
X105526932Y-116567279D01*
X105491000Y-116747919D01*
X105491000Y-116932097D01*
X105526932Y-117112737D01*
X105597414Y-117282897D01*
X105699738Y-117436036D01*
X105829972Y-117566270D01*
X105983111Y-117668594D01*
X106153271Y-117739076D01*
X106333911Y-117775008D01*
X106518089Y-117775008D01*
X106698729Y-117739076D01*
X106868889Y-117668594D01*
X107022028Y-117566270D01*
X107152262Y-117436036D01*
X107228448Y-117322016D01*
X107276900Y-117326788D01*
X108877100Y-117326788D01*
X108981978Y-117316458D01*
X109073496Y-117288697D01*
X109047000Y-117421901D01*
X109047000Y-117606079D01*
X109082932Y-117786719D01*
X109153414Y-117956879D01*
X109255738Y-118110018D01*
X109385972Y-118240252D01*
X109539111Y-118342576D01*
X109709271Y-118413058D01*
X109889911Y-118448990D01*
X110074089Y-118448990D01*
X110131841Y-118437502D01*
X109898690Y-118670653D01*
X109868736Y-118695236D01*
X109770638Y-118814768D01*
X109697746Y-118951141D01*
X109652859Y-119099114D01*
X109641500Y-119214440D01*
X109641500Y-119214447D01*
X109637703Y-119253000D01*
X109641500Y-119291553D01*
X109641501Y-119943842D01*
X109085343Y-120500000D01*
X107500056Y-120500000D01*
X107461500Y-120496203D01*
X107422944Y-120500000D01*
X107422939Y-120500000D01*
X107382526Y-120503980D01*
X107307613Y-120511358D01*
X107159640Y-120556246D01*
X107023267Y-120629138D01*
X106903736Y-120727236D01*
X106879155Y-120757188D01*
X105517190Y-122119153D01*
X105487236Y-122143736D01*
X105389138Y-122263268D01*
X105379577Y-122281155D01*
X105354083Y-122276084D01*
X105254233Y-122194138D01*
X105117860Y-122121246D01*
X105067688Y-122106027D01*
X105067688Y-121948300D01*
X105057358Y-121843422D01*
X105026767Y-121742574D01*
X104977088Y-121649632D01*
X104910232Y-121568168D01*
X104828768Y-121501312D01*
X104735826Y-121451633D01*
X104634978Y-121421042D01*
X104530100Y-121410712D01*
X103000997Y-121410712D01*
X103000997Y-116676567D01*
X103058893Y-116652586D01*
X103212032Y-116550262D01*
X103342266Y-116420028D01*
X103444590Y-116266889D01*
X103515072Y-116096729D01*
X103551004Y-115916089D01*
X103551004Y-115731911D01*
X103515072Y-115551271D01*
X103444590Y-115381111D01*
X103342266Y-115227972D01*
X103212032Y-115097738D01*
X103058893Y-114995414D01*
X102888733Y-114924932D01*
X102708093Y-114889000D01*
X102523915Y-114889000D01*
X102343275Y-114924932D01*
X102173115Y-114995414D01*
X102019976Y-115097738D01*
X101889742Y-115227972D01*
X101787418Y-115381111D01*
X101716936Y-115551271D01*
X101701630Y-115628217D01*
X101688182Y-115641665D01*
X101658234Y-115666243D01*
X101633656Y-115696191D01*
X101633652Y-115696195D01*
X101604341Y-115731911D01*
X101560136Y-115785774D01*
X101525804Y-115850005D01*
X101487243Y-115922148D01*
X101464500Y-115997122D01*
X101464500Y-115162841D01*
X101520161Y-115117161D01*
X101711981Y-114883427D01*
X101854517Y-114616761D01*
X101942290Y-114327413D01*
X101964500Y-114101908D01*
X101964500Y-112951092D01*
X101942290Y-112725587D01*
X101854517Y-112436239D01*
X101711981Y-112169573D01*
X101520161Y-111935839D01*
X101512179Y-111929288D01*
X102984300Y-111929288D01*
X103089178Y-111918958D01*
X103190026Y-111888367D01*
X103282968Y-111838688D01*
X103364432Y-111771832D01*
X103431288Y-111690368D01*
X103480967Y-111597426D01*
X103511558Y-111496578D01*
X103521888Y-111391700D01*
X103521888Y-109588300D01*
X103512501Y-109493000D01*
X106933972Y-109493000D01*
X106984800Y-109498006D01*
X107035628Y-109493000D01*
X107035638Y-109493000D01*
X107187695Y-109478024D01*
X107382793Y-109418841D01*
X107562597Y-109322734D01*
X107720196Y-109193396D01*
X107752607Y-109153903D01*
X109577906Y-107328605D01*
X109617394Y-107296198D01*
X109654789Y-107250632D01*
X109746732Y-107138600D01*
X109810622Y-107019068D01*
X109842839Y-106958795D01*
X109894472Y-106788586D01*
X109963262Y-106817079D01*
X110143902Y-106853011D01*
X110328080Y-106853011D01*
X110508720Y-106817079D01*
X110678880Y-106746597D01*
X110832019Y-106644273D01*
X110962253Y-106514039D01*
X111064577Y-106360900D01*
X111135059Y-106190740D01*
X111170991Y-106010100D01*
X111170991Y-105825922D01*
X111135059Y-105645282D01*
X111064577Y-105475122D01*
X110962253Y-105321983D01*
X110832019Y-105191749D01*
X110678880Y-105089425D01*
X110620992Y-105065447D01*
X110620992Y-104268479D01*
X110648500Y-104271188D01*
X112648500Y-104271188D01*
X112753378Y-104260858D01*
X112854226Y-104230267D01*
X112947168Y-104180588D01*
X112968599Y-104163000D01*
X114101843Y-104163000D01*
X116857867Y-106919024D01*
X116857867Y-106919024D01*
G37*
X116857867Y-106919024D02*
X116820122Y-106922742D01*
X116719274Y-106953333D01*
X116626332Y-107003012D01*
X116544868Y-107069868D01*
X116478012Y-107151332D01*
X116428333Y-107244274D01*
X116397742Y-107345122D01*
X116387412Y-107450000D01*
X116387412Y-107465000D01*
X115575464Y-107465000D01*
X115441389Y-107375414D01*
X115271229Y-107304932D01*
X115090589Y-107269000D01*
X114906411Y-107269000D01*
X114725771Y-107304932D01*
X114555611Y-107375414D01*
X114402472Y-107477738D01*
X114272238Y-107607972D01*
X114169914Y-107761111D01*
X114099432Y-107931271D01*
X114063500Y-108111911D01*
X114063500Y-108296089D01*
X114096307Y-108461018D01*
X114064729Y-108447938D01*
X113884089Y-108412006D01*
X113699911Y-108412006D01*
X113519271Y-108447938D01*
X113349111Y-108518420D01*
X113195972Y-108620744D01*
X113065738Y-108750978D01*
X112963414Y-108904117D01*
X112892932Y-109074277D01*
X112868043Y-109199400D01*
X112734711Y-109199400D01*
X112554071Y-109235332D01*
X112383911Y-109305814D01*
X112230772Y-109408138D01*
X112100538Y-109538372D01*
X111998214Y-109691511D01*
X111927732Y-109861671D01*
X111891800Y-110042311D01*
X111891800Y-110226489D01*
X111927732Y-110407129D01*
X111952531Y-110467000D01*
X110846056Y-110467000D01*
X110807500Y-110463203D01*
X110768944Y-110467000D01*
X110768939Y-110467000D01*
X110728526Y-110470980D01*
X110653613Y-110478358D01*
X110532823Y-110515000D01*
X110505640Y-110523246D01*
X110369267Y-110596138D01*
X110249736Y-110694236D01*
X110225153Y-110724190D01*
X109720343Y-111229000D01*
X108496552Y-111229000D01*
X108457999Y-111225203D01*
X108419446Y-111229000D01*
X108419439Y-111229000D01*
X108318490Y-111238943D01*
X108304112Y-111240359D01*
X108276175Y-111248834D01*
X108156140Y-111285246D01*
X108019767Y-111358138D01*
X107900236Y-111456236D01*
X107875655Y-111486188D01*
X107676185Y-111685658D01*
X107646237Y-111710236D01*
X107621659Y-111740184D01*
X107621655Y-111740188D01*
X107606161Y-111759068D01*
X107548139Y-111829767D01*
X107520828Y-111880863D01*
X107475246Y-111966141D01*
X107442736Y-112073312D01*
X107302300Y-112073312D01*
X107197422Y-112083642D01*
X107096574Y-112114233D01*
X107003632Y-112163912D01*
X106922168Y-112230768D01*
X106855312Y-112312232D01*
X106805633Y-112405174D01*
X106775042Y-112506022D01*
X106764712Y-112610900D01*
X106764712Y-114211100D01*
X106775042Y-114315978D01*
X106805633Y-114416826D01*
X106855312Y-114509768D01*
X106919025Y-114587402D01*
X106896768Y-114605668D01*
X106829912Y-114687132D01*
X106780233Y-114780074D01*
X106749642Y-114880922D01*
X106739312Y-114985800D01*
X106739312Y-115102405D01*
X106738344Y-115102500D01*
X106738339Y-115102500D01*
X106697926Y-115106480D01*
X106623013Y-115113858D01*
X106486954Y-115155132D01*
X106475040Y-115158746D01*
X106338667Y-115231638D01*
X106219136Y-115329736D01*
X106194549Y-115359695D01*
X105898191Y-115656053D01*
X105868236Y-115680636D01*
X105770138Y-115800168D01*
X105697246Y-115936541D01*
X105652359Y-116084514D01*
X105641000Y-116199840D01*
X105641000Y-116199847D01*
X105637203Y-116238400D01*
X105641000Y-116276953D01*
X105641000Y-116331888D01*
X105597414Y-116397119D01*
X105526932Y-116567279D01*
X105491000Y-116747919D01*
X105491000Y-116932097D01*
X105526932Y-117112737D01*
X105597414Y-117282897D01*
X105699738Y-117436036D01*
X105829972Y-117566270D01*
X105983111Y-117668594D01*
X106153271Y-117739076D01*
X106333911Y-117775008D01*
X106518089Y-117775008D01*
X106698729Y-117739076D01*
X106868889Y-117668594D01*
X107022028Y-117566270D01*
X107152262Y-117436036D01*
X107228448Y-117322016D01*
X107276900Y-117326788D01*
X108877100Y-117326788D01*
X108981978Y-117316458D01*
X109073496Y-117288697D01*
X109047000Y-117421901D01*
X109047000Y-117606079D01*
X109082932Y-117786719D01*
X109153414Y-117956879D01*
X109255738Y-118110018D01*
X109385972Y-118240252D01*
X109539111Y-118342576D01*
X109709271Y-118413058D01*
X109889911Y-118448990D01*
X110074089Y-118448990D01*
X110131841Y-118437502D01*
X109898690Y-118670653D01*
X109868736Y-118695236D01*
X109770638Y-118814768D01*
X109697746Y-118951141D01*
X109652859Y-119099114D01*
X109641500Y-119214440D01*
X109641500Y-119214447D01*
X109637703Y-119253000D01*
X109641500Y-119291553D01*
X109641501Y-119943842D01*
X109085343Y-120500000D01*
X107500056Y-120500000D01*
X107461500Y-120496203D01*
X107422944Y-120500000D01*
X107422939Y-120500000D01*
X107382526Y-120503980D01*
X107307613Y-120511358D01*
X107159640Y-120556246D01*
X107023267Y-120629138D01*
X106903736Y-120727236D01*
X106879155Y-120757188D01*
X105517190Y-122119153D01*
X105487236Y-122143736D01*
X105389138Y-122263268D01*
X105379577Y-122281155D01*
X105354083Y-122276084D01*
X105254233Y-122194138D01*
X105117860Y-122121246D01*
X105067688Y-122106027D01*
X105067688Y-121948300D01*
X105057358Y-121843422D01*
X105026767Y-121742574D01*
X104977088Y-121649632D01*
X104910232Y-121568168D01*
X104828768Y-121501312D01*
X104735826Y-121451633D01*
X104634978Y-121421042D01*
X104530100Y-121410712D01*
X103000997Y-121410712D01*
X103000997Y-116676567D01*
X103058893Y-116652586D01*
X103212032Y-116550262D01*
X103342266Y-116420028D01*
X103444590Y-116266889D01*
X103515072Y-116096729D01*
X103551004Y-115916089D01*
X103551004Y-115731911D01*
X103515072Y-115551271D01*
X103444590Y-115381111D01*
X103342266Y-115227972D01*
X103212032Y-115097738D01*
X103058893Y-114995414D01*
X102888733Y-114924932D01*
X102708093Y-114889000D01*
X102523915Y-114889000D01*
X102343275Y-114924932D01*
X102173115Y-114995414D01*
X102019976Y-115097738D01*
X101889742Y-115227972D01*
X101787418Y-115381111D01*
X101716936Y-115551271D01*
X101701630Y-115628217D01*
X101688182Y-115641665D01*
X101658234Y-115666243D01*
X101633656Y-115696191D01*
X101633652Y-115696195D01*
X101604341Y-115731911D01*
X101560136Y-115785774D01*
X101525804Y-115850005D01*
X101487243Y-115922148D01*
X101464500Y-115997122D01*
X101464500Y-115162841D01*
X101520161Y-115117161D01*
X101711981Y-114883427D01*
X101854517Y-114616761D01*
X101942290Y-114327413D01*
X101964500Y-114101908D01*
X101964500Y-112951092D01*
X101942290Y-112725587D01*
X101854517Y-112436239D01*
X101711981Y-112169573D01*
X101520161Y-111935839D01*
X101512179Y-111929288D01*
X102984300Y-111929288D01*
X103089178Y-111918958D01*
X103190026Y-111888367D01*
X103282968Y-111838688D01*
X103364432Y-111771832D01*
X103431288Y-111690368D01*
X103480967Y-111597426D01*
X103511558Y-111496578D01*
X103521888Y-111391700D01*
X103521888Y-109588300D01*
X103512501Y-109493000D01*
X106933972Y-109493000D01*
X106984800Y-109498006D01*
X107035628Y-109493000D01*
X107035638Y-109493000D01*
X107187695Y-109478024D01*
X107382793Y-109418841D01*
X107562597Y-109322734D01*
X107720196Y-109193396D01*
X107752607Y-109153903D01*
X109577906Y-107328605D01*
X109617394Y-107296198D01*
X109654789Y-107250632D01*
X109746732Y-107138600D01*
X109810622Y-107019068D01*
X109842839Y-106958795D01*
X109894472Y-106788586D01*
X109963262Y-106817079D01*
X110143902Y-106853011D01*
X110328080Y-106853011D01*
X110508720Y-106817079D01*
X110678880Y-106746597D01*
X110832019Y-106644273D01*
X110962253Y-106514039D01*
X111064577Y-106360900D01*
X111135059Y-106190740D01*
X111170991Y-106010100D01*
X111170991Y-105825922D01*
X111135059Y-105645282D01*
X111064577Y-105475122D01*
X110962253Y-105321983D01*
X110832019Y-105191749D01*
X110678880Y-105089425D01*
X110620992Y-105065447D01*
X110620992Y-104268479D01*
X110648500Y-104271188D01*
X112648500Y-104271188D01*
X112753378Y-104260858D01*
X112854226Y-104230267D01*
X112947168Y-104180588D01*
X112968599Y-104163000D01*
X114101843Y-104163000D01*
X116857867Y-106919024D01*
G36*
X96630112Y-117782340D02*
G01*
X96640442Y-117887218D01*
X96671033Y-117988066D01*
X96691567Y-118026482D01*
X96635168Y-118072768D01*
X96568312Y-118154232D01*
X96518633Y-118247174D01*
X96488042Y-118348022D01*
X96477712Y-118452900D01*
X96477712Y-120053100D01*
X96488042Y-120157978D01*
X96518633Y-120258826D01*
X96568312Y-120351768D01*
X96635168Y-120433232D01*
X96716632Y-120500088D01*
X96809574Y-120549767D01*
X96910422Y-120580358D01*
X97015300Y-120590688D01*
X98818700Y-120590688D01*
X98894500Y-120583222D01*
X98894500Y-120601908D01*
X98905924Y-120717903D01*
X98818700Y-120709312D01*
X97015300Y-120709312D01*
X96910422Y-120719642D01*
X96809574Y-120750233D01*
X96716632Y-120799912D01*
X96635168Y-120866768D01*
X96568312Y-120948232D01*
X96518633Y-121041174D01*
X96488042Y-121142022D01*
X96477712Y-121246900D01*
X96477712Y-121262000D01*
X93384624Y-121262000D01*
X93561505Y-121143812D01*
X93775312Y-120930005D01*
X93943299Y-120678595D01*
X94059011Y-120399243D01*
X94118000Y-120102684D01*
X94118000Y-119800316D01*
X94059011Y-119503757D01*
X93943299Y-119224405D01*
X93775312Y-118972995D01*
X93561505Y-118759188D01*
X93445237Y-118681500D01*
X93561505Y-118603812D01*
X93775312Y-118390005D01*
X93853000Y-118273737D01*
X93930688Y-118390005D01*
X94144495Y-118603812D01*
X94395905Y-118771799D01*
X94675257Y-118887511D01*
X94971816Y-118946500D01*
X95274184Y-118946500D01*
X95570743Y-118887511D01*
X95850095Y-118771799D01*
X96101505Y-118603812D01*
X96315312Y-118390005D01*
X96483299Y-118138595D01*
X96599011Y-117859243D01*
X96630112Y-117702887D01*
X96630112Y-117782340D01*
X96630112Y-117782340D01*
G37*
X96630112Y-117782340D02*
X96640442Y-117887218D01*
X96671033Y-117988066D01*
X96691567Y-118026482D01*
X96635168Y-118072768D01*
X96568312Y-118154232D01*
X96518633Y-118247174D01*
X96488042Y-118348022D01*
X96477712Y-118452900D01*
X96477712Y-120053100D01*
X96488042Y-120157978D01*
X96518633Y-120258826D01*
X96568312Y-120351768D01*
X96635168Y-120433232D01*
X96716632Y-120500088D01*
X96809574Y-120549767D01*
X96910422Y-120580358D01*
X97015300Y-120590688D01*
X98818700Y-120590688D01*
X98894500Y-120583222D01*
X98894500Y-120601908D01*
X98905924Y-120717903D01*
X98818700Y-120709312D01*
X97015300Y-120709312D01*
X96910422Y-120719642D01*
X96809574Y-120750233D01*
X96716632Y-120799912D01*
X96635168Y-120866768D01*
X96568312Y-120948232D01*
X96518633Y-121041174D01*
X96488042Y-121142022D01*
X96477712Y-121246900D01*
X96477712Y-121262000D01*
X93384624Y-121262000D01*
X93561505Y-121143812D01*
X93775312Y-120930005D01*
X93943299Y-120678595D01*
X94059011Y-120399243D01*
X94118000Y-120102684D01*
X94118000Y-119800316D01*
X94059011Y-119503757D01*
X93943299Y-119224405D01*
X93775312Y-118972995D01*
X93561505Y-118759188D01*
X93445237Y-118681500D01*
X93561505Y-118603812D01*
X93775312Y-118390005D01*
X93853000Y-118273737D01*
X93930688Y-118390005D01*
X94144495Y-118603812D01*
X94395905Y-118771799D01*
X94675257Y-118887511D01*
X94971816Y-118946500D01*
X95274184Y-118946500D01*
X95570743Y-118887511D01*
X95850095Y-118771799D01*
X96101505Y-118603812D01*
X96315312Y-118390005D01*
X96483299Y-118138595D01*
X96599011Y-117859243D01*
X96630112Y-117702887D01*
X96630112Y-117782340D01*
G36*
X130791001Y-103470162D02*
G01*
X130785994Y-103521000D01*
X130805977Y-103723895D01*
X130865160Y-103918993D01*
X130961266Y-104098797D01*
X131058197Y-104216907D01*
X131090605Y-104256396D01*
X131130092Y-104288802D01*
X132185196Y-105343907D01*
X132217604Y-105383396D01*
X132257092Y-105415803D01*
X132375202Y-105512734D01*
X132448472Y-105551897D01*
X132555007Y-105608841D01*
X132750105Y-105668024D01*
X132902162Y-105683000D01*
X132902165Y-105683000D01*
X132953000Y-105688007D01*
X133003835Y-105683000D01*
X134710403Y-105683000D01*
X134708522Y-105702100D01*
X134708522Y-106702860D01*
X134718852Y-106807738D01*
X134735194Y-106861612D01*
X133101844Y-106861612D01*
X133088613Y-106854540D01*
X132893514Y-106795357D01*
X132690619Y-106775374D01*
X132487725Y-106795357D01*
X132292627Y-106854540D01*
X132279396Y-106861612D01*
X132203200Y-106861612D01*
X132098322Y-106871942D01*
X131997474Y-106902533D01*
X131904532Y-106952212D01*
X131823068Y-107019068D01*
X131756212Y-107100532D01*
X131706533Y-107193474D01*
X131675942Y-107294322D01*
X131665612Y-107399200D01*
X131665612Y-107611419D01*
X131662977Y-107620105D01*
X131642994Y-107823000D01*
X131662977Y-108025895D01*
X131665612Y-108034581D01*
X131665612Y-108399200D01*
X131675942Y-108504078D01*
X131706533Y-108604926D01*
X131756212Y-108697868D01*
X131823068Y-108779332D01*
X131904532Y-108846188D01*
X131997474Y-108895867D01*
X132098322Y-108926458D01*
X132203200Y-108936788D01*
X134903200Y-108936788D01*
X134929475Y-108934200D01*
X134983273Y-108934200D01*
X134947442Y-108953352D01*
X134865978Y-109020208D01*
X134799122Y-109101672D01*
X134749443Y-109194614D01*
X134718852Y-109295462D01*
X134708522Y-109400340D01*
X134708522Y-110113800D01*
X134527911Y-110113800D01*
X134347271Y-110149732D01*
X134177111Y-110220214D01*
X134023972Y-110322538D01*
X133893738Y-110452772D01*
X133791414Y-110605911D01*
X133720932Y-110776071D01*
X133685000Y-110956711D01*
X133685000Y-111140889D01*
X133720932Y-111321529D01*
X133784058Y-111473929D01*
X133766574Y-111479233D01*
X133673632Y-111528912D01*
X133592168Y-111595768D01*
X133525312Y-111677232D01*
X133475633Y-111770174D01*
X133445042Y-111871022D01*
X133434712Y-111975900D01*
X133434712Y-113779300D01*
X133445042Y-113884178D01*
X133475633Y-113985026D01*
X133525312Y-114077968D01*
X133539567Y-114095337D01*
X133492226Y-114070033D01*
X133391378Y-114039442D01*
X133286500Y-114029112D01*
X131686300Y-114029112D01*
X131581422Y-114039442D01*
X131480574Y-114070033D01*
X131387632Y-114119712D01*
X131306168Y-114186568D01*
X131239312Y-114268032D01*
X131189633Y-114360974D01*
X131159042Y-114461822D01*
X131148712Y-114566700D01*
X131148712Y-114683305D01*
X131147746Y-114683400D01*
X131147739Y-114683400D01*
X131032413Y-114694759D01*
X130884440Y-114739646D01*
X130748067Y-114812538D01*
X130628536Y-114910636D01*
X130603955Y-114940588D01*
X130586990Y-114957553D01*
X130557036Y-114982136D01*
X130458938Y-115101668D01*
X130386046Y-115238041D01*
X130341159Y-115386014D01*
X130333619Y-115462564D01*
X130286214Y-115533511D01*
X130215732Y-115703671D01*
X130179800Y-115884311D01*
X130179800Y-116068489D01*
X130215732Y-116249129D01*
X130266834Y-116372500D01*
X128722620Y-116372500D01*
X126717808Y-114367688D01*
X127495300Y-114367688D01*
X127600178Y-114357358D01*
X127701026Y-114326767D01*
X127793968Y-114277088D01*
X127875432Y-114210232D01*
X127942288Y-114128768D01*
X127991967Y-114035826D01*
X128022558Y-113934978D01*
X128032888Y-113830100D01*
X128032888Y-112026700D01*
X128022558Y-111921822D01*
X127991967Y-111820974D01*
X127942288Y-111728032D01*
X127875432Y-111646568D01*
X127793968Y-111579712D01*
X127701026Y-111530033D01*
X127600178Y-111499442D01*
X127537813Y-111493299D01*
X127538988Y-111491868D01*
X127588667Y-111398926D01*
X127619258Y-111298078D01*
X127629588Y-111193200D01*
X127629588Y-110193200D01*
X127619738Y-110093200D01*
X127629588Y-109993200D01*
X127629588Y-108993200D01*
X127619258Y-108888322D01*
X127588667Y-108787474D01*
X127538988Y-108694532D01*
X127472132Y-108613068D01*
X127390668Y-108546212D01*
X127297726Y-108496533D01*
X127280614Y-108491342D01*
X127277000Y-108454644D01*
X127277000Y-108454639D01*
X127272801Y-108412006D01*
X127265642Y-108339313D01*
X127220754Y-108191340D01*
X127206910Y-108165439D01*
X127147862Y-108054967D01*
X127049764Y-107935436D01*
X127019810Y-107910853D01*
X126179299Y-107070342D01*
X126179299Y-106251155D01*
X126183096Y-106212599D01*
X126179299Y-106174043D01*
X126179299Y-106174038D01*
X126171069Y-106090476D01*
X126167941Y-106058712D01*
X126131413Y-105938297D01*
X126123053Y-105910739D01*
X126050161Y-105774366D01*
X125952063Y-105654835D01*
X125922105Y-105630248D01*
X125732848Y-105440991D01*
X125708264Y-105411036D01*
X125588733Y-105312938D01*
X125452360Y-105240046D01*
X125442653Y-105237101D01*
X125507833Y-105202262D01*
X125627364Y-105104164D01*
X125651947Y-105074210D01*
X126563158Y-104163000D01*
X127433180Y-104163000D01*
X127425742Y-104187522D01*
X127415412Y-104292400D01*
X127415412Y-105003600D01*
X127425742Y-105108478D01*
X127456333Y-105209326D01*
X127506012Y-105302268D01*
X127572868Y-105383732D01*
X127654332Y-105450588D01*
X127747274Y-105500267D01*
X127848122Y-105530858D01*
X127953000Y-105541188D01*
X129953000Y-105541188D01*
X130057878Y-105530858D01*
X130158726Y-105500267D01*
X130251668Y-105450588D01*
X130333132Y-105383732D01*
X130399988Y-105302268D01*
X130449667Y-105209326D01*
X130480258Y-105108478D01*
X130490588Y-105003600D01*
X130490588Y-104292400D01*
X130480258Y-104187522D01*
X130449667Y-104086674D01*
X130410287Y-104013000D01*
X130449667Y-103939326D01*
X130480258Y-103838478D01*
X130490588Y-103733600D01*
X130490588Y-103022400D01*
X130480258Y-102917522D01*
X130449667Y-102816674D01*
X130410287Y-102743000D01*
X130449667Y-102669326D01*
X130480258Y-102568478D01*
X130490588Y-102463600D01*
X130490588Y-101752400D01*
X130480258Y-101647522D01*
X130449667Y-101546674D01*
X130399988Y-101453732D01*
X130333132Y-101372268D01*
X130251668Y-101305412D01*
X130158726Y-101255733D01*
X130057878Y-101225142D01*
X129953000Y-101214812D01*
X127953000Y-101214812D01*
X127848122Y-101225142D01*
X127747274Y-101255733D01*
X127654332Y-101305412D01*
X127632901Y-101323000D01*
X125890594Y-101323000D01*
X125852038Y-101319203D01*
X125813482Y-101323000D01*
X125813477Y-101323000D01*
X125773064Y-101326980D01*
X125698151Y-101334358D01*
X125550178Y-101379246D01*
X125413805Y-101452138D01*
X125324283Y-101525608D01*
X125315683Y-101438294D01*
X125239347Y-101186646D01*
X125115382Y-100954725D01*
X124948555Y-100751445D01*
X124767673Y-100603000D01*
X130791000Y-100603000D01*
X130791001Y-103470162D01*
X130791001Y-103470162D01*
G37*
X130791001Y-103470162D02*
X130785994Y-103521000D01*
X130805977Y-103723895D01*
X130865160Y-103918993D01*
X130961266Y-104098797D01*
X131058197Y-104216907D01*
X131090605Y-104256396D01*
X131130092Y-104288802D01*
X132185196Y-105343907D01*
X132217604Y-105383396D01*
X132257092Y-105415803D01*
X132375202Y-105512734D01*
X132448472Y-105551897D01*
X132555007Y-105608841D01*
X132750105Y-105668024D01*
X132902162Y-105683000D01*
X132902165Y-105683000D01*
X132953000Y-105688007D01*
X133003835Y-105683000D01*
X134710403Y-105683000D01*
X134708522Y-105702100D01*
X134708522Y-106702860D01*
X134718852Y-106807738D01*
X134735194Y-106861612D01*
X133101844Y-106861612D01*
X133088613Y-106854540D01*
X132893514Y-106795357D01*
X132690619Y-106775374D01*
X132487725Y-106795357D01*
X132292627Y-106854540D01*
X132279396Y-106861612D01*
X132203200Y-106861612D01*
X132098322Y-106871942D01*
X131997474Y-106902533D01*
X131904532Y-106952212D01*
X131823068Y-107019068D01*
X131756212Y-107100532D01*
X131706533Y-107193474D01*
X131675942Y-107294322D01*
X131665612Y-107399200D01*
X131665612Y-107611419D01*
X131662977Y-107620105D01*
X131642994Y-107823000D01*
X131662977Y-108025895D01*
X131665612Y-108034581D01*
X131665612Y-108399200D01*
X131675942Y-108504078D01*
X131706533Y-108604926D01*
X131756212Y-108697868D01*
X131823068Y-108779332D01*
X131904532Y-108846188D01*
X131997474Y-108895867D01*
X132098322Y-108926458D01*
X132203200Y-108936788D01*
X134903200Y-108936788D01*
X134929475Y-108934200D01*
X134983273Y-108934200D01*
X134947442Y-108953352D01*
X134865978Y-109020208D01*
X134799122Y-109101672D01*
X134749443Y-109194614D01*
X134718852Y-109295462D01*
X134708522Y-109400340D01*
X134708522Y-110113800D01*
X134527911Y-110113800D01*
X134347271Y-110149732D01*
X134177111Y-110220214D01*
X134023972Y-110322538D01*
X133893738Y-110452772D01*
X133791414Y-110605911D01*
X133720932Y-110776071D01*
X133685000Y-110956711D01*
X133685000Y-111140889D01*
X133720932Y-111321529D01*
X133784058Y-111473929D01*
X133766574Y-111479233D01*
X133673632Y-111528912D01*
X133592168Y-111595768D01*
X133525312Y-111677232D01*
X133475633Y-111770174D01*
X133445042Y-111871022D01*
X133434712Y-111975900D01*
X133434712Y-113779300D01*
X133445042Y-113884178D01*
X133475633Y-113985026D01*
X133525312Y-114077968D01*
X133539567Y-114095337D01*
X133492226Y-114070033D01*
X133391378Y-114039442D01*
X133286500Y-114029112D01*
X131686300Y-114029112D01*
X131581422Y-114039442D01*
X131480574Y-114070033D01*
X131387632Y-114119712D01*
X131306168Y-114186568D01*
X131239312Y-114268032D01*
X131189633Y-114360974D01*
X131159042Y-114461822D01*
X131148712Y-114566700D01*
X131148712Y-114683305D01*
X131147746Y-114683400D01*
X131147739Y-114683400D01*
X131032413Y-114694759D01*
X130884440Y-114739646D01*
X130748067Y-114812538D01*
X130628536Y-114910636D01*
X130603955Y-114940588D01*
X130586990Y-114957553D01*
X130557036Y-114982136D01*
X130458938Y-115101668D01*
X130386046Y-115238041D01*
X130341159Y-115386014D01*
X130333619Y-115462564D01*
X130286214Y-115533511D01*
X130215732Y-115703671D01*
X130179800Y-115884311D01*
X130179800Y-116068489D01*
X130215732Y-116249129D01*
X130266834Y-116372500D01*
X128722620Y-116372500D01*
X126717808Y-114367688D01*
X127495300Y-114367688D01*
X127600178Y-114357358D01*
X127701026Y-114326767D01*
X127793968Y-114277088D01*
X127875432Y-114210232D01*
X127942288Y-114128768D01*
X127991967Y-114035826D01*
X128022558Y-113934978D01*
X128032888Y-113830100D01*
X128032888Y-112026700D01*
X128022558Y-111921822D01*
X127991967Y-111820974D01*
X127942288Y-111728032D01*
X127875432Y-111646568D01*
X127793968Y-111579712D01*
X127701026Y-111530033D01*
X127600178Y-111499442D01*
X127537813Y-111493299D01*
X127538988Y-111491868D01*
X127588667Y-111398926D01*
X127619258Y-111298078D01*
X127629588Y-111193200D01*
X127629588Y-110193200D01*
X127619738Y-110093200D01*
X127629588Y-109993200D01*
X127629588Y-108993200D01*
X127619258Y-108888322D01*
X127588667Y-108787474D01*
X127538988Y-108694532D01*
X127472132Y-108613068D01*
X127390668Y-108546212D01*
X127297726Y-108496533D01*
X127280614Y-108491342D01*
X127277000Y-108454644D01*
X127277000Y-108454639D01*
X127272801Y-108412006D01*
X127265642Y-108339313D01*
X127220754Y-108191340D01*
X127206910Y-108165439D01*
X127147862Y-108054967D01*
X127049764Y-107935436D01*
X127019810Y-107910853D01*
X126179299Y-107070342D01*
X126179299Y-106251155D01*
X126183096Y-106212599D01*
X126179299Y-106174043D01*
X126179299Y-106174038D01*
X126171069Y-106090476D01*
X126167941Y-106058712D01*
X126131413Y-105938297D01*
X126123053Y-105910739D01*
X126050161Y-105774366D01*
X125952063Y-105654835D01*
X125922105Y-105630248D01*
X125732848Y-105440991D01*
X125708264Y-105411036D01*
X125588733Y-105312938D01*
X125452360Y-105240046D01*
X125442653Y-105237101D01*
X125507833Y-105202262D01*
X125627364Y-105104164D01*
X125651947Y-105074210D01*
X126563158Y-104163000D01*
X127433180Y-104163000D01*
X127425742Y-104187522D01*
X127415412Y-104292400D01*
X127415412Y-105003600D01*
X127425742Y-105108478D01*
X127456333Y-105209326D01*
X127506012Y-105302268D01*
X127572868Y-105383732D01*
X127654332Y-105450588D01*
X127747274Y-105500267D01*
X127848122Y-105530858D01*
X127953000Y-105541188D01*
X129953000Y-105541188D01*
X130057878Y-105530858D01*
X130158726Y-105500267D01*
X130251668Y-105450588D01*
X130333132Y-105383732D01*
X130399988Y-105302268D01*
X130449667Y-105209326D01*
X130480258Y-105108478D01*
X130490588Y-105003600D01*
X130490588Y-104292400D01*
X130480258Y-104187522D01*
X130449667Y-104086674D01*
X130410287Y-104013000D01*
X130449667Y-103939326D01*
X130480258Y-103838478D01*
X130490588Y-103733600D01*
X130490588Y-103022400D01*
X130480258Y-102917522D01*
X130449667Y-102816674D01*
X130410287Y-102743000D01*
X130449667Y-102669326D01*
X130480258Y-102568478D01*
X130490588Y-102463600D01*
X130490588Y-101752400D01*
X130480258Y-101647522D01*
X130449667Y-101546674D01*
X130399988Y-101453732D01*
X130333132Y-101372268D01*
X130251668Y-101305412D01*
X130158726Y-101255733D01*
X130057878Y-101225142D01*
X129953000Y-101214812D01*
X127953000Y-101214812D01*
X127848122Y-101225142D01*
X127747274Y-101255733D01*
X127654332Y-101305412D01*
X127632901Y-101323000D01*
X125890594Y-101323000D01*
X125852038Y-101319203D01*
X125813482Y-101323000D01*
X125813477Y-101323000D01*
X125773064Y-101326980D01*
X125698151Y-101334358D01*
X125550178Y-101379246D01*
X125413805Y-101452138D01*
X125324283Y-101525608D01*
X125315683Y-101438294D01*
X125239347Y-101186646D01*
X125115382Y-100954725D01*
X124948555Y-100751445D01*
X124767673Y-100603000D01*
X130791000Y-100603000D01*
X130791001Y-103470162D01*
G36*
X117657111Y-111328586D02*
G01*
X117827271Y-111399068D01*
X118007911Y-111435000D01*
X118192089Y-111435000D01*
X118372729Y-111399068D01*
X118542889Y-111328586D01*
X118608120Y-111285000D01*
X119064843Y-111285000D01*
X120220058Y-112440216D01*
X120244636Y-112470164D01*
X120274584Y-112494742D01*
X120274587Y-112494745D01*
X120292883Y-112509760D01*
X120364167Y-112568262D01*
X120500540Y-112641154D01*
X120595175Y-112669861D01*
X120648512Y-112686041D01*
X120662890Y-112687457D01*
X120761835Y-112697203D01*
X120784846Y-112773059D01*
X120857738Y-112909432D01*
X120955836Y-113028964D01*
X120985790Y-113053547D01*
X121425650Y-113493406D01*
X121450237Y-113523365D01*
X121569768Y-113621463D01*
X121701524Y-113691887D01*
X121706141Y-113694355D01*
X121854114Y-113739243D01*
X121929027Y-113746621D01*
X121969440Y-113750601D01*
X121969445Y-113750601D01*
X122008001Y-113754398D01*
X122046557Y-113750601D01*
X123202614Y-113750601D01*
X123151332Y-113778012D01*
X123069868Y-113844868D01*
X123003012Y-113926332D01*
X122953333Y-114019274D01*
X122922742Y-114120122D01*
X122912412Y-114225000D01*
X122912412Y-114775000D01*
X122922742Y-114879878D01*
X122928846Y-114900000D01*
X122922742Y-114920122D01*
X122912412Y-115025000D01*
X122912412Y-115412412D01*
X122525000Y-115412412D01*
X122420122Y-115422742D01*
X122400000Y-115428846D01*
X122379878Y-115422742D01*
X122275000Y-115412412D01*
X121725000Y-115412412D01*
X121620122Y-115422742D01*
X121600000Y-115428846D01*
X121579878Y-115422742D01*
X121475000Y-115412412D01*
X120925000Y-115412412D01*
X120820122Y-115422742D01*
X120800000Y-115428846D01*
X120779878Y-115422742D01*
X120675000Y-115412412D01*
X120385000Y-115412412D01*
X120385000Y-114266120D01*
X120428586Y-114200889D01*
X120499068Y-114030729D01*
X120535000Y-113850089D01*
X120535000Y-113665911D01*
X120499068Y-113485271D01*
X120428586Y-113315111D01*
X120326262Y-113161972D01*
X120196028Y-113031738D01*
X120042889Y-112929414D01*
X119872729Y-112858932D01*
X119692089Y-112823000D01*
X119507911Y-112823000D01*
X119327271Y-112858932D01*
X119157111Y-112929414D01*
X119003972Y-113031738D01*
X118873738Y-113161972D01*
X118771414Y-113315111D01*
X118700932Y-113485271D01*
X118665000Y-113665911D01*
X118665000Y-113850089D01*
X118669557Y-113873000D01*
X118657901Y-113873000D01*
X118477261Y-113908932D01*
X118307101Y-113979414D01*
X118153962Y-114081738D01*
X118023728Y-114211972D01*
X117921404Y-114365111D01*
X117850922Y-114535271D01*
X117814990Y-114715911D01*
X117814990Y-114900089D01*
X117850922Y-115080729D01*
X117921404Y-115250889D01*
X118015001Y-115390967D01*
X118015001Y-115412412D01*
X117725000Y-115412412D01*
X117620122Y-115422742D01*
X117600000Y-115428846D01*
X117579878Y-115422742D01*
X117475000Y-115412412D01*
X117087588Y-115412412D01*
X117087588Y-115025000D01*
X117077258Y-114920122D01*
X117071154Y-114900000D01*
X117077258Y-114879878D01*
X117087588Y-114775000D01*
X117087588Y-114225000D01*
X117077258Y-114120122D01*
X117071154Y-114100000D01*
X117077258Y-114079878D01*
X117087588Y-113975000D01*
X117087588Y-113425000D01*
X117077258Y-113320122D01*
X117046667Y-113219274D01*
X116996988Y-113126332D01*
X116930132Y-113044868D01*
X116848668Y-112978012D01*
X116755726Y-112928333D01*
X116662322Y-112900000D01*
X116755726Y-112871667D01*
X116848668Y-112821988D01*
X116930132Y-112755132D01*
X116996988Y-112673668D01*
X117046667Y-112580726D01*
X117077258Y-112479878D01*
X117087588Y-112375000D01*
X117087588Y-111825000D01*
X117077258Y-111720122D01*
X117071154Y-111700000D01*
X117077258Y-111679878D01*
X117087588Y-111575000D01*
X117087588Y-111285000D01*
X117591880Y-111285000D01*
X117657111Y-111328586D01*
X117657111Y-111328586D01*
G37*
X117657111Y-111328586D02*
X117827271Y-111399068D01*
X118007911Y-111435000D01*
X118192089Y-111435000D01*
X118372729Y-111399068D01*
X118542889Y-111328586D01*
X118608120Y-111285000D01*
X119064843Y-111285000D01*
X120220058Y-112440216D01*
X120244636Y-112470164D01*
X120274584Y-112494742D01*
X120274587Y-112494745D01*
X120292883Y-112509760D01*
X120364167Y-112568262D01*
X120500540Y-112641154D01*
X120595175Y-112669861D01*
X120648512Y-112686041D01*
X120662890Y-112687457D01*
X120761835Y-112697203D01*
X120784846Y-112773059D01*
X120857738Y-112909432D01*
X120955836Y-113028964D01*
X120985790Y-113053547D01*
X121425650Y-113493406D01*
X121450237Y-113523365D01*
X121569768Y-113621463D01*
X121701524Y-113691887D01*
X121706141Y-113694355D01*
X121854114Y-113739243D01*
X121929027Y-113746621D01*
X121969440Y-113750601D01*
X121969445Y-113750601D01*
X122008001Y-113754398D01*
X122046557Y-113750601D01*
X123202614Y-113750601D01*
X123151332Y-113778012D01*
X123069868Y-113844868D01*
X123003012Y-113926332D01*
X122953333Y-114019274D01*
X122922742Y-114120122D01*
X122912412Y-114225000D01*
X122912412Y-114775000D01*
X122922742Y-114879878D01*
X122928846Y-114900000D01*
X122922742Y-114920122D01*
X122912412Y-115025000D01*
X122912412Y-115412412D01*
X122525000Y-115412412D01*
X122420122Y-115422742D01*
X122400000Y-115428846D01*
X122379878Y-115422742D01*
X122275000Y-115412412D01*
X121725000Y-115412412D01*
X121620122Y-115422742D01*
X121600000Y-115428846D01*
X121579878Y-115422742D01*
X121475000Y-115412412D01*
X120925000Y-115412412D01*
X120820122Y-115422742D01*
X120800000Y-115428846D01*
X120779878Y-115422742D01*
X120675000Y-115412412D01*
X120385000Y-115412412D01*
X120385000Y-114266120D01*
X120428586Y-114200889D01*
X120499068Y-114030729D01*
X120535000Y-113850089D01*
X120535000Y-113665911D01*
X120499068Y-113485271D01*
X120428586Y-113315111D01*
X120326262Y-113161972D01*
X120196028Y-113031738D01*
X120042889Y-112929414D01*
X119872729Y-112858932D01*
X119692089Y-112823000D01*
X119507911Y-112823000D01*
X119327271Y-112858932D01*
X119157111Y-112929414D01*
X119003972Y-113031738D01*
X118873738Y-113161972D01*
X118771414Y-113315111D01*
X118700932Y-113485271D01*
X118665000Y-113665911D01*
X118665000Y-113850089D01*
X118669557Y-113873000D01*
X118657901Y-113873000D01*
X118477261Y-113908932D01*
X118307101Y-113979414D01*
X118153962Y-114081738D01*
X118023728Y-114211972D01*
X117921404Y-114365111D01*
X117850922Y-114535271D01*
X117814990Y-114715911D01*
X117814990Y-114900089D01*
X117850922Y-115080729D01*
X117921404Y-115250889D01*
X118015001Y-115390967D01*
X118015001Y-115412412D01*
X117725000Y-115412412D01*
X117620122Y-115422742D01*
X117600000Y-115428846D01*
X117579878Y-115422742D01*
X117475000Y-115412412D01*
X117087588Y-115412412D01*
X117087588Y-115025000D01*
X117077258Y-114920122D01*
X117071154Y-114900000D01*
X117077258Y-114879878D01*
X117087588Y-114775000D01*
X117087588Y-114225000D01*
X117077258Y-114120122D01*
X117071154Y-114100000D01*
X117077258Y-114079878D01*
X117087588Y-113975000D01*
X117087588Y-113425000D01*
X117077258Y-113320122D01*
X117046667Y-113219274D01*
X116996988Y-113126332D01*
X116930132Y-113044868D01*
X116848668Y-112978012D01*
X116755726Y-112928333D01*
X116662322Y-112900000D01*
X116755726Y-112871667D01*
X116848668Y-112821988D01*
X116930132Y-112755132D01*
X116996988Y-112673668D01*
X117046667Y-112580726D01*
X117077258Y-112479878D01*
X117087588Y-112375000D01*
X117087588Y-111825000D01*
X117077258Y-111720122D01*
X117071154Y-111700000D01*
X117077258Y-111679878D01*
X117087588Y-111575000D01*
X117087588Y-111285000D01*
X117591880Y-111285000D01*
X117657111Y-111328586D01*
G36*
X113220094Y-112627815D02*
G01*
X113244673Y-112657764D01*
X113274621Y-112682342D01*
X113274624Y-112682345D01*
X113292969Y-112697400D01*
X113364204Y-112755862D01*
X113487919Y-112821988D01*
X113500577Y-112828754D01*
X113648549Y-112873641D01*
X113662927Y-112875057D01*
X113763876Y-112885000D01*
X113763883Y-112885000D01*
X113802436Y-112888797D01*
X113840989Y-112885000D01*
X114788228Y-112885000D01*
X114837678Y-112900000D01*
X114788228Y-112915000D01*
X113746154Y-112915000D01*
X113707601Y-112911203D01*
X113669048Y-112915000D01*
X113669041Y-112915000D01*
X113568092Y-112924943D01*
X113553714Y-112926359D01*
X113532027Y-112932938D01*
X113405742Y-112971246D01*
X113269369Y-113044138D01*
X113209161Y-113093550D01*
X113179789Y-113117655D01*
X113179786Y-113117658D01*
X113149838Y-113142236D01*
X113125259Y-113172185D01*
X112995988Y-113301456D01*
X112995988Y-112403709D01*
X113220094Y-112627815D01*
X113220094Y-112627815D01*
G37*
X113220094Y-112627815D02*
X113244673Y-112657764D01*
X113274621Y-112682342D01*
X113274624Y-112682345D01*
X113292969Y-112697400D01*
X113364204Y-112755862D01*
X113487919Y-112821988D01*
X113500577Y-112828754D01*
X113648549Y-112873641D01*
X113662927Y-112875057D01*
X113763876Y-112885000D01*
X113763883Y-112885000D01*
X113802436Y-112888797D01*
X113840989Y-112885000D01*
X114788228Y-112885000D01*
X114837678Y-112900000D01*
X114788228Y-112915000D01*
X113746154Y-112915000D01*
X113707601Y-112911203D01*
X113669048Y-112915000D01*
X113669041Y-112915000D01*
X113568092Y-112924943D01*
X113553714Y-112926359D01*
X113532027Y-112932938D01*
X113405742Y-112971246D01*
X113269369Y-113044138D01*
X113209161Y-113093550D01*
X113179789Y-113117655D01*
X113179786Y-113117658D01*
X113149838Y-113142236D01*
X113125259Y-113172185D01*
X112995988Y-113301456D01*
X112995988Y-112403709D01*
X113220094Y-112627815D01*
G36*
X100133696Y-109153907D02*
G01*
X100166104Y-109193396D01*
X100205592Y-109225803D01*
X100323702Y-109322734D01*
X100394843Y-109360759D01*
X100503507Y-109418841D01*
X100698605Y-109478024D01*
X100850662Y-109493000D01*
X100850664Y-109493000D01*
X100855848Y-109493511D01*
X100846512Y-109588300D01*
X100846512Y-111391700D01*
X100856842Y-111496578D01*
X100875378Y-111557685D01*
X100730412Y-111513710D01*
X100429500Y-111484073D01*
X100128587Y-111513710D01*
X99839239Y-111601483D01*
X99572573Y-111744019D01*
X99338839Y-111935839D01*
X99147019Y-112169574D01*
X99027555Y-112393076D01*
X98964968Y-112341712D01*
X98872026Y-112292033D01*
X98771178Y-112261442D01*
X98666300Y-112251112D01*
X97167700Y-112251112D01*
X97062822Y-112261442D01*
X96961974Y-112292033D01*
X96869032Y-112341712D01*
X96787568Y-112408568D01*
X96720712Y-112490032D01*
X96671033Y-112582974D01*
X96640442Y-112683822D01*
X96633628Y-112753000D01*
X95967500Y-112753000D01*
X95967500Y-110445500D01*
X96815725Y-110445500D01*
X96842000Y-110448088D01*
X99242000Y-110448088D01*
X99346878Y-110437758D01*
X99447726Y-110407167D01*
X99540668Y-110357488D01*
X99622132Y-110290632D01*
X99688988Y-110209168D01*
X99738667Y-110116226D01*
X99769258Y-110015378D01*
X99779588Y-109910500D01*
X99779588Y-108910500D01*
X99769258Y-108805622D01*
X99762225Y-108782435D01*
X100133696Y-109153907D01*
X100133696Y-109153907D01*
G37*
X100133696Y-109153907D02*
X100166104Y-109193396D01*
X100205592Y-109225803D01*
X100323702Y-109322734D01*
X100394843Y-109360759D01*
X100503507Y-109418841D01*
X100698605Y-109478024D01*
X100850662Y-109493000D01*
X100850664Y-109493000D01*
X100855848Y-109493511D01*
X100846512Y-109588300D01*
X100846512Y-111391700D01*
X100856842Y-111496578D01*
X100875378Y-111557685D01*
X100730412Y-111513710D01*
X100429500Y-111484073D01*
X100128587Y-111513710D01*
X99839239Y-111601483D01*
X99572573Y-111744019D01*
X99338839Y-111935839D01*
X99147019Y-112169574D01*
X99027555Y-112393076D01*
X98964968Y-112341712D01*
X98872026Y-112292033D01*
X98771178Y-112261442D01*
X98666300Y-112251112D01*
X97167700Y-112251112D01*
X97062822Y-112261442D01*
X96961974Y-112292033D01*
X96869032Y-112341712D01*
X96787568Y-112408568D01*
X96720712Y-112490032D01*
X96671033Y-112582974D01*
X96640442Y-112683822D01*
X96633628Y-112753000D01*
X95967500Y-112753000D01*
X95967500Y-110445500D01*
X96815725Y-110445500D01*
X96842000Y-110448088D01*
X99242000Y-110448088D01*
X99346878Y-110437758D01*
X99447726Y-110407167D01*
X99540668Y-110357488D01*
X99622132Y-110290632D01*
X99688988Y-110209168D01*
X99738667Y-110116226D01*
X99769258Y-110015378D01*
X99779588Y-109910500D01*
X99779588Y-108910500D01*
X99769258Y-108805622D01*
X99762225Y-108782435D01*
X100133696Y-109153907D01*
G36*
X123151332Y-112021988D02*
G01*
X123244274Y-112071667D01*
X123337678Y-112100000D01*
X123244274Y-112128333D01*
X123222058Y-112140208D01*
X123164628Y-112157629D01*
X123119740Y-112171246D01*
X123102238Y-112180601D01*
X122333157Y-112180601D01*
X122298600Y-112146043D01*
X122298600Y-112010001D01*
X123136726Y-112010001D01*
X123151332Y-112021988D01*
X123151332Y-112021988D01*
G37*
X123151332Y-112021988D02*
X123244274Y-112071667D01*
X123337678Y-112100000D01*
X123244274Y-112128333D01*
X123222058Y-112140208D01*
X123164628Y-112157629D01*
X123119740Y-112171246D01*
X123102238Y-112180601D01*
X122333157Y-112180601D01*
X122298600Y-112146043D01*
X122298600Y-112010001D01*
X123136726Y-112010001D01*
X123151332Y-112021988D01*
G36*
X100078592Y-103447302D02*
G01*
X101975196Y-105343907D01*
X102007604Y-105383396D01*
X102047092Y-105415803D01*
X102165202Y-105512734D01*
X102238472Y-105551897D01*
X102345007Y-105608841D01*
X102540105Y-105668024D01*
X102692162Y-105683000D01*
X102692171Y-105683000D01*
X102742999Y-105688006D01*
X102793827Y-105683000D01*
X103615112Y-105683000D01*
X103615112Y-107423000D01*
X102104728Y-107423000D01*
X102053900Y-107417994D01*
X102003072Y-107423000D01*
X101330211Y-107423000D01*
X100829057Y-106921847D01*
X100321807Y-106414597D01*
X100289396Y-106375104D01*
X100131797Y-106245766D01*
X100097588Y-106227481D01*
X100097588Y-104958061D01*
X100100007Y-104933500D01*
X100097588Y-104908939D01*
X100097588Y-103583500D01*
X100087258Y-103478622D01*
X100077481Y-103446390D01*
X100078592Y-103447302D01*
X100078592Y-103447302D01*
G37*
X100078592Y-103447302D02*
X101975196Y-105343907D01*
X102007604Y-105383396D01*
X102047092Y-105415803D01*
X102165202Y-105512734D01*
X102238472Y-105551897D01*
X102345007Y-105608841D01*
X102540105Y-105668024D01*
X102692162Y-105683000D01*
X102692171Y-105683000D01*
X102742999Y-105688006D01*
X102793827Y-105683000D01*
X103615112Y-105683000D01*
X103615112Y-107423000D01*
X102104728Y-107423000D01*
X102053900Y-107417994D01*
X102003072Y-107423000D01*
X101330211Y-107423000D01*
X100829057Y-106921847D01*
X100321807Y-106414597D01*
X100289396Y-106375104D01*
X100131797Y-106245766D01*
X100097588Y-106227481D01*
X100097588Y-104958061D01*
X100100007Y-104933500D01*
X100097588Y-104908939D01*
X100097588Y-103583500D01*
X100087258Y-103478622D01*
X100077481Y-103446390D01*
X100078592Y-103447302D01*
G36*
X117971445Y-100751445D02*
G01*
X117804618Y-100954726D01*
X117680653Y-101186647D01*
X117604317Y-101438295D01*
X117585000Y-101634422D01*
X117585000Y-102165579D01*
X117604317Y-102361706D01*
X117680653Y-102613354D01*
X117804618Y-102845275D01*
X117971446Y-103048555D01*
X118174726Y-103215382D01*
X118406647Y-103339347D01*
X118658295Y-103415683D01*
X118920000Y-103441459D01*
X119181706Y-103415683D01*
X119433354Y-103339347D01*
X119665275Y-103215382D01*
X119868555Y-103048555D01*
X120035382Y-102845275D01*
X120159347Y-102613353D01*
X120190000Y-102512303D01*
X120220653Y-102613354D01*
X120321867Y-102802711D01*
X120239648Y-102846657D01*
X120196102Y-102882395D01*
X120150068Y-102920174D01*
X120150065Y-102920177D01*
X120120117Y-102944755D01*
X120095539Y-102974704D01*
X119072190Y-103998053D01*
X119042236Y-104022636D01*
X118944138Y-104142168D01*
X118871246Y-104278541D01*
X118826359Y-104426514D01*
X118815000Y-104541840D01*
X118815000Y-104541847D01*
X118811203Y-104580400D01*
X118815000Y-104618953D01*
X118815000Y-105639842D01*
X114755345Y-101580188D01*
X114730764Y-101550236D01*
X114611233Y-101452138D01*
X114474860Y-101379246D01*
X114326887Y-101334359D01*
X114211561Y-101323000D01*
X114211553Y-101323000D01*
X114173000Y-101319203D01*
X114134447Y-101323000D01*
X113168320Y-101323000D01*
X113175758Y-101298478D01*
X113186088Y-101193600D01*
X113186088Y-100603000D01*
X118152326Y-100603000D01*
X117971445Y-100751445D01*
X117971445Y-100751445D01*
G37*
X117971445Y-100751445D02*
X117804618Y-100954726D01*
X117680653Y-101186647D01*
X117604317Y-101438295D01*
X117585000Y-101634422D01*
X117585000Y-102165579D01*
X117604317Y-102361706D01*
X117680653Y-102613354D01*
X117804618Y-102845275D01*
X117971446Y-103048555D01*
X118174726Y-103215382D01*
X118406647Y-103339347D01*
X118658295Y-103415683D01*
X118920000Y-103441459D01*
X119181706Y-103415683D01*
X119433354Y-103339347D01*
X119665275Y-103215382D01*
X119868555Y-103048555D01*
X120035382Y-102845275D01*
X120159347Y-102613353D01*
X120190000Y-102512303D01*
X120220653Y-102613354D01*
X120321867Y-102802711D01*
X120239648Y-102846657D01*
X120196102Y-102882395D01*
X120150068Y-102920174D01*
X120150065Y-102920177D01*
X120120117Y-102944755D01*
X120095539Y-102974704D01*
X119072190Y-103998053D01*
X119042236Y-104022636D01*
X118944138Y-104142168D01*
X118871246Y-104278541D01*
X118826359Y-104426514D01*
X118815000Y-104541840D01*
X118815000Y-104541847D01*
X118811203Y-104580400D01*
X118815000Y-104618953D01*
X118815000Y-105639842D01*
X114755345Y-101580188D01*
X114730764Y-101550236D01*
X114611233Y-101452138D01*
X114474860Y-101379246D01*
X114326887Y-101334359D01*
X114211561Y-101323000D01*
X114211553Y-101323000D01*
X114173000Y-101319203D01*
X114134447Y-101323000D01*
X113168320Y-101323000D01*
X113175758Y-101298478D01*
X113186088Y-101193600D01*
X113186088Y-100603000D01*
X118152326Y-100603000D01*
X117971445Y-100751445D01*
M02*
