G04 #@! TF.GenerationSoftware,KiCad,Pcbnew,(5.1.4)-1*
G04 #@! TF.CreationDate,2021-02-09T20:39:42-03:00*
G04 #@! TF.ProjectId,Eucalyptus,45756361-6c79-4707-9475-732e6b696361,rev?*
G04 #@! TF.SameCoordinates,Original*
G04 #@! TF.FileFunction,Legend,Bot*
G04 #@! TF.FilePolarity,Positive*
%FSLAX46Y46*%
G04 Gerber Fmt 4.6, Leading zero omitted, Abs format (unit mm)*
G04 Created by KiCad (PCBNEW (5.1.4)-1) date 2021-02-09 20:39:42*
%MOMM*%
%LPD*%
G04 APERTURE LIST*
%ADD10C,0.254000*%
%ADD11C,0.120000*%
%ADD12C,0.150000*%
G04 APERTURE END LIST*
D10*
X146000000Y-125000000D02*
X146000000Y-131000000D01*
X143000000Y-128000000D02*
X149000000Y-128000000D01*
X149000000Y-128000000D02*
G75*
G03X149000000Y-128000000I-3000000J0D01*
G01*
X149000000Y-99000000D02*
G75*
G03X149000000Y-99000000I-3000000J0D01*
G01*
X143000000Y-99000000D02*
X149000000Y-99000000D01*
X146000000Y-96000000D02*
X146000000Y-102000000D01*
X94000000Y-125250000D02*
X94000000Y-131250000D01*
X91000000Y-128250000D02*
X97000000Y-128250000D01*
X97000000Y-128250000D02*
G75*
G03X97000000Y-128250000I-3000000J0D01*
G01*
X97000000Y-99000000D02*
G75*
G03X97000000Y-99000000I-3000000J0D01*
G01*
X91000000Y-99000000D02*
X97000000Y-99000000D01*
X94000000Y-96000000D02*
X94000000Y-102000000D01*
D11*
X125465000Y-95190000D02*
X127965000Y-95190000D01*
X125465000Y-97690000D02*
X125465000Y-95190000D01*
X132485000Y-96990000D02*
X132485000Y-95490000D01*
X133485000Y-96990000D02*
X132485000Y-96990000D01*
X126765000Y-96990000D02*
X126765000Y-95490000D01*
X125765000Y-96990000D02*
X126765000Y-96990000D01*
X132985000Y-97800000D02*
X133485000Y-97800000D01*
X132985000Y-99010000D02*
X132985000Y-97800000D01*
X126265000Y-99010000D02*
X132985000Y-99010000D01*
X126265000Y-97800000D02*
X126265000Y-99010000D01*
X125765000Y-97800000D02*
X126265000Y-97800000D01*
X133485000Y-99510000D02*
X125765000Y-99510000D01*
X133485000Y-95490000D02*
X133485000Y-99510000D01*
X125765000Y-95490000D02*
X133485000Y-95490000D01*
X125765000Y-99510000D02*
X125765000Y-95490000D01*
D12*
X129958333Y-100052380D02*
X129958333Y-100766666D01*
X130005952Y-100909523D01*
X130101190Y-101004761D01*
X130244047Y-101052380D01*
X130339285Y-101052380D01*
X128958333Y-101052380D02*
X129529761Y-101052380D01*
X129244047Y-101052380D02*
X129244047Y-100052380D01*
X129339285Y-100195238D01*
X129434523Y-100290476D01*
X129529761Y-100338095D01*
M02*
