M48
; DRILL file {KiCad (5.1.4)-1} date 9/2/2021 20:48:42
; FORMAT={-:-/ absolute / metric / decimal}
; #@! TF.CreationDate,2021-02-09T20:48:42-03:00
; #@! TF.GenerationSoftware,Kicad,Pcbnew,(5.1.4)-1
FMAT,2
METRIC
T1C0.400
T2C0.750
T3C0.800
T4C1.000
T5C1.001
T6C1.016
T7C3.250
%
G90
G05
T1
X91.694Y-106.426
X97.028Y-103.124
X100.076Y-110.744
X100.838Y-105.156
X102.616Y-115.824
X105.156Y-123.19
X106.426Y-116.84
X109.982Y-117.514
X110.236Y-105.918
X112.827Y-110.134
X113.335Y-112.928
X113.792Y-109.347
X114.998Y-108.204
X118.1Y-110.5
X118.75Y-114.808
X119.126Y-118.364
X119.6Y-113.758
X122.174Y-114.808
X122.733Y-112.116
X123.038Y-118.415
X124.85Y-108.267
X126.695Y-117.958
X127.254Y-121.412
X127.508Y-118.872
X130.556Y-100.838
X131.064Y-114.046
X131.115Y-115.976
X133.096Y-102.87
X134.62Y-111.049
X137.16Y-101.6
T2
X140.5Y-117.2
X140.5Y-119.74
X148.12Y-117.2
X148.12Y-119.74
T3
X139.9Y-108.204
X147.5Y-108.204
T4
X116.205Y-127.881
X126.365Y-127.881
X106.045Y-127.881
X136.525Y-127.857
X100.965Y-127.881
X113.665Y-127.881
X128.375Y-97.8
X130.875Y-97.8
X136.925Y-97.225
X139.425Y-97.225
X123.825Y-127.857
X98.425Y-127.881
X116.38Y-101.9
X118.92Y-101.9
X121.46Y-101.9
X124.0Y-101.9
X103.505Y-127.881
X131.445Y-127.881
X108.585Y-127.881
X118.745Y-127.881
X128.905Y-127.881
X111.125Y-127.881
X141.605Y-127.857
X121.285Y-127.881
X133.985Y-127.881
X100.774Y-97.282
X103.274Y-97.282
X139.065Y-127.857
T5
X116.18Y-96.7
X118.72Y-96.7
X121.26Y-96.7
X123.8Y-96.7
X92.583Y-114.871
X92.583Y-117.411
X92.583Y-119.951
X95.123Y-114.871
X95.123Y-117.411
X95.123Y-119.951
T6
X100.429Y-113.526
X100.429Y-120.026
X104.929Y-113.526
X104.929Y-120.026
T7
X94.0Y-128.25
X94.0Y-99.0
X146.0Y-99.0
X146.0Y-128.0
T0
M30
